<svg width="1440" height="329" viewBox="0 0 1440 329" fill="none" xmlns="http://www.w3.org/2000/svg">
  <mask id="mask0_1272_785" style="mask-type:alpha" maskUnits="userSpaceOnUse" x="0" y="0" width="1440" height="329">
    <rect opacity="0.3" y="0.273438" width="1440" height="328" fill="url(#paint0_linear_1272_785)" />
  </mask>
  <g mask="url(#mask0_1272_785)">
    <line x1="5.16675" y1="-3.72656" x2="5.16678" y2="703.273" stroke="white" stroke-opacity="0.2" />
    <line x1="54.5" y1="-3.72656" x2="54.5" y2="703.273" stroke="white" stroke-opacity="0.2" />
    <line x1="103.833" y1="-3.72656" x2="103.833" y2="703.273" stroke="white" stroke-opacity="0.2" />
    <line x1="153.167" y1="-3.72656" x2="153.167" y2="703.273" stroke="white" stroke-opacity="0.2" />
    <line x1="202.5" y1="-3.72656" x2="202.5" y2="703.273" stroke="white" stroke-opacity="0.2" />
    <line x1="251.833" y1="-3.72656" x2="251.834" y2="703.273" stroke="white" stroke-opacity="0.2" />
    <line x1="301.167" y1="-3.72656" x2="301.167" y2="703.273" stroke="white" stroke-opacity="0.2" />
    <line x1="350.5" y1="-3.72656" x2="350.5" y2="703.273" stroke="white" stroke-opacity="0.2" />
    <line x1="399.833" y1="-3.72656" x2="399.834" y2="703.273" stroke="white" stroke-opacity="0.2" />
    <line x1="449.167" y1="-3.72656" x2="449.167" y2="703.273" stroke="white" stroke-opacity="0.2" />
    <line x1="498.5" y1="-3.72656" x2="498.5" y2="703.273" stroke="white" stroke-opacity="0.2" />
    <line x1="547.833" y1="-3.72656" x2="547.834" y2="703.273" stroke="white" stroke-opacity="0.2" />
    <line x1="597.167" y1="-3.72656" x2="597.167" y2="703.273" stroke="white" stroke-opacity="0.2" />
    <line x1="646.5" y1="-3.72656" x2="646.5" y2="703.273" stroke="white" stroke-opacity="0.2" />
    <line x1="695.833" y1="-3.72656" x2="695.833" y2="703.273" stroke="white" stroke-opacity="0.2" />
    <line x1="745.167" y1="-3.72656" x2="745.167" y2="703.273" stroke="white" stroke-opacity="0.2" />
    <line x1="794.5" y1="-3.72656" x2="794.5" y2="703.273" stroke="white" stroke-opacity="0.2" />
    <line x1="843.833" y1="-3.72656" x2="843.833" y2="703.273" stroke="white" stroke-opacity="0.2" />
    <line x1="893.167" y1="-3.72656" x2="893.167" y2="703.273" stroke="white" stroke-opacity="0.2" />
    <line x1="942.5" y1="-3.72656" x2="942.5" y2="703.273" stroke="white" stroke-opacity="0.2" />
    <line x1="991.833" y1="-3.72656" x2="991.833" y2="703.273" stroke="white" stroke-opacity="0.2" />
    <line x1="1041.17" y1="-3.72656" x2="1041.17" y2="703.273" stroke="white" stroke-opacity="0.2" />
    <line x1="1090.5" y1="-3.72656" x2="1090.5" y2="703.273" stroke="white" stroke-opacity="0.2" />
    <line x1="1139.83" y1="-3.72656" x2="1139.83" y2="703.273" stroke="white" stroke-opacity="0.2" />
    <line x1="1189.17" y1="-3.72656" x2="1189.17" y2="703.273" stroke="white" stroke-opacity="0.2" />
    <line x1="1238.5" y1="-3.72656" x2="1238.5" y2="703.273" stroke="white" stroke-opacity="0.2" />
    <line x1="1287.83" y1="-3.72656" x2="1287.83" y2="703.273" stroke="white" stroke-opacity="0.2" />
    <line x1="1337.17" y1="-3.72656" x2="1337.17" y2="703.273" stroke="white" stroke-opacity="0.2" />
    <line x1="1386.5" y1="-3.72656" x2="1386.5" y2="703.273" stroke="white" stroke-opacity="0.2" />
    <line x1="1435.83" y1="-3.72656" x2="1435.83" y2="703.273" stroke="white" stroke-opacity="0.2" />
    <g clip-path="url(#clip0_1272_785)">
      <line y1="37.2734" x2="1440" y2="37.2734" stroke="white" stroke-opacity="0.2" />
      <line y1="78.2734" x2="1440" y2="78.2734" stroke="white" stroke-opacity="0.2" />
      <line y1="119.273" x2="1440" y2="119.273" stroke="white" stroke-opacity="0.2" />
      <line y1="160.273" x2="1440" y2="160.273" stroke="white" stroke-opacity="0.2" />
      <line y1="201.273" x2="1440" y2="201.273" stroke="white" stroke-opacity="0.2" />
      <line y1="242.273" x2="1440" y2="242.273" stroke="white" stroke-opacity="0.2" />
      <line y1="283.273" x2="1440" y2="283.273" stroke="white" stroke-opacity="0.2" />
      <line y1="324.273" x2="1440" y2="324.273" stroke="white" stroke-opacity="0.2" />
    </g>
  </g>
  <defs>
    <linearGradient id="paint0_linear_1272_785" x1="720" y1="0.273438" x2="720" y2="328.273"
      gradientUnits="userSpaceOnUse">
      <stop stop-color="#D9D9D9" stop-opacity="0" />
      <stop offset="1" stop-color="#D9D9D9" />
    </linearGradient>
    <clipPath id="clip0_1272_785">
      <rect width="1440" height="707" fill="white" transform="translate(0 -3.72656)" />
    </clipPath>
  </defs>
</svg>