<svg width="22" height="21" viewBox="0 0 22 21" fill="none" xmlns="http://www.w3.org/2000/svg">
  <path
    d="M17.409 4.008C16.606 3.19917 15.6504 2.55788 14.5976 2.12134C13.5448 1.6848 12.4158 1.4617 11.276 1.465C9.75446 1.46701 8.26014 1.86887 6.9428 2.6303C5.62545 3.39173 4.53135 4.48601 3.77012 5.80347C3.0089 7.12093 2.60728 8.61532 2.6055 10.1369C2.60373 11.6585 3.00187 13.1538 3.76003 14.473L2.53003 18.965L7.12803 17.758C8.39924 18.4511 9.82415 18.8139 11.272 18.813H11.276C16.053 18.813 20.03 14.922 20.03 10.141C20.03 7.824 19.046 5.648 17.409 4.008ZM11.276 17.352C9.98409 17.3531 8.71569 17.0063 7.60403 16.348L7.34303 16.191L4.61603 16.906L5.34303 14.246L5.17103 13.973C4.44875 12.8241 4.06667 11.4941 4.06903 10.137C4.06903 6.164 7.30303 2.93 11.28 2.93C13.206 2.93 15.014 3.68 16.374 5.043C17.734 6.406 18.569 8.215 18.565 10.141C18.565 14.117 15.249 17.352 11.276 17.352ZM15.229 11.953C15.014 11.843 13.948 11.32 13.749 11.25C13.549 11.176 13.405 11.14 13.26 11.36C13.116 11.578 12.702 12.063 12.573 12.21C12.448 12.355 12.319 12.375 12.104 12.266C10.831 11.629 9.99403 11.129 9.15503 9.687C8.93203 9.305 9.37803 9.332 9.79203 8.504C9.86203 8.359 9.82703 8.234 9.77203 8.125C9.71703 8.015 9.28403 6.949 9.10403 6.515C8.92803 6.094 8.74903 6.152 8.61603 6.145C8.49103 6.137 8.34603 6.137 8.20203 6.137C8.09235 6.14013 7.98448 6.1657 7.88507 6.21214C7.78565 6.25858 7.69681 6.3249 7.62403 6.407C7.42403 6.625 6.86603 7.148 6.86603 8.215C6.86603 9.281 7.64303 10.313 7.74903 10.457C7.85903 10.602 9.27603 12.789 11.452 13.73C12.827 14.324 13.366 14.375 14.053 14.273C14.471 14.211 15.335 13.75 15.514 13.243C15.694 12.734 15.694 12.301 15.639 12.211C15.589 12.113 15.444 12.059 15.229 11.953Z"
    fill="#04D361" />
</svg>