<svg width="24" height="26" viewBox="0 0 24 26" fill="none" xmlns="http://www.w3.org/2000/svg">
  <mask id="mask0_2_1672" style="mask-type:luminance" maskUnits="userSpaceOnUse" x="0" y="1" width="24" height="25">
    <path d="M24 1.03516H0V25.0352H24V1.03516Z" fill="white" />
  </mask>
  <g mask="url(#mask0_2_1672)">
    <path
      d="M8.625 15.2852C9.24632 15.2852 9.75 14.7815 9.75 14.1602C9.75 13.5388 9.24632 13.0352 8.625 13.0352C8.00368 13.0352 7.5 13.5388 7.5 14.1602C7.5 14.7815 8.00368 15.2852 8.625 15.2852Z"
      fill="#8D8D99" />
    <path
      d="M15.375 15.2852C15.9963 15.2852 16.5 14.7815 16.5 14.1602C16.5 13.5388 15.9963 13.0352 15.375 13.0352C14.7537 13.0352 14.25 13.5388 14.25 14.1602C14.25 14.7815 14.7537 15.2852 15.375 15.2852Z"
      fill="#8D8D99" />
    <path
      d="M14.385 7.94382L14.8538 6.10351C14.9006 5.91835 15.0154 5.75763 15.1755 5.65338C15.3355 5.54913 15.5289 5.50901 15.7172 5.54101L19.0959 6.09788C19.2419 6.12158 19.3777 6.18746 19.4866 6.28741C19.5956 6.38737 19.6729 6.51702 19.7091 6.66038L22.4775 17.5701C22.5198 17.7416 22.5002 17.9225 22.4222 18.081C22.3441 18.2394 22.2127 18.3653 22.0509 18.4363L15.7697 21.2207C15.6744 21.264 15.5712 21.2872 15.4665 21.2889C15.3619 21.2907 15.258 21.2709 15.1613 21.2308C15.0646 21.1907 14.9772 21.1312 14.9044 21.0559C14.8317 20.9806 14.7752 20.8912 14.7384 20.7932L13.7812 18.1973"
      stroke="#8D8D99" stroke-width="1.5" stroke-linecap="round" stroke-linejoin="round" />
    <path
      d="M9.61432 7.94382L9.14557 6.10351C9.09875 5.91835 8.98389 5.75763 8.82386 5.65338C8.66384 5.54913 8.47041 5.50901 8.28213 5.54101L4.90338 6.09788C4.75744 6.12158 4.62162 6.18746 4.51267 6.28741C4.40372 6.38737 4.3264 6.51702 4.29025 6.66038L1.52182 17.5682C1.47952 17.7397 1.49912 17.9206 1.57715 18.0791C1.65519 18.2376 1.78665 18.3634 1.94838 18.4345L8.22963 21.2188C8.32494 21.2621 8.42813 21.2853 8.53279 21.2871C8.63745 21.2888 8.74135 21.269 8.83804 21.2289C8.93474 21.1888 9.02216 21.1293 9.0949 21.054C9.16764 20.9788 9.22413 20.8893 9.26088 20.7913L10.2181 18.1973"
      stroke="#8D8D99" stroke-width="1.5" stroke-linecap="round" stroke-linejoin="round" />
    <path d="M7.5 8.37692C8.96628 7.9768 10.4801 7.77779 12 7.78536C13.5199 7.77779 15.0337 7.9768 16.5 8.37692"
      stroke="#8D8D99" stroke-width="1.5" stroke-linecap="round" stroke-linejoin="round" />
    <path d="M16.5 17.6934C15.0337 18.0935 13.5199 18.2925 12 18.2849C10.4801 18.2925 8.96628 18.0935 7.5 17.6934"
      stroke="#8D8D99" stroke-width="1.5" stroke-linecap="round" stroke-linejoin="round" />
  </g>
</svg>