<svg width="25" height="18" viewBox="0 0 25 18" fill="none" xmlns="http://www.w3.org/2000/svg">
  <path
    d="M0.678223 14.1692L3.42179 12.5004C3.95103 13.4439 4.43286 14.2419 5.58786 14.2419C6.6946 14.2419 7.39277 13.8087 7.39277 12.1131V0.598041H10.7621V12.1607C10.7621 15.6681 8.71671 17.265 5.73267 17.265C4.67772 17.3224 3.63023 17.0572 2.72813 16.5044C1.82604 15.9517 1.11166 15.1372 0.679084 14.1683L0.678223 14.1692ZM12.5929 13.8053L15.3364 12.2084C15.6415 12.8305 16.115 13.3534 16.7024 13.7171C17.2899 14.0809 17.9676 14.2706 18.6575 14.2645C20.0539 14.2645 20.9434 13.5627 20.9434 12.5948C20.9434 11.4338 20.0289 11.0222 18.4886 10.3421L17.649 9.98337C15.2184 8.94363 13.6057 7.63704 13.6057 4.87915C13.6057 2.33873 15.5312 0.403959 18.5394 0.403959C19.5141 0.332943 20.4881 0.552012 21.3397 1.03384C22.1914 1.51566 22.883 2.2389 23.3284 3.11333L20.7046 4.80723C20.5324 4.37317 20.2331 4.00194 19.8463 3.74276C19.4594 3.48358 19.0034 3.34868 18.5386 3.35593C18.3359 3.33533 18.1312 3.35742 17.9376 3.42079C17.7439 3.48416 17.5655 3.58742 17.4137 3.72398C17.262 3.86054 17.1402 4.0274 17.0562 4.21392C16.9722 4.40043 16.9278 4.6025 16.9259 4.80723C16.9259 5.82357 17.5516 6.23426 18.9945 6.8633L19.8367 7.22634C22.7009 8.46016 24.3127 9.71824 24.3127 12.548C24.3127 15.5962 21.9303 17.2658 18.7299 17.2658C15.6011 17.2658 13.5798 15.766 12.5929 13.8061"
    fill="#FDE635" />
</svg>