<svg width="27" height="30" viewBox="0 0 27 30" fill="none" xmlns="http://www.w3.org/2000/svg">
  <path
    d="M12.0417 0.407142C12.4035 0.202125 12.8112 0.0944824 13.2258 0.0944824C13.6403 0.0944824 14.048 0.202125 14.4098 0.407142C18.0155 2.47169 21.6215 4.53592 25.2277 6.59985C25.5669 6.79557 25.8493 7.07818 26.0467 7.41935C26.2442 7.76053 26.3496 8.14829 26.3526 8.54379V20.9698C26.3456 21.3799 26.2296 21.7804 26.0169 22.1293C25.8042 22.4783 25.5026 22.7626 25.1439 22.9525C21.5498 25.006 17.9566 27.0604 14.3643 29.1157C13.9956 29.3223 13.5791 29.4251 13.1579 29.4132C12.7368 29.4014 12.3265 29.2754 11.9697 29.0483C10.8925 28.4151 9.81442 27.7834 8.73539 27.1533C8.49857 27.0445 8.28624 26.8878 8.11147 26.6927C8.24901 26.5081 8.49493 26.4813 8.6944 26.3992C9.13708 26.2386 9.56398 26.0365 9.96956 25.7955C10.0207 25.7649 10.0796 25.7505 10.1388 25.7542C10.1981 25.7578 10.2549 25.7792 10.302 25.8158C11.2238 26.3512 12.1364 26.9022 13.0609 27.4321C13.2586 27.5474 13.458 27.3942 13.6265 27.2991C17.1533 25.2789 20.6812 23.2611 24.2103 21.2458C24.2733 21.214 24.3253 21.1637 24.3596 21.1014C24.3939 21.0392 24.4088 20.9679 24.4025 20.8969C24.4025 16.7992 24.4025 12.7009 24.4025 8.60194C24.409 8.5222 24.3906 8.44242 24.3501 8.37374C24.3096 8.30506 24.249 8.25092 24.1766 8.21887C20.5941 6.17464 17.0133 4.12948 13.4343 2.08339C13.3722 2.04033 13.2987 2.01729 13.2235 2.01729C13.1482 2.01729 13.0747 2.04033 13.0126 2.08339C9.43005 4.12886 5.84958 6.17494 2.27125 8.22164C2.19863 8.25287 2.13761 8.30654 2.09688 8.375C2.05615 8.44346 2.0378 8.52321 2.04445 8.60286C2.04445 12.7006 2.04445 16.7989 2.04445 20.8978C2.03824 20.9687 2.0536 21.0397 2.08845 21.1014C2.12329 21.1632 2.17597 21.2126 2.23937 21.243C3.19513 21.7919 4.1512 22.3393 5.10756 22.8851C5.37278 23.0513 5.66959 23.1589 5.97862 23.2008C6.28765 23.2428 6.60195 23.2183 6.90098 23.1288C7.1601 23.0298 7.38325 22.8531 7.54063 22.6222C7.69801 22.3913 7.78213 22.1172 7.78175 21.8366C7.78631 17.7622 7.78175 13.6879 7.78175 9.61452C7.78068 9.57129 7.78864 9.52833 7.80512 9.48845C7.82159 9.44856 7.84621 9.41267 7.87735 9.38311C7.90849 9.35356 7.94546 9.33102 7.98581 9.31697C8.02616 9.30292 8.06898 9.29769 8.11147 9.30161C8.56689 9.30161 9.0305 9.29515 9.48955 9.30161C9.53396 9.3037 9.57744 9.3152 9.61719 9.33539C9.65694 9.35557 9.69207 9.38397 9.72031 9.41877C9.74855 9.45356 9.76927 9.49397 9.78114 9.53739C9.79301 9.58081 9.79576 9.62626 9.78922 9.67082C9.78922 13.771 9.79377 17.8712 9.78922 21.9704C9.81975 22.5273 9.70234 23.0824 9.44923 23.5777C9.19612 24.073 8.81656 24.4905 8.35011 24.7866C7.72671 25.081 7.04424 25.2244 6.35673 25.2053C5.66921 25.1863 4.9955 25.0053 4.38892 24.6768C3.33783 24.1451 2.33501 23.5183 1.30304 22.9488C0.944842 22.7594 0.643682 22.4757 0.431288 22.1274C0.218893 21.7791 0.103129 21.3792 0.0961914 20.9698V8.54379C0.0992869 8.14 0.209054 7.74442 0.414082 7.39818C0.61911 7.05193 0.911912 6.76767 1.26205 6.57493C4.85678 4.52023 8.45 2.4643 12.0417 0.407142Z"
    fill="#8CC84B" />
  <path
    d="M15.4848 9.34255C17.0726 9.13426 18.6863 9.38447 20.14 10.0644C20.6668 10.3828 21.1024 10.8353 21.4036 11.3769C21.7047 11.9185 21.861 12.5304 21.8569 13.1521C21.8364 13.2298 21.789 13.2975 21.7232 13.3426C21.6574 13.3877 21.5778 13.4072 21.499 13.3976C21.0436 13.3976 20.5882 13.4041 20.1327 13.3976C20.0454 13.3919 19.9632 13.3533 19.9024 13.2895C19.8416 13.2256 19.8065 13.1411 19.8039 13.0524C19.7524 12.7513 19.6369 12.4652 19.4652 12.214C19.2936 11.9628 19.0701 11.7525 18.8102 11.5976C17.9454 11.2496 17.0115 11.1142 16.085 11.2025C15.4023 11.1809 14.7271 11.3512 14.134 11.6945C13.9298 11.855 13.7803 12.0763 13.7067 12.3273C13.633 12.5783 13.6388 12.8464 13.7232 13.0939C13.869 13.4456 14.2697 13.5554 14.5976 13.6634C16.4867 14.1637 18.4878 14.1139 20.3404 14.7711C20.7383 14.883 21.1055 15.0858 21.414 15.3639C21.7225 15.642 21.9641 15.988 22.1202 16.3754C22.306 16.9251 22.3508 17.5136 22.2506 18.0857C22.1504 18.6577 21.9084 19.1946 21.5473 19.6459C20.894 20.333 20.0454 20.7964 19.1199 20.9714C17.9143 21.2195 16.6776 21.2728 15.4556 21.1292C14.2829 21.0615 13.1584 20.6329 12.2322 19.9006C11.8648 19.5594 11.5762 19.1401 11.3873 18.6727C11.1983 18.2053 11.1136 17.7014 11.1392 17.197C11.1475 17.1154 11.1873 17.0405 11.25 16.9886C11.3126 16.9367 11.393 16.912 11.4735 16.92C11.9289 16.92 12.3889 16.9154 12.847 16.92C12.8894 16.9191 12.9316 16.9266 12.9711 16.9423C13.0106 16.9579 13.0467 16.9814 13.0772 17.0113C13.1077 17.0411 13.132 17.0769 13.1488 17.1163C13.1656 17.1558 13.1745 17.1983 13.1749 17.2413C13.1978 17.5279 13.2783 17.8068 13.4114 18.0608C13.5446 18.3148 13.7275 18.5385 13.9491 18.7182C14.9298 19.2072 16.0256 19.4092 17.1133 19.3016C18.0238 19.3709 18.9324 19.1446 19.7074 18.6554C19.8855 18.4789 20.0152 18.2583 20.0836 18.0155C20.1519 17.7727 20.1566 17.516 20.0972 17.2708C19.9861 16.861 19.5626 16.6699 19.1991 16.5453C17.3347 15.9471 15.3108 16.164 13.4609 15.4884C13.0736 15.3735 12.7154 15.1749 12.4112 14.9062C12.1069 14.6375 11.8637 14.3052 11.6985 13.9321C11.4863 13.375 11.4327 12.7689 11.5438 12.1825C11.6549 11.5961 11.9263 11.0532 12.3269 10.6155C13.1999 9.83454 14.3114 9.38181 15.4748 9.33332L15.4848 9.34255Z"
    fill="#8CC84B" />
</svg>