<svg width="29" height="26" viewBox="0 0 29 26" fill="none" xmlns="http://www.w3.org/2000/svg">
  <path
    d="M15.4877 23.5725C15.2441 23.3431 14.9882 23.1129 14.7446 22.8589C14.5498 23.0498 14.3673 23.2282 14.1725 23.4067C11.7605 25.6085 9.27595 26.5257 7.80196 25.634C6.37638 24.7809 5.92565 22.2589 6.49858 19.0877C6.55942 18.7437 6.63256 18.3998 6.718 18.0561C6.46208 17.9796 6.21847 17.9032 5.97485 17.8142C2.94157 16.7203 0.943848 14.9359 0.943848 13.1526C0.943848 11.4337 2.80865 9.76496 5.71854 8.69535C6.04746 8.58087 6.38868 8.46597 6.7418 8.36402C6.6565 8.03269 6.59539 7.71474 6.53469 7.40889C5.92565 4.18586 6.35218 1.61379 7.78966 0.74807C9.28785 -0.169036 11.7728 0.811578 14.2697 3.11709C14.4157 3.25706 14.5621 3.40956 14.7204 3.56248C14.9521 3.33352 15.1711 3.10288 15.4028 2.90066C17.7668 0.74807 20.1168 -0.156502 21.5535 0.709631C23.0517 1.60083 23.4905 4.35299 22.8204 7.75234C22.7839 7.96919 22.7351 8.17266 22.6867 8.38951C22.991 8.47892 23.2953 8.58045 23.5758 8.68198C26.548 9.75201 28.4727 11.4203 28.4485 13.1781C28.4485 14.9747 26.3901 16.7442 23.235 17.8393C23.0644 17.8902 22.8942 17.9537 22.7236 18.0064C22.7966 18.2613 22.8454 18.5157 22.8942 18.7706C23.529 22.0713 23.0406 24.7696 21.5666 25.6612C21.1745 25.8903 20.7317 26.0057 20.2835 25.9954C18.9305 25.9959 17.2157 25.123 15.4877 23.5725ZM17.8755 18.8984C17.1726 19.9692 16.4039 20.9903 15.5742 21.9552C15.8055 22.1975 16.0369 22.4148 16.2686 22.6174C18.2782 24.4257 20.1299 25.1009 20.9945 24.5786C21.3968 24.3367 21.7376 23.7254 21.8963 22.7958C22.0723 21.5321 22.0226 20.2449 21.7499 19.0004C21.7134 18.771 21.6646 18.5408 21.6035 18.2997C20.3739 18.5814 19.1286 18.7808 17.8751 18.8967L17.8755 18.8984ZM7.66785 19.3062C7.16872 22.0187 7.53375 24.0438 8.3987 24.5661C8.80102 24.808 9.46997 24.808 10.3234 24.4896C11.4596 24.0245 12.5043 23.3423 13.4051 22.4774C13.588 22.3245 13.7582 22.1461 13.9411 21.9681C13.0925 21.0022 12.3029 19.9805 11.5772 18.9093C10.3289 18.807 9.08815 18.6201 7.86267 18.3498C7.78966 18.6803 7.72856 18.9983 7.66746 19.3041L7.66785 19.3062ZM14.7573 21.089C15.2933 20.4648 15.8286 19.7771 16.3654 19.0129C15.8293 19.0384 15.2691 19.0509 14.7089 19.0509C14.1605 19.0509 13.6246 19.0382 13.1012 19.0129C13.6194 19.7334 14.172 20.4258 14.7569 21.0874L14.7573 21.089ZM12.1989 8.65649C11.7363 9.35675 11.2864 10.0955 10.859 10.8709C10.4325 11.6351 10.0429 12.4122 9.68938 13.1885C10.0548 13.9527 10.4432 14.7299 10.871 15.5195C11.2975 16.2837 11.7482 17.035 12.2108 17.7482C13.0147 17.7991 13.8554 17.8246 14.7081 17.8246C15.5726 17.8246 16.4142 17.7991 17.2291 17.7356C17.668 17.035 18.1183 16.2837 18.5448 15.5066C18.9713 14.7295 19.3729 13.9402 19.7264 13.176C19.3733 12.4239 18.9725 11.6476 18.5448 10.8709C18.1171 10.0942 17.6676 9.35508 17.2172 8.65649C16.4011 8.59257 15.5603 8.55413 14.7081 8.55413C13.8558 8.55413 13.0151 8.59299 12.1989 8.65649ZM8.17929 17.177C9.01623 17.3642 9.862 17.5047 10.713 17.5978C10.4206 17.1135 10.1286 16.6297 9.84809 16.1204C9.58027 15.624 9.31206 15.1268 9.06844 14.6304C8.72981 15.4623 8.43302 16.3123 8.17929 17.177ZM19.5665 16.107C19.2864 16.6163 19.0063 17.1006 18.7261 17.5719C19.5899 17.4655 20.4478 17.3121 21.2964 17.1123C21.031 16.2506 20.7218 15.4046 20.3703 14.5778C20.1159 15.087 19.8485 15.5968 19.5681 16.1074L19.5665 16.107ZM6.09626 9.86816C3.61171 10.7848 2.11352 12.1244 2.11352 13.1664C2.11352 13.6506 2.45434 14.2619 3.13638 14.8728C4.09947 15.6631 5.18835 16.2668 6.35218 16.6556C6.57159 16.732 6.8029 16.796 7.03422 16.8724C7.40986 15.6162 7.86165 14.3867 8.3868 13.1915C7.86062 12.0158 7.41278 10.803 7.04652 9.5619C6.71773 9.6502 6.40098 9.75229 6.09626 9.86816ZM21.0421 13.1664C21.5822 14.3463 22.0462 15.5633 22.4308 16.8089C22.5895 16.7584 22.7482 16.707 22.8938 16.656C25.61 15.7134 27.2911 14.2744 27.3034 13.1534C27.3034 12.1089 25.7442 10.7594 23.1981 9.84226C22.9426 9.75326 22.6625 9.66385 22.3823 9.57485C22.0112 10.8014 21.5635 12.0008 21.0421 13.1651V13.1664ZM19.5562 10.2358C19.8363 10.7452 20.1041 11.2424 20.3497 11.74C20.6873 10.9307 20.9801 10.1015 21.2266 9.25648C20.3981 9.05888 19.5606 8.90548 18.7174 8.79688C19.0078 9.26818 19.288 9.73947 19.5562 10.2358ZM8.19119 9.24144C8.43481 10.0562 8.72722 10.8843 9.06844 11.7375C9.31206 11.2411 9.58027 10.7439 9.84809 10.2475C10.1159 9.75117 10.396 9.26692 10.6884 8.79563C9.81159 8.91178 8.98353 9.0647 8.19119 9.24144ZM16.1702 3.82988C15.9631 4.02082 15.7559 4.22472 15.5488 4.42861C16.3908 5.38047 17.1682 6.39338 17.8755 7.45987C19.1131 7.57687 20.3419 7.78123 21.5535 8.07155C21.6023 7.88061 21.6388 7.68925 21.6753 7.49831C22.2474 4.56942 21.8947 2.32742 20.9687 1.76754C20.763 1.65555 20.5335 1.60089 20.3021 1.60877C19.307 1.60835 17.7803 2.36794 16.1702 3.82988ZM8.3741 1.80431C7.50915 2.32616 7.16832 4.41524 7.67976 7.16614C7.74046 7.45861 7.80196 7.75109 7.87457 8.05734C9.0879 7.7779 10.3165 7.57807 11.5534 7.45903C12.2632 6.39111 13.0447 5.37809 13.8919 4.42778C13.7578 4.28739 13.6118 4.16037 13.4777 4.03252C11.7807 2.45986 10.1528 1.62966 9.08828 1.62966C8.83982 1.62116 8.59358 1.68137 8.3741 1.80431ZM16.3404 7.35709C15.837 6.64246 15.2962 5.95799 14.7204 5.30686C14.1725 5.93066 13.6241 6.6188 13.0881 7.35709C13.6241 7.3316 14.1594 7.31906 14.7081 7.31906C15.2568 7.31906 15.8044 7.33243 16.3404 7.3575V7.35709ZM12.2707 13.2165C12.2674 12.7034 12.4088 12.2009 12.677 11.7725C12.9452 11.3441 13.3282 11.0093 13.7774 10.8105C14.2266 10.6117 14.7218 10.5578 15.2001 10.6557C15.6784 10.7536 16.1183 10.9989 16.464 11.3605C16.8098 11.722 17.0458 12.1836 17.1421 12.6866C17.2384 13.1895 17.1907 13.7113 17.005 14.1857C16.8193 14.6601 16.504 15.0657 16.0991 15.3512C15.6942 15.6366 15.218 15.789 14.7307 15.789C14.4086 15.7911 14.0892 15.7261 13.791 15.5977C13.4928 15.4694 13.2216 15.2803 12.993 15.0412C12.7644 14.8022 12.5829 14.5179 12.459 14.2048C12.335 13.8916 12.2711 13.5558 12.2707 13.2165Z"
    fill="#81D8F7" />
</svg>