<svg width="29" height="26" viewBox="0 0 29 26" fill="none" xmlns="http://www.w3.org/2000/svg">
  <path
    d="M15.1098 23.5706C14.8662 23.3412 14.6103 23.111 14.3667 22.8569C14.1718 23.0479 13.9893 23.2263 13.7945 23.4047C11.3826 25.6066 8.89802 26.5237 7.42403 25.6321C5.99845 24.7789 5.54772 22.257 6.12065 19.0857C6.18149 18.7417 6.25463 18.3979 6.34007 18.0542C6.08415 17.9777 5.84054 17.9012 5.59692 17.8122C2.56364 16.7184 0.565918 14.9339 0.565918 13.1507C0.565918 11.4318 2.43072 9.76301 5.34061 8.6934C5.66953 8.57892 6.01075 8.46402 6.36387 8.36207C6.27857 8.03074 6.21746 7.71278 6.15676 7.40694C5.54772 4.18391 5.97425 1.61183 7.41173 0.746117C8.90992 -0.170989 11.3949 0.809625 13.8917 3.11513C14.0377 3.2551 14.1841 3.40761 14.3425 3.56053C14.5742 3.33156 14.7932 3.10093 15.0249 2.89871C17.3888 0.746117 19.7389 -0.158455 21.1756 0.707678C22.6738 1.59888 23.1126 4.35104 22.4424 7.75039C22.4059 7.96723 22.3571 8.17071 22.3087 8.38756C22.6131 8.47697 22.9174 8.5785 23.1979 8.68003C26.1701 9.75006 28.0948 11.4184 28.0706 13.1761C28.0706 14.9728 26.0122 16.7422 22.8571 17.8373C22.6865 17.8883 22.5162 17.9518 22.3456 18.0044C22.4186 18.2593 22.4674 18.5138 22.5162 18.7686C23.1511 22.0694 22.6627 24.7676 21.1887 25.6592C20.7966 25.8884 20.3538 26.0037 19.9055 25.9935C18.5525 25.9939 16.8377 25.1211 15.1098 23.5706ZM17.4975 18.8965C16.7947 19.9672 16.026 20.9883 15.1963 21.9532C15.4276 22.1955 15.6589 22.4128 15.8906 22.6155C17.9003 24.4238 19.752 25.099 20.6165 24.5767C21.0189 24.3348 21.3597 23.7235 21.5184 22.7939C21.6944 21.5301 21.6447 20.2429 21.372 18.9984C21.3355 18.769 21.2867 18.5388 21.2256 18.2977C19.996 18.5795 18.7507 18.7789 17.4971 18.8948L17.4975 18.8965ZM7.28993 19.3043C6.79079 22.0167 7.15582 24.0419 8.02077 24.5641C8.42309 24.8061 9.09204 24.8061 9.94549 24.4877C11.0816 24.0226 12.1264 23.3404 13.0272 22.4755C13.2101 22.3226 13.3803 22.1442 13.5632 21.9662C12.7146 21.0002 11.925 19.9786 11.1993 18.9073C9.95097 18.8051 8.71022 18.6182 7.48474 18.3479C7.41173 18.6784 7.35063 18.9963 7.28953 19.3022L7.28993 19.3043ZM14.3794 21.0871C14.9154 20.4629 15.4506 19.7751 15.9875 19.011C15.4514 19.0364 14.8912 19.049 14.3309 19.049C13.7826 19.049 13.2467 19.0363 12.7233 19.011C13.2415 19.7315 13.7941 20.4239 14.379 21.0854L14.3794 21.0871ZM11.821 8.65454C11.3584 9.3548 10.9084 10.0935 10.4811 10.869C10.0546 11.6332 9.66497 12.4103 9.31145 13.1866C9.67687 13.9508 10.0653 14.7279 10.493 15.5176C10.9195 16.2818 11.3703 17.033 11.8329 17.7462C12.6368 17.7972 13.4775 17.8227 14.3302 17.8227C15.1947 17.8227 16.0363 17.7972 16.8512 17.7337C17.29 17.033 17.7404 16.2818 18.1669 15.5046C18.5934 14.7275 18.9949 13.9382 19.3485 13.1741C18.9953 12.422 18.5946 11.6457 18.1669 10.869C17.7392 10.0922 17.2896 9.35313 16.8393 8.65454C16.0232 8.59062 15.1824 8.55218 14.3302 8.55218C13.4779 8.55218 12.6372 8.59103 11.821 8.65454ZM7.80136 17.1751C8.6383 17.3623 9.48407 17.5027 10.3351 17.5958C10.0427 17.1116 9.75067 16.6277 9.47016 16.1184C9.20234 15.622 8.93413 15.1248 8.69051 14.6285C8.35188 15.4603 8.05509 16.3104 7.80136 17.1751ZM19.1886 16.105C18.9084 16.6144 18.6283 17.0986 18.3482 17.5699C19.2119 17.4635 20.0698 17.3101 20.9185 17.1103C20.653 16.2487 20.3439 15.4026 19.9924 14.5758C19.738 15.085 19.4705 15.5949 19.1902 16.1055L19.1886 16.105ZM5.71833 9.86621C3.23378 10.7829 1.73559 12.1224 1.73559 13.1644C1.73559 13.6487 2.07641 14.26 2.75845 14.8708C3.72154 15.6611 4.81042 16.2648 5.97425 16.6536C6.19366 16.7301 6.42497 16.794 6.65629 16.8705C7.03193 15.6143 7.48372 14.3848 8.00887 13.1895C7.48269 12.0139 7.03485 10.8011 6.66859 9.55995C6.3398 9.64825 6.02305 9.75033 5.71833 9.86621ZM20.6641 13.1644C21.2043 14.3444 21.6682 15.5613 22.0528 16.807C22.2115 16.7564 22.3702 16.705 22.5159 16.654C25.2321 15.7115 26.9132 14.2725 26.9255 13.1515C26.9255 12.107 25.3662 10.7574 22.8202 9.8403C22.5647 9.75131 22.2845 9.6619 22.0044 9.5729C21.6333 10.7995 21.1855 11.9988 20.6641 13.1632V13.1644ZM19.1782 10.2339C19.4584 10.7432 19.7262 11.2404 19.9718 11.738C20.3094 10.9287 20.6022 10.0995 20.8486 9.25453C20.0201 9.05693 19.1827 8.90353 18.3395 8.79493C18.6299 9.26622 18.91 9.73752 19.1782 10.2339ZM7.81326 9.23948C8.05688 10.0542 8.34929 10.8823 8.69051 11.7355C8.93413 11.2392 9.20234 10.742 9.47016 10.2456C9.73798 9.74922 10.0181 9.26497 10.3105 8.79367C9.43366 8.90983 8.6056 9.06275 7.81326 9.23948ZM15.7922 3.82793C15.5851 4.01887 15.378 4.22277 15.1709 4.42666C16.0128 5.37852 16.7903 6.39142 17.4975 7.45792C18.7352 7.57492 19.9639 7.77927 21.1756 8.0696C21.2244 7.87866 21.2609 7.6873 21.2974 7.49636C21.8695 4.56746 21.5168 2.32546 20.5907 1.76559C20.3851 1.65359 20.1556 1.59893 19.9242 1.60682C18.9291 1.6064 17.4023 2.36599 15.7922 3.82793ZM7.99617 1.80236C7.13122 2.32421 6.7904 4.41329 7.30183 7.16419C7.36253 7.45666 7.42403 7.74913 7.49664 8.05539C8.70997 7.77594 9.93861 7.57612 11.1755 7.45708C11.8852 6.38915 12.6668 5.37614 13.514 4.42582C13.3799 4.28544 13.2339 4.15842 13.0998 4.03057C11.4028 2.45791 9.77488 1.62771 8.71035 1.62771C8.46189 1.61921 8.21565 1.67942 7.99617 1.80236ZM15.9625 7.35513C15.4591 6.64051 14.9183 5.95604 14.3425 5.30491C13.7945 5.92871 13.2462 6.61685 12.7102 7.35513C13.2462 7.32965 13.7814 7.31711 14.3302 7.31711C14.8789 7.31711 15.4264 7.33048 15.9625 7.35555V7.35513ZM11.8928 13.2146C11.8894 12.7015 12.0308 12.1989 12.2991 11.7705C12.5673 11.3422 12.9503 11.0074 13.3995 10.8085C13.8487 10.6097 14.3438 10.5558 14.8221 10.6538C15.3004 10.7517 15.7404 10.997 16.0861 11.3585C16.4318 11.7201 16.6678 12.1816 16.7641 12.6846C16.8604 13.1876 16.8127 13.7094 16.6271 14.1838C16.4414 14.6581 16.1261 15.0638 15.7212 15.3492C15.3163 15.6347 14.84 15.7871 14.3528 15.7871C14.0306 15.7891 13.7113 15.7241 13.413 15.5958C13.1148 15.4674 12.8436 15.2783 12.615 15.0393C12.3865 14.8002 12.205 14.5159 12.081 14.2028C11.9571 13.8897 11.8931 13.5538 11.8928 13.2146Z"
    fill="#4763FF" />
</svg>