<svg width="26" height="18" viewBox="0 0 26 18" fill="none" xmlns="http://www.w3.org/2000/svg">
  <path d="M0.0361328 3.87625V0.821045H12.8506V3.87625H7.98997V16.97H4.89681V3.87625H0.0361328Z" fill="#0288D1" />
  <path
    d="M21.6902 5.18556L24.3414 3.43973L24.0591 3.02139C23.1183 1.62757 21.6055 0.725327 19.9321 0.560035L19.6564 0.532803C18.6794 0.436302 17.6964 0.64345 16.8414 1.12601L16.6707 1.22233C15.6433 1.80222 14.8982 2.77752 14.6087 3.92122L14.5029 4.33917C14.2947 5.16171 14.416 6.03303 14.8409 6.76746C15.5613 8.01276 16.634 9.01715 17.924 9.65421L20.4289 10.8913C20.9435 11.1455 21.3048 11.6312 21.4003 12.1971C21.5519 13.0956 20.8594 13.9147 19.9482 13.9147H19.8946C19.3364 13.9147 18.7904 13.7511 18.3242 13.4441L16.3876 12.1689L13.7363 13.9147L16.0732 15.9665C17.1303 16.8946 18.489 17.4064 19.8957 17.4064H20.0302C20.8315 17.4064 21.6231 17.2213 22.3415 16.8665C23.3519 16.3675 24.1747 15.5536 24.6836 14.5482C25.2971 13.3362 25.2569 11.8963 24.5766 10.7205L24.4089 10.4306C24.0733 9.85054 23.616 9.35008 23.0684 8.96374L20.8064 7.36786L18.6885 5.79893C18.0155 5.30034 18.068 4.27698 18.7886 3.84994C19.2056 3.60281 19.7317 3.63804 20.1121 3.93857L21.6902 5.18556Z"
    fill="#0288D1" />
</svg>