<svg fill="none" viewBox="0 0 18 18" xmlns="http://www.w3.org/2000/svg">
  <path
    d="m15.129 2.793c-1.6367-1.6406-3.8164-2.543-6.1328-2.543-4.7812 0-8.6719 3.8906-8.6719 8.6719 0 1.5273 0.39844 3.0195 1.1563 4.3359l-1.2305 4.4922 4.5977-1.207c1.2656 0.6914 2.6914 1.0547 4.1445 1.0547h0.0039c4.7773 0 8.7539-3.8907 8.7539-8.6719 0-2.3164-0.9844-4.4922-2.6211-6.1328zm-6.1328 13.344c-1.2969 0-2.5664-0.3476-3.6719-1.0039l-0.26172-0.1562-2.7266 0.7148 0.72656-2.6602-0.17188-0.2734c-0.72265-1.1484-1.1016-2.4726-1.1016-3.8359 0-3.9727 3.2344-7.207 7.2109-7.207 1.9258 0 3.7344 0.75 5.0938 2.1133 1.3593 1.3633 2.1953 3.1719 2.1914 5.0977 0 3.9765-3.3164 7.2109-7.2891 7.2109zm3.9531-5.3984c-0.2148-0.1094-1.2812-0.6328-1.4804-0.7031-0.1993-0.07426-0.3438-0.10942-0.4883 0.1093-0.1446 0.2188-0.5586 0.7032-0.6875 0.8516-0.125 0.1445-0.2539 0.1641-0.46878 0.0547-1.2734-0.6367-2.1094-1.1367-2.9492-2.5781-0.22266-0.38282 0.22266-0.35547 0.63672-1.1836 0.07031-0.14453 0.03515-0.26953-0.01953-0.3789-0.05469-0.10938-0.48828-1.1758-0.66797-1.6094-0.17578-0.42187-0.35547-0.36328-0.48828-0.37109-0.125-0.00781-0.26953-0.00781-0.41406-0.00781-0.14454 0-0.37891 0.05468-0.57813 0.26953-0.19922 0.21875-0.75781 0.74218-0.75781 1.8086s0.77734 2.0977 0.88281 2.2422c0.10937 0.14453 1.5273 2.332 3.7031 3.2734 1.375 0.5938 1.914 0.6446 2.6015 0.543 0.418-0.0625 1.2813-0.5234 1.461-1.0313 0.1797-0.5078 0.1797-0.9414 0.125-1.0312-0.0508-0.0977-0.1953-0.1523-0.4102-0.2578z"
    fill="#fff" />
</svg>