<svg width="24" height="25" viewBox="0 0 24 25" fill="none" xmlns="http://www.w3.org/2000/svg">
  <mask id="mask0_2_1206" style="mask-type:luminance" maskUnits="userSpaceOnUse" x="0" y="0" width="24" height="25">
    <path d="M24 0.916992H0V24.917H24V0.916992Z" fill="white" />
  </mask>
  <g mask="url(#mask0_2_1206)">
    <path d="M15 12.917L10.5 9.91699V15.917L15 12.917Z" stroke="white" stroke-width="1.5" stroke-linecap="round"
      stroke-linejoin="round" />
    <path
      d="M2.25 12.9171C2.25 15.7212 2.53781 17.3655 2.75719 18.2112C2.8152 18.4412 2.92694 18.6541 3.08322 18.8326C3.23951 19.011 3.43589 19.1499 3.65625 19.2377C6.79875 20.4499 12 20.4171 12 20.4171C12 20.4171 17.2012 20.4499 20.3438 19.2377C20.5648 19.1504 20.7619 19.0117 20.9189 18.8333C21.0759 18.6548 21.1882 18.4416 21.2466 18.2112C21.466 17.3674 21.7537 15.7212 21.7537 12.9171C21.7537 10.113 21.466 8.46866 21.2466 7.62302C21.1889 7.39176 21.0768 7.17758 20.9198 6.99824C20.7629 6.8189 20.5654 6.67956 20.3438 6.59177C17.2012 5.38427 12 5.41708 12 5.41708C12 5.41708 6.79875 5.38427 3.65625 6.59645C3.43466 6.68425 3.23717 6.82359 3.08018 7.00293C2.92317 7.18227 2.81117 7.39645 2.75344 7.6277C2.53781 8.46769 2.25 10.113 2.25 12.9171Z"
      stroke="#7C7C8A" stroke-width="1.5" stroke-linecap="round" stroke-linejoin="round" />
  </g>
</svg>