<svg width="32" height="33" viewBox="0 0 32 33" fill="none" xmlns="http://www.w3.org/2000/svg">
  <path fill-rule="evenodd" clip-rule="evenodd"
    d="M28.0612 7.81417L16.8536 1.27841C16.2801 0.944026 15.576 0.940225 14.9992 1.26827L3.62812 7.73494C3.03118 8.07443 2.65961 8.71919 2.6671 9.42074L2.808 22.6006C2.81525 23.2798 3.17687 23.8998 3.75136 24.2348L14.9591 30.7706C15.5456 31.1127 16.2681 31.1082 16.8509 30.7588L27.9242 24.1186C28.4868 23.7812 28.8396 23.1687 28.8479 22.4987L29.0045 9.49247C29.0129 8.79733 28.6491 8.15694 28.0612 7.81417ZM29.8478 22.5108C29.8354 23.5245 29.3015 24.4587 28.4385 24.9762L17.3651 31.6165C16.4697 32.1534 15.3571 32.1603 14.4553 31.6345L3.24765 25.0986C2.36631 24.5847 1.81903 23.6391 1.80806 22.6113L1.66716 9.43143C1.65582 8.36993 2.21793 7.38653 3.13376 6.86568L14.5048 0.399021C15.3916 -0.105303 16.476 -0.0993694 17.3573 0.414553L28.565 6.95032C29.4668 7.4762 30.0171 8.45285 30.0044 9.50452L29.8478 22.5108Z"
    fill="url(#paint0_linear_611_944)" />
  <path
    d="M25.6327 9.43756L17.1383 4.69901C16.4703 4.3264 15.6484 4.3221 14.9763 4.68775L6.35802 9.3762C5.6639 9.75382 5.23787 10.4668 5.24647 11.2364L5.35325 20.7921C5.36157 21.5372 5.77636 22.2229 6.44434 22.5954L14.9388 27.3341C15.6223 27.7153 16.4656 27.7102 17.1442 27.321L25.5369 22.5067C26.191 22.1314 26.5956 21.4542 26.605 20.7192L26.7237 11.2894C26.7333 10.5269 26.3162 9.81883 25.6327 9.43756Z"
    fill="url(#paint1_linear_611_944)" />
  <path
    d="M16.4389 21.7943C16.2935 21.6657 16.1418 21.5367 15.9969 21.3938C15.881 21.5009 15.7724 21.6012 15.6576 21.7011C14.2233 22.9375 12.745 23.4522 11.8686 22.9518C11.0208 22.4729 10.7538 21.0583 11.0931 19.2785C11.1293 19.0856 11.1727 18.8926 11.2235 18.6997C11.0713 18.6549 10.9263 18.6137 10.7814 18.5653C8.97684 17.9494 7.78882 16.9491 7.78882 15.9483C7.78882 14.9839 8.89735 14.0476 10.6287 13.4473C10.8226 13.3828 11.0272 13.3188 11.2375 13.2614C11.189 13.0755 11.1508 12.8968 11.1144 12.7239C10.7518 10.9172 11.0053 9.47387 11.8604 8.98783C12.7513 8.47312 14.2296 9.02367 15.7143 10.3169C15.801 10.3953 15.8883 10.4813 15.9823 10.5669C16.12 10.4383 16.2504 10.3098 16.388 10.1955C17.7937 8.98604 19.1916 8.48029 20.0466 8.96633C20.9375 9.46626 21.1987 11.0099 20.8003 12.9183C20.7785 13.0401 20.7518 13.1544 20.7208 13.2767C20.9021 13.3268 21.0829 13.3837 21.2496 13.4411C23.0174 14.0413 24.1622 14.9776 24.1477 15.9636C24.1477 16.971 22.9233 17.9646 21.0456 18.5792C20.9443 18.6079 20.843 18.6437 20.7412 18.672C20.7848 18.8149 20.8134 18.9578 20.8425 19.1007C21.2191 20.9516 20.9292 22.4667 20.0529 22.967C19.8227 23.0951 19.5581 23.1603 19.2895 23.1552C18.4863 23.1538 17.4665 22.6651 16.4389 21.7943ZM17.8591 19.1714C17.4429 19.7697 16.9856 20.3427 16.4898 20.8867C16.6275 21.0211 16.7651 21.1443 16.9028 21.2585C18.0981 22.2731 19.1993 22.6521 19.7141 22.3592C19.8713 22.234 19.9997 22.081 20.0918 21.9092C20.1839 21.7374 20.2377 21.5502 20.2502 21.3588C20.3548 20.6497 20.3252 19.9291 20.1629 19.2292C20.1411 19.1007 20.1145 18.9721 20.0762 18.8364C19.3462 18.9943 18.6055 19.1062 17.8591 19.1714ZM11.7877 19.4003C11.491 20.9234 11.7082 22.0586 12.2239 22.352C12.4066 22.4226 12.6039 22.4551 12.8017 22.4474C12.9996 22.4396 13.1932 22.3918 13.3688 22.3072C14.0519 22.0418 14.6741 21.6586 15.2019 21.1779C15.3105 21.0919 15.4118 20.992 15.5209 20.8921C15.0142 20.3479 14.5447 19.775 14.1152 19.1768C13.3717 19.1194 12.6333 19.0146 11.9054 18.8632C11.8604 19.05 11.824 19.2283 11.7877 19.4003ZM16.0046 20.4007C16.3236 20.0503 16.642 19.6646 16.9609 19.2359C16.642 19.2503 16.309 19.2574 15.9755 19.2574C15.6421 19.2574 15.3309 19.2503 15.0192 19.2359C15.3449 19.657 15.6711 20.0503 16.0041 20.4007H16.0046ZM14.4826 13.4258C14.2073 13.8187 13.9393 14.2322 13.6858 14.6694C13.4323 15.0981 13.2011 15.534 12.9902 15.9685C13.2079 16.3972 13.4395 16.8331 13.693 17.2765C13.9465 17.7052 14.2146 18.1277 14.4899 18.5268C14.9678 18.5555 15.468 18.5716 15.975 18.5716C16.4821 18.5716 16.9891 18.5573 17.4747 18.5219C17.7355 18.129 18.0035 17.707 18.2575 17.2712C18.5115 16.8353 18.75 16.3923 18.9604 15.9636C18.75 15.542 18.511 15.1061 18.2575 14.6698C18.004 14.2335 17.736 13.8187 17.4679 13.4263C16.9832 13.3904 16.4825 13.3689 15.9755 13.3689C15.4685 13.3689 14.9683 13.39 14.4826 13.4258ZM12.0921 18.2065C12.5891 18.3114 13.0923 18.3903 13.599 18.4426C13.425 18.1711 13.2515 17.8992 13.0847 17.6134C12.9253 17.3348 12.7658 17.0561 12.6209 16.7775C12.411 17.2631 12.237 17.7429 12.0921 18.2065ZM18.8658 17.6062C18.6991 17.892 18.5324 18.1635 18.3661 18.4283C18.8804 18.3687 19.3908 18.2829 19.8949 18.1711C19.7375 17.6887 19.5537 17.214 19.3442 16.7488C19.1921 17.0346 19.0326 17.3204 18.8658 17.6062ZM10.8531 14.1045C9.37527 14.6192 8.48437 15.3687 8.48437 15.9555C8.51255 16.1443 8.58079 16.3261 8.68518 16.4904C8.78957 16.6548 8.92805 16.7985 9.09268 16.9132C9.65813 17.3527 10.3066 17.6918 11.0053 17.9135C11.1357 17.9583 11.2734 17.9924 11.411 18.0354C11.6336 17.3325 11.9021 16.6427 12.2152 15.9698C11.9015 15.3085 11.6353 14.6288 11.4183 13.9352C11.2228 13.9835 11.0344 14.04 10.8531 14.1045ZM19.7427 15.9555C20.0642 16.6198 20.3394 17.3024 20.5667 17.9991C20.6612 17.9704 20.7552 17.9418 20.842 17.9131C22.4575 17.3845 23.4594 16.5768 23.4647 15.9479C23.4647 15.3619 22.5375 14.604 21.0233 14.0897C20.8711 14.04 20.7048 13.9898 20.5386 13.9396C20.3191 14.6263 20.0533 15.2996 19.7427 15.9555ZM18.8591 14.3119C19.0258 14.5977 19.1853 14.8768 19.3297 15.1554C19.531 14.7 19.7051 14.2348 19.8513 13.7618C19.3592 13.6513 18.861 13.5655 18.3588 13.5047C18.5328 13.7685 18.6991 14.0333 18.8586 14.3119H18.8591ZM12.0993 13.756C12.2447 14.2133 12.4183 14.6779 12.6209 15.1563C12.7663 14.8777 12.9253 14.599 13.0847 14.3204C13.2442 14.0418 13.4105 13.7703 13.5845 13.5056C13.0629 13.5687 12.5705 13.6543 12.0993 13.756ZM16.8446 10.7188C16.7215 10.8258 16.5984 10.9401 16.4748 11.0547C16.9779 11.5921 17.4403 12.1608 17.8586 12.757C18.5959 12.8228 19.3271 12.9375 20.0466 13.1002C20.0757 12.9931 20.0951 12.8856 20.1193 12.7785C20.4586 11.1349 20.2497 9.87704 19.6991 9.56302C19.5782 9.50032 19.4411 9.46934 19.3026 9.47343C18.7107 9.47074 17.8024 9.89675 16.8446 10.7174V10.7188ZM12.2079 9.58094C11.6936 9.87391 11.4905 11.0458 11.7949 12.5895C11.8313 12.7539 11.8676 12.9178 11.9108 13.0894C12.6312 12.9327 13.3622 12.8205 14.0987 12.7534C14.5186 12.1565 14.9835 11.5877 15.4899 11.0512C15.4104 10.9723 15.3231 10.9011 15.2436 10.8294C14.2354 9.94827 13.266 9.48328 12.633 9.48328C12.4842 9.47859 12.337 9.51241 12.2079 9.58094ZM16.9459 12.6965C16.6471 12.297 16.3248 11.913 15.9804 11.5462C15.6547 11.896 15.3284 12.2822 15.011 12.6965C15.3299 12.6822 15.6484 12.675 15.9746 12.675C16.3008 12.675 16.6275 12.6809 16.9464 12.6965H16.9459ZM14.5263 15.9842C14.5195 15.8005 14.552 15.6174 14.6219 15.4453C14.6918 15.2733 14.7978 15.1157 14.9337 14.9816C15.0696 14.8474 15.2329 14.7394 15.4141 14.6637C15.5953 14.588 15.7908 14.5461 15.9896 14.5404C16.3906 14.553 16.7699 14.7121 17.0442 14.9827C17.3185 15.2534 17.4655 15.6135 17.4529 15.9842C17.4659 16.3551 17.319 16.7157 17.0445 16.9866C16.7701 17.2576 16.3905 17.4168 15.9891 17.4293C15.7902 17.4236 15.5946 17.3816 15.4133 17.3058C15.232 17.23 15.0688 17.1219 14.9328 16.9876C14.7969 16.8533 14.691 16.6955 14.6213 16.5233C14.5515 16.3512 14.5192 16.1679 14.5263 15.9842Z"
    fill="#2AC7E3" />
  <defs>
    <linearGradient id="paint0_linear_611_944" x1="8.9482" y1="3.42481" x2="23.6612" y2="28.0163"
      gradientUnits="userSpaceOnUse">
      <stop stop-color="#4DBCD6" />
      <stop offset="1" stop-color="#4DBCD6" stop-opacity="0.24" />
    </linearGradient>
    <linearGradient id="paint1_linear_611_944" x1="5.25127" y1="4.47948" x2="28.3612" y2="25.8808"
      gradientUnits="userSpaceOnUse">
      <stop stop-color="#226B7A" />
      <stop offset="1" stop-color="#121214" />
    </linearGradient>
  </defs>
</svg>