<svg width="56" height="33" viewBox="0 0 56 33" fill="none" xmlns="http://www.w3.org/2000/svg">
  <g clip-path="url(#clip0_611_917)">
    <path
      d="M28.419 7.02718L17.2727 0.527167C16.3962 0.0160565 15.3177 0.0101557 14.4358 0.511721L3.12696 6.94301C2.21614 7.46101 1.6571 8.43903 1.66838 9.49472L1.80851 22.6025C1.81942 23.6247 2.36371 24.5651 3.24022 25.0762L14.3866 31.5763C15.2835 32.0993 16.39 32.0924 17.2805 31.5584L28.2933 24.9544C29.1516 24.4397 29.6825 23.5107 29.6949 22.5025L29.8506 9.56741C29.8632 8.5215 29.316 7.55018 28.419 7.02718Z"
      fill="#202024" />
    <path
      d="M25.5029 9.40815L17.0549 4.69551C16.3906 4.32494 15.5732 4.32067 14.9048 4.68431L6.33363 9.34712C5.64331 9.72268 5.2196 10.4318 5.22815 11.1972L5.33436 20.7005C5.34263 21.4416 5.75515 22.1235 6.41948 22.494L14.8675 27.2068C15.5472 27.5859 16.3859 27.5809 17.0608 27.1937L25.4076 22.4058C26.0581 22.0326 26.4605 21.359 26.4698 20.6281L26.5879 11.2499C26.5975 10.4916 26.1827 9.78733 25.5029 9.40815Z"
      fill="url(#paint0_linear_611_917)" />
    <path
      d="M15.7559 20.59L18.8391 19.7401L19.2557 15.1524H13.7711L13.6347 13.6257H19.3921L19.5436 12.129H11.9681L12.3924 16.6491H17.6119L17.4376 18.5894L15.7559 19.0407L14.0741 18.5894L13.9681 17.341H12.453L12.6727 19.7401L15.7559 20.59ZM9.74854 9.63965H21.7632L20.6799 21.8234L15.7559 23.1771L10.8318 21.8234L9.74854 9.63965Z"
      fill="#E44D26" />
    <mask id="path-4-inside-1_611_917" fill="white">
      <path fill-rule="evenodd" clip-rule="evenodd"
        d="M27.918 7.8863L16.7717 1.3863C16.2014 1.05374 15.5011 1.04996 14.9275 1.37622L3.61861 7.80752C3.02494 8.14515 2.6554 8.78638 2.66285 9.48409L2.80298 22.5918C2.81019 23.2673 3.16983 23.8839 3.74118 24.2171L14.8876 30.7172C15.4709 31.0574 16.1895 31.053 16.769 30.7055L27.7818 24.1015C28.3413 23.766 28.6922 23.1569 28.7004 22.4905L28.8562 9.55543C28.8645 8.86409 28.5027 8.2272 27.918 7.8863ZM29.6949 22.5025C29.6825 23.5107 29.1516 24.4397 28.2933 24.9544L17.2805 31.5584C16.39 32.0924 15.2835 32.0993 14.3866 31.5763L3.24022 25.0762C2.36371 24.5651 1.81942 23.6247 1.80851 22.6025L1.66838 9.49472C1.6571 8.43903 2.21614 7.46101 3.12696 6.94301L14.4358 0.511721C15.3177 0.0101557 16.3962 0.0160565 17.2727 0.527167L28.419 7.02718C29.316 7.55018 29.8632 8.5215 29.8506 9.56741L29.6949 22.5025Z" />
    </mask>
    <path
      d="M1.88012 23.099L2.80829 23.0891L2.79766 22.0946L1.86949 22.1045L1.88012 23.099ZM27.918 7.8863L27.417 8.74543L27.4171 8.74545L27.918 7.8863ZM16.7717 1.3863L17.2727 0.527181L17.2727 0.527167L16.7717 1.3863ZM14.9275 1.37622L15.4191 2.24073L15.4191 2.24071L14.9275 1.37622ZM3.61861 7.80752L3.12697 6.94301L3.12695 6.94301L3.61861 7.80752ZM2.66285 9.48409L1.66838 9.49472L1.66838 9.49472L2.66285 9.48409ZM2.80298 22.5918L3.79745 22.5812L3.79745 22.5812L2.80298 22.5918ZM3.74118 24.2171L4.24218 23.358L4.24213 23.3579L3.74118 24.2171ZM14.8876 30.7172L14.3866 31.5763L14.3866 31.5763L14.8876 30.7172ZM16.769 30.7055L17.2805 31.5584L17.2805 31.5584L16.769 30.7055ZM27.7818 24.1015L28.2933 24.9545L28.2933 24.9544L27.7818 24.1015ZM28.7004 22.4905L29.6949 22.5028L29.6949 22.5025L28.7004 22.4905ZM28.8562 9.55543L27.8617 9.54345V9.54345L28.8562 9.55543ZM28.2933 24.9544L28.8048 25.8074L28.8048 25.8074L28.2933 24.9544ZM29.6949 22.5025L30.6893 22.5146L30.6893 22.5145L29.6949 22.5025ZM17.2805 31.5584L17.7919 32.4113L17.7919 32.4113L17.2805 31.5584ZM14.3866 31.5763L13.8856 32.4354L13.8856 32.4355L14.3866 31.5763ZM3.24022 25.0762L3.74122 24.2171L3.74118 24.2171L3.24022 25.0762ZM1.80851 22.6025L2.80298 22.5919L2.80298 22.5918L1.80851 22.6025ZM1.66838 9.49472L0.673907 9.50535L0.673907 9.50535L1.66838 9.49472ZM3.12696 6.94301L2.63532 6.0785L2.63531 6.07851L3.12696 6.94301ZM14.4358 0.511721L14.9274 1.37623L14.9275 1.37622L14.4358 0.511721ZM17.2727 0.527167L17.7737 -0.331954L17.7737 -0.331968L17.2727 0.527167ZM28.419 7.02718L27.918 7.8863L27.9181 7.88633L28.419 7.02718ZM29.8506 9.56741L28.8562 9.55543V9.55543L29.8506 9.56741ZM16.2707 2.24542L27.417 8.74543L28.419 7.02718L17.2727 0.527181L16.2707 2.24542ZM15.4191 2.24071C15.6845 2.08977 16.0067 2.09143 16.2708 2.24544L17.2727 0.527167C16.3962 0.016054 15.3177 0.010158 14.4358 0.511721L15.4191 2.24071ZM4.11025 8.67203L15.4191 2.24073L14.4358 0.511707L3.12697 6.94301L4.11025 8.67203ZM3.65733 9.47346C3.6537 9.13394 3.83355 8.82939 4.11027 8.67202L3.12695 6.94301C2.21633 7.4609 1.65709 8.43882 1.66838 9.49472L3.65733 9.47346ZM3.79745 22.5812L3.65733 9.47346L1.66838 9.49472L1.80851 22.6025L3.79745 22.5812ZM4.24213 23.3579C3.9758 23.2026 3.80096 22.9098 3.79745 22.5812L1.80851 22.6025C1.81942 23.6248 2.36386 24.5652 3.24022 25.0762L4.24213 23.3579ZM15.3886 29.8581L4.24218 23.358L3.24017 25.0762L14.3866 31.5763L15.3886 29.8581ZM16.2576 29.8525C15.989 30.0135 15.6584 30.0154 15.3886 29.8581L14.3866 31.5763C15.2834 32.0993 16.39 32.0924 17.2805 31.5584L16.2576 29.8525ZM27.2704 23.2486L16.2576 29.8525L17.2805 31.5584L28.2933 24.9545L27.2704 23.2486ZM27.7059 22.4783C27.702 22.8027 27.5312 23.0922 27.2703 23.2486L28.2933 24.9544C29.1514 24.4399 29.6824 23.511 29.6949 22.5028L27.7059 22.4783ZM27.8617 9.54345L27.7059 22.4785L29.6949 22.5025L29.8506 9.5674L27.8617 9.54345ZM27.4171 8.74545C27.6896 8.90436 27.8658 9.20693 27.8617 9.54345L29.8506 9.56741C29.8633 8.52126 29.3157 7.55004 28.419 7.02716L27.4171 8.74545ZM28.8048 25.8074C29.9618 25.1135 30.6728 23.8646 30.6893 22.5146L28.7004 22.4904C28.6923 23.1568 28.3414 23.766 27.7818 24.1015L28.8048 25.8074ZM17.7919 32.4113L28.8048 25.8074L27.7819 24.1015L16.769 30.7055L17.7919 32.4113ZM13.8856 32.4355C15.096 33.1412 16.5905 33.1318 17.7919 32.4113L16.769 30.7055C16.1895 31.053 15.4709 31.0574 14.8876 30.7172L13.8856 32.4355ZM2.73922 25.9353L13.8856 32.4354L14.8876 30.7172L3.74122 24.2171L2.73922 25.9353ZM0.814032 22.6131C0.828644 23.982 1.55758 25.2464 2.73927 25.9354L3.74118 24.2171C3.16983 23.8839 2.81019 23.2673 2.80298 22.5919L0.814032 22.6131ZM0.673907 9.50535L0.814032 22.6131L2.80298 22.5918L2.66285 9.48409L0.673907 9.50535ZM2.63531 6.07851C1.40734 6.77687 0.658798 8.09169 0.673907 9.50535L2.66285 9.48409C2.6554 8.78637 3.02493 8.14515 3.61861 7.80752L2.63531 6.07851ZM13.9442 -0.352789L2.63532 6.0785L3.6186 7.80752L14.9274 1.37623L13.9442 -0.352789ZM17.7737 -0.331968C16.591 -1.02163 15.1343 -1.02965 13.9441 -0.352775L14.9275 1.37622C15.5011 1.04997 16.2014 1.05374 16.7717 1.3863L17.7737 -0.331968ZM28.92 6.16806L17.7737 -0.331954L16.7717 1.38629L27.918 7.8863L28.92 6.16806ZM30.8451 9.57939C30.862 8.1789 30.1292 6.87314 28.92 6.16804L27.9181 7.88633C28.5027 8.22722 28.8645 8.86409 28.8562 9.55543L30.8451 9.57939ZM30.6893 22.5145L30.8451 9.57938L28.8562 9.55543L28.7004 22.4905L30.6893 22.5145Z"
      fill="url(#paint1_linear_611_917)" mask="url(#path-4-inside-1_611_917)" />
  </g>
  <path
    d="M40.5196 7.02718L29.3733 0.527167C28.4968 0.0160565 27.4183 0.0101557 26.5364 0.511721L15.2275 6.94301C14.3167 7.46101 13.7577 8.43903 13.769 9.49472L13.9091 22.6025C13.92 23.6247 14.4643 24.5651 15.3408 25.0762L26.4872 31.5763C27.384 32.0993 28.4906 32.0924 29.3811 31.5584L40.3939 24.9544C41.2522 24.4397 41.7831 23.5107 41.7954 22.5025L41.9512 9.56741C41.9638 8.5215 41.4166 7.55018 40.5196 7.02718Z"
    fill="#202024" />
  <path fill-rule="evenodd" clip-rule="evenodd"
    d="M14.9036 22.5918C14.9108 23.2673 15.2704 23.8839 15.8418 24.2171L15.8422 24.2173L26.9882 30.7172C27.5715 31.0574 28.2901 31.0529 28.8696 30.7054L39.8824 24.1015C40.4384 23.7681 40.7885 23.1643 40.8008 22.5028C40.8008 22.5028 40.8008 22.5028 40.8008 22.5028C40.8009 22.4988 40.8009 22.4948 40.801 22.4908C40.801 22.4907 40.801 22.4909 40.801 22.4908L40.9568 9.55542C40.9642 8.93524 40.6738 8.35888 40.1919 8.00071C40.1366 7.95962 40.0788 7.9214 40.0187 7.88632L28.8724 1.38631C28.7576 1.31942 28.6376 1.26581 28.5145 1.22553C28.0485 1.07313 27.5371 1.11134 27.0934 1.34073C27.0792 1.34809 27.0651 1.35564 27.051 1.36339C27.0487 1.36467 27.0463 1.36595 27.044 1.36724C27.0387 1.3702 27.0334 1.37319 27.0281 1.37621L15.7192 7.8075C15.1255 8.14514 14.756 8.78638 14.7634 9.48408L14.9036 22.5918ZM15.2276 6.943L26.5364 0.511715C26.5655 0.495174 26.5948 0.479172 26.6243 0.463735C27.4787 0.016609 28.5005 0.0324615 29.3422 0.509303C29.3526 0.515183 29.363 0.521133 29.3733 0.527153C29.3733 0.527146 29.3733 0.52716 29.3733 0.527153L40.5196 7.02715C41.4165 7.55016 41.9638 8.52152 41.9512 9.5674L41.7954 22.5025C41.7954 22.5025 41.7954 22.5025 41.7954 22.5025C41.783 23.5106 41.2521 24.4398 40.3939 24.9544L29.3811 31.5584C28.4906 32.0923 27.384 32.0993 26.4872 31.5763L15.3408 25.0762C15.2297 25.0114 15.1238 24.9397 15.0238 24.8618C14.3351 24.3255 13.9189 23.4957 13.9091 22.6035C13.9091 22.6031 13.9091 22.6028 13.9091 22.6025L13.769 9.49471C13.7577 8.43971 14.316 7.46227 15.2258 6.94401C15.2264 6.94368 15.227 6.94333 15.2276 6.943C15.2276 6.943 15.2275 6.943 15.2276 6.943ZM41.7938 22.5027L41.7954 22.5025L41.7938 22.5027Z"
    fill="url(#paint2_linear_611_917)" />
  <path
    d="M37.6035 9.50092L29.1555 4.78828C28.4912 4.41772 27.6738 4.41344 27.0054 4.77708L18.4342 9.43989C17.7439 9.81545 17.3202 10.5245 17.3287 11.2899L17.4349 20.7933C17.4432 21.5344 17.8557 22.2163 18.5201 22.5868L26.9681 27.2995C27.6478 27.6787 28.4865 27.6737 29.1614 27.2865L37.5082 22.4985C38.1587 22.1254 38.5611 21.4518 38.5704 20.7208L38.6885 11.3426C38.698 10.5843 38.2833 9.8801 37.6035 9.50092Z"
    fill="url(#paint3_linear_611_917)" />
  <path
    d="M23.1321 10.4165L22.6934 12.7233H31.8649L31.5679 14.2151H22.4032L21.9578 16.5149H31.1293L30.6164 19.1463L26.9181 20.3963L23.7125 19.1463L23.9352 18.0136H21.6811L21.1479 20.7762L26.4457 22.8481L32.5532 20.7762L33.3631 16.6116L33.5251 15.7759L34.5644 10.4165H23.1321Z"
    fill="#42A5F5" />
  <g clip-path="url(#clip1_611_917)">
    <path
      d="M52.3017 7.21542L41.2882 0.850647C40.4221 0.350171 39.3565 0.344393 38.4851 0.835522L27.311 7.133C26.411 7.64021 25.8586 8.59789 25.8698 9.63161L26.0082 22.4666C26.019 23.4675 26.5568 24.3885 27.4229 24.8889L38.4365 31.2538C39.3226 31.7658 40.416 31.7591 41.2959 31.2362L52.1775 24.7697C53.0255 24.2657 53.5502 23.3559 53.5623 22.3687L53.7163 9.70279C53.7287 8.67864 53.188 7.72753 52.3017 7.21542Z"
      fill="#202024" />
    <path fill-rule="evenodd" clip-rule="evenodd"
      d="M52.0568 7.91747L40.7929 1.41729C40.7929 1.41729 40.7929 1.4173 40.7929 1.41729C40.2216 1.08761 39.5185 1.08382 38.9437 1.40731L27.5155 7.83878C27.5155 7.83879 27.5155 7.83878 27.5155 7.83878C26.9219 8.17288 26.5578 8.80348 26.5651 9.48387L26.7067 22.592L25.6791 22.6031L25.5375 9.49497C25.5261 8.43925 26.0911 7.4612 27.0115 6.94319L38.4397 0.511731C39.3309 0.0101523 40.4208 0.0160532 41.3065 0.527178L52.5705 7.02737C53.4769 7.55038 54.0299 8.52172 54.0172 9.56766L53.8598 22.5031C53.8473 23.5113 53.3108 24.4404 52.4434 24.9551L41.3144 31.5592C40.4145 32.0932 39.2963 32.1001 38.39 31.5772L27.126 25.0769C26.2402 24.5658 25.6902 23.6253 25.6791 22.6031L26.7067 22.592C26.7139 23.2508 27.0683 23.8572 27.6396 24.1868L38.9036 30.687C39.4881 31.0243 40.2094 31.0199 40.7899 30.6754L51.919 24.0713C51.919 24.0713 51.919 24.0713 51.919 24.0713C52.4782 23.7395 52.8241 23.1405 52.8322 22.4906C52.8322 22.4905 52.8322 22.4907 52.8322 22.4906L52.9896 9.55515C52.9978 8.88095 52.6413 8.25473 52.0568 7.91747Z"
      fill="url(#paint4_linear_611_917)" />
    <path
      d="M49.3723 9.40815L40.9243 4.69551C40.26 4.32494 39.4426 4.32067 38.7742 4.68431L30.203 9.34712C29.5127 9.72268 29.089 10.4318 29.0975 11.1972L29.2037 20.7005C29.212 21.4416 29.6245 22.1235 30.2889 22.494L38.7369 27.2068C39.4166 27.5859 40.2553 27.5809 40.9302 27.1937L49.277 22.4058C49.9275 22.0326 50.3299 21.359 50.3392 20.6281L50.4573 11.2499C50.4668 10.4916 50.0521 9.78733 49.3723 9.40815Z"
      fill="url(#paint5_linear_611_917)" />
    <path
      d="M32.2451 18.7858L33.8804 17.8123C34.1959 18.3628 34.483 18.8283 35.1715 18.8283C35.8311 18.8283 36.2473 18.5756 36.2473 17.5864V10.8689H38.2556V17.6142C38.2556 19.6603 37.0364 20.5918 35.2578 20.5918C34.629 20.6253 34.0046 20.4706 33.467 20.1482C32.9293 19.8257 32.5035 19.3506 32.2456 18.7853L32.2451 18.7858ZM39.3468 18.5736L40.9821 17.642C41.1639 18.0049 41.4461 18.31 41.7963 18.5222C42.1464 18.7343 42.5503 18.845 42.9616 18.8414C43.7939 18.8414 44.3241 18.432 44.3241 17.8674C44.3241 17.1901 43.779 16.95 42.8609 16.5533L42.3605 16.344C40.9117 15.7374 39.9504 14.9752 39.9504 13.3664C39.9504 11.8844 41.0982 10.7557 42.8912 10.7557C43.4722 10.7143 44.0527 10.8421 44.5603 11.1231C45.0679 11.4042 45.4802 11.8261 45.7456 12.3362L44.1818 13.3244C44.0791 13.0712 43.9007 12.8546 43.6701 12.7034C43.4396 12.5522 43.1677 12.4735 42.8907 12.4778C42.7699 12.4657 42.6479 12.4786 42.5325 12.5156C42.417 12.5526 42.3107 12.6128 42.2202 12.6925C42.1298 12.7721 42.0572 12.8695 42.0071 12.9783C41.9571 13.0871 41.9306 13.205 41.9294 13.3244C41.9294 13.9173 42.3024 14.1569 43.1625 14.5239L43.6644 14.7356C45.3716 15.4554 46.3323 16.1893 46.3323 17.8401C46.3323 19.6183 44.9123 20.5923 43.0047 20.5923C41.1398 20.5923 39.935 19.7174 39.3468 18.5741"
      fill="#E6D130" />
  </g>
  <defs>
    <linearGradient id="paint0_linear_611_917" x1="0.13645" y1="-0.902985" x2="27.0768" y2="24.4569"
      gradientUnits="userSpaceOnUse">
      <stop stop-color="#852A12" />
      <stop offset="1" stop-color="#202024" />
    </linearGradient>
    <linearGradient id="paint1_linear_611_917" x1="8.90959" y1="3.52096" x2="23.5422" y2="27.9779"
      gradientUnits="userSpaceOnUse">
      <stop stop-color="#D94A1D" />
      <stop offset="1" stop-color="#D66E4D" stop-opacity="0.24" />
    </linearGradient>
    <linearGradient id="paint2_linear_611_917" x1="21.0102" y1="3.52096" x2="35.6427" y2="27.9779"
      gradientUnits="userSpaceOnUse">
      <stop stop-color="#3783C1" />
      <stop offset="1" stop-color="#18242F" />
    </linearGradient>
    <linearGradient id="paint3_linear_611_917" x1="17.3335" y1="4.56996" x2="40.317" y2="25.8542"
      gradientUnits="userSpaceOnUse">
      <stop stop-color="#296494" />
      <stop offset="1" stop-color="#121214" />
    </linearGradient>
    <linearGradient id="paint4_linear_611_917" x1="32.8551" y1="3.52105" x2="47.4152" y2="28.113"
      gradientUnits="userSpaceOnUse">
      <stop stop-color="#E6D130" />
      <stop offset="1" stop-color="#3D3A26" />
    </linearGradient>
    <linearGradient id="paint5_linear_611_917" x1="24.0058" y1="-0.902985" x2="50.9462" y2="24.4569"
      gradientUnits="userSpaceOnUse">
      <stop stop-color="#A39423" />
      <stop offset="1" stop-color="#202024" />
    </linearGradient>
    <clipPath id="clip0_611_917">
      <rect width="31.825" height="31.825" fill="white" transform="translate(0.00952148 0.139648)" />
    </clipPath>
    <clipPath id="clip1_611_917">
      <rect width="31.825" height="31.825" fill="white" transform="translate(23.8792 0.139648)" />
    </clipPath>
  </defs>
</svg>