<svg width="32" height="33" viewBox="0 0 32 33" fill="none" xmlns="http://www.w3.org/2000/svg">
  <path fill-rule="evenodd" clip-rule="evenodd"
    d="M28.061 7.81417L16.8533 1.27841C16.2799 0.944026 15.5757 0.940225 14.9989 1.26827L3.62787 7.73494C3.03094 8.07443 2.65936 8.71919 2.66686 9.42074L2.80776 22.6006C2.815 23.2798 3.17662 23.8998 3.75111 24.2348L14.9588 30.7706C15.5454 31.1127 16.2679 31.1082 16.8506 30.7588L27.924 24.1186C28.4865 23.7812 28.8394 23.1687 28.8476 22.4987L29.0043 9.49247C29.0126 8.79733 28.6488 8.15694 28.061 7.81417ZM29.8475 22.5108C29.8352 23.5245 29.3013 24.4587 28.4383 24.9762L17.3649 31.6165C16.4695 32.1534 15.3569 32.1603 14.4551 31.6345L3.2474 25.0986C2.36607 24.5847 1.81878 23.6391 1.80781 22.6113L1.66692 9.43143C1.65557 8.36993 2.21768 7.38653 3.13352 6.86568L14.5046 0.399021C15.3913 -0.105303 16.4757 -0.0993694 17.3571 0.414553L28.5647 6.95032C29.4666 7.4762 30.0169 8.45285 30.0042 9.50452L29.8475 22.5108Z"
    fill="url(#paint0_linear_611_954)" />
  <path
    d="M25.382 9.43743L16.9762 4.699C16.3152 4.32641 15.5019 4.32211 14.8369 4.68774L6.30857 9.37607C5.6217 9.75368 5.20011 10.4667 5.20862 11.2362L5.31429 20.7916C5.32252 21.5368 5.73298 22.2224 6.39399 22.595L14.7998 27.3335C15.4761 27.7147 16.3106 27.7096 16.9821 27.3204L25.2872 22.5062C25.9344 22.131 26.3348 21.4537 26.3441 20.7187L26.4616 11.2892C26.4711 10.5268 26.0584 9.81869 25.382 9.43743Z"
    fill="url(#paint1_linear_611_954)" />
  <path
    d="M15.4404 8.16949C15.6387 8.05643 15.8621 7.99707 16.0893 7.99707C16.3165 7.99707 16.5399 8.05643 16.7382 8.16949C18.7143 9.30798 20.6905 10.4463 22.6668 11.5845C22.8527 11.6924 23.0075 11.8482 23.1157 12.0364C23.2239 12.2245 23.2817 12.4384 23.2833 12.6564V19.5088C23.2794 19.7349 23.2159 19.9558 23.0993 20.1482C22.9827 20.3406 22.8175 20.4974 22.6209 20.6022C20.6512 21.7346 18.682 22.8675 16.7133 24.0009C16.5112 24.1148 16.2829 24.1715 16.0521 24.1649C15.8213 24.1584 15.5965 24.0889 15.4009 23.9637C14.8106 23.6145 14.2197 23.2662 13.6284 22.9187C13.4986 22.8587 13.3823 22.7723 13.2865 22.6647C13.3618 22.5629 13.4966 22.5481 13.6059 22.5028C13.8485 22.4143 14.0825 22.3028 14.3048 22.1699C14.3328 22.1531 14.3651 22.1451 14.3976 22.1471C14.43 22.1491 14.4612 22.161 14.487 22.1811C14.9921 22.4764 15.4923 22.7802 15.9989 23.0724C16.1073 23.136 16.2166 23.0515 16.3089 22.9991C18.2417 21.8851 20.1751 20.7723 22.1093 19.661C22.1438 19.6434 22.1723 19.6157 22.191 19.5814C22.2098 19.547 22.218 19.5077 22.2146 19.4686C22.2146 17.2089 22.2146 14.9489 22.2146 12.6885C22.2181 12.6445 22.2081 12.6005 22.1859 12.5627C22.1637 12.5248 22.1304 12.4949 22.0908 12.4773C20.1274 11.35 18.165 10.2222 16.2036 9.09386C16.1696 9.07011 16.1293 9.05741 16.088 9.05741C16.0468 9.05741 16.0065 9.07011 15.9725 9.09386C14.0091 10.2218 12.0469 11.3501 10.0858 12.4788C10.046 12.496 10.0126 12.5256 9.99025 12.5634C9.96793 12.6011 9.95787 12.6451 9.96152 12.689C9.96152 14.9487 9.96152 17.2087 9.96152 19.4691C9.95812 19.5082 9.96653 19.5473 9.98563 19.5814C10.0047 19.6154 10.0336 19.6427 10.0683 19.6595C10.5921 19.9622 11.1161 20.264 11.6402 20.565C11.7856 20.6566 11.9482 20.716 12.1176 20.7391C12.287 20.7623 12.4592 20.7487 12.6231 20.6994C12.7651 20.6448 12.8874 20.5473 12.9736 20.42C13.0599 20.2927 13.106 20.1415 13.1058 19.9868C13.1083 17.74 13.1058 15.4932 13.1058 13.2469C13.1052 13.2231 13.1095 13.1994 13.1186 13.1774C13.1276 13.1554 13.1411 13.1356 13.1582 13.1193C13.1752 13.103 13.1955 13.0906 13.2176 13.0828C13.2397 13.0751 13.2632 13.0722 13.2865 13.0744C13.5361 13.0744 13.7901 13.0708 14.0417 13.0744C14.0661 13.0755 14.0899 13.0818 14.1117 13.093C14.1334 13.1041 14.1527 13.1198 14.1682 13.139C14.1836 13.1581 14.195 13.1804 14.2015 13.2044C14.208 13.2283 14.2095 13.2534 14.2059 13.278C14.2059 15.539 14.2084 17.8 14.2059 20.0606C14.2227 20.3677 14.1583 20.6738 14.0196 20.9469C13.8809 21.2201 13.6729 21.4503 13.4173 21.6136C13.0756 21.7759 12.7016 21.855 12.3248 21.8445C11.948 21.834 11.5788 21.7342 11.2464 21.553C10.6703 21.2598 10.1208 20.9142 9.5552 20.6001C9.35889 20.4957 9.19384 20.3392 9.07744 20.1471C8.96104 19.9551 8.8976 19.7346 8.8938 19.5088V12.6564C8.8955 12.4338 8.95565 12.2156 9.06801 12.0247C9.18038 11.8338 9.34084 11.677 9.53273 11.5707C11.5028 10.4377 13.472 9.30391 15.4404 8.16949Z"
    fill="#8CC84B" />
  <path
    d="M17.1579 12.9148C18.0281 12.7999 18.9124 12.9379 19.7091 13.3129C19.9979 13.4885 20.2366 13.738 20.4016 14.0366C20.5667 14.3353 20.6523 14.6728 20.6501 15.0156C20.6388 15.0584 20.6128 15.0957 20.5768 15.1206C20.5407 15.1455 20.4971 15.1563 20.4539 15.151C20.2043 15.151 19.9547 15.1545 19.7051 15.151C19.6573 15.1478 19.6122 15.1266 19.5789 15.0914C19.5456 15.0561 19.5263 15.0095 19.525 14.9606C19.4967 14.7946 19.4334 14.6368 19.3393 14.4983C19.2453 14.3598 19.1228 14.2438 18.9804 14.1584C18.5064 13.9664 17.9946 13.8918 17.4869 13.9405C17.1127 13.9286 16.7426 14.0225 16.4176 14.2118C16.3057 14.3003 16.2238 14.4223 16.1834 14.5608C16.143 14.6992 16.1462 14.847 16.1925 14.9835C16.2724 15.1774 16.492 15.238 16.6717 15.2976C17.707 15.5735 18.8037 15.546 19.819 15.9084C20.037 15.9701 20.2383 16.0819 20.4073 16.2353C20.5764 16.3887 20.7088 16.5795 20.7943 16.7931C20.8962 17.0962 20.9208 17.4207 20.8658 17.7362C20.8109 18.0517 20.6783 18.3477 20.4804 18.5966C20.1224 18.9755 19.6573 19.2311 19.1501 19.3276C18.4894 19.4644 17.8116 19.4938 17.1419 19.4146C16.4992 19.3772 15.8829 19.1409 15.3754 18.7371C15.174 18.5489 15.0159 18.3177 14.9123 18.0599C14.8088 17.8022 14.7623 17.5243 14.7764 17.2461C14.7809 17.2012 14.8027 17.1598 14.8371 17.1312C14.8714 17.1026 14.9154 17.089 14.9596 17.0934C15.2091 17.0934 15.4612 17.0909 15.7123 17.0934C15.7356 17.0929 15.7587 17.0971 15.7803 17.1057C15.802 17.1143 15.8217 17.1273 15.8384 17.1437C15.8551 17.1602 15.8685 17.1799 15.8777 17.2017C15.8869 17.2234 15.8918 17.2469 15.892 17.2706C15.9045 17.4287 15.9487 17.5824 16.0216 17.7225C16.0946 17.8626 16.1949 17.9859 16.3163 18.085C16.8537 18.3547 17.4543 18.4661 18.0504 18.4067C18.5494 18.445 19.0473 18.3202 19.472 18.0504C19.5697 17.9531 19.6407 17.8314 19.6782 17.6975C19.7157 17.5636 19.7183 17.4221 19.6857 17.2869C19.6248 17.0608 19.3927 16.9555 19.1935 16.8868C18.1717 16.5569 17.0626 16.6765 16.0487 16.3039C15.8365 16.2406 15.6402 16.1311 15.4734 15.9829C15.3067 15.8347 15.1734 15.6515 15.0829 15.4457C14.9666 15.1385 14.9372 14.8043 14.9981 14.4809C15.059 14.1576 15.2077 13.8581 15.4273 13.6168C15.9057 13.1861 16.5148 12.9365 17.1524 12.9097L17.1579 12.9148Z"
    fill="#8CC84B" />
  <defs>
    <linearGradient id="paint0_linear_611_954" x1="9.14474" y1="3.22482" x2="23.2617" y2="28.0297"
      gradientUnits="userSpaceOnUse">
      <stop stop-color="#8CC84B" />
      <stop offset="1" stop-color="#8CC84B" stop-opacity="0.25" />
    </linearGradient>
    <linearGradient id="paint1_linear_611_954" x1="5.21243" y1="4.48046" x2="28.3556" y2="25.6893"
      gradientUnits="userSpaceOnUse">
      <stop stop-color="#3B6630" />
      <stop offset="1" stop-color="#121214" />
    </linearGradient>
  </defs>
</svg>