<svg width="32" height="33" viewBox="0 0 32 33" fill="none" xmlns="http://www.w3.org/2000/svg">
  <path
    d="M28.565 6.95032L17.3573 0.414553C16.476 -0.0993694 15.3916 -0.105303 14.5048 0.399021L3.13376 6.86568C2.21793 7.38653 1.65582 8.36993 1.66716 9.43143L1.80806 22.6113C1.81903 23.6391 2.36631 24.5847 3.24765 25.0986L14.4553 31.6345C15.3571 32.1603 16.4697 32.1534 17.3651 31.6165L28.4385 24.9762C29.3015 24.4587 29.8354 23.5245 29.8478 22.5108L30.0044 9.50452C30.0171 8.45285 29.4668 7.4762 28.565 6.95032Z"
    fill="#202024" />
  <path
    d="M25.6327 9.43756L17.1383 4.69901C16.4703 4.3264 15.6484 4.3221 14.9763 4.68775L6.35802 9.3762C5.6639 9.75382 5.23787 10.4668 5.24647 11.2364L5.35325 20.7921C5.36157 21.5372 5.77636 22.2229 6.44434 22.5954L14.9388 27.3341C15.6223 27.7153 16.4656 27.7102 17.1442 27.321L25.5369 22.5067C26.191 22.1314 26.5956 21.4542 26.605 20.7192L26.7237 11.2894C26.7333 10.5269 26.3162 9.81883 25.6327 9.43756Z"
    fill="url(#paint0_linear_611_966)" />
  <path fill-rule="evenodd" clip-rule="evenodd"
    d="M28.3323 7.8455L17.0064 1.30958C17.0064 1.30957 17.0065 1.30958 17.0064 1.30958C16.432 0.978082 15.7251 0.974266 15.1471 1.29954L3.65604 7.76638C3.65604 7.76639 3.65604 7.76638 3.65604 7.76638C3.05914 8.10232 2.69305 8.73638 2.70044 9.42052L2.84282 22.6007C2.84996 23.2632 3.20641 23.8729 3.78077 24.2043L15.1068 30.7403C15.1067 30.7403 15.1068 30.7403 15.1068 30.7403C15.6944 31.0794 16.4198 31.075 17.0035 30.7286L28.1937 24.0882C28.1937 24.0882 28.1937 24.0882 28.1937 24.0882C28.756 23.7545 29.1038 23.1523 29.1119 22.4988C29.1119 22.4987 29.1119 22.4988 29.1119 22.4988L29.2702 9.49219C29.2785 8.81428 28.92 8.18461 28.3323 7.8455ZM30.1452 22.5114C30.1327 23.5251 29.5932 24.4593 28.7211 24.9768L17.5308 31.6173C16.626 32.1542 15.5016 32.1612 14.5903 31.6353L3.26433 25.0993C2.37369 24.5854 1.82063 23.6397 1.80955 22.6119L1.66716 9.43168C1.6557 8.37015 2.22374 7.38672 3.14924 6.86587L14.6403 0.399031C15.5364 -0.105306 16.6323 -0.0993727 17.5229 0.414563L28.8488 6.9505C29.7602 7.47639 30.3163 8.45308 30.3035 9.50477L30.1452 22.5114Z"
    fill="url(#paint1_linear_611_966)" />
  <path
    d="M16.3171 21.7025C16.1717 21.5739 16.02 21.4449 15.875 21.302C15.7592 21.4091 15.6506 21.5094 15.5357 21.6093C14.1015 22.8457 12.6231 23.3604 11.7468 22.86C10.899 22.3811 10.6319 20.9665 10.9712 19.1867C11.0074 18.9938 11.0509 18.8009 11.1016 18.6079C10.9494 18.5631 10.8045 18.5219 10.6596 18.4735C8.85501 17.8576 7.66699 16.8573 7.66699 15.8565C7.66699 14.8921 8.77552 13.9558 10.5069 13.3555C10.7008 13.291 10.9053 13.227 11.1157 13.1696C11.0672 12.9837 11.0289 12.805 10.9926 12.6321C10.63 10.8254 10.8835 9.38208 11.7385 8.89603C12.6294 8.38132 14.1078 8.93187 15.5924 10.2251C15.6792 10.3035 15.7665 10.3896 15.8605 10.4751C15.9981 10.3465 16.1285 10.218 16.2662 10.1037C17.6718 8.89424 19.0697 8.38849 19.9248 8.87453C20.8157 9.37446 21.0769 10.9181 20.6785 12.8265C20.6567 12.9483 20.63 13.0626 20.599 13.1849C20.7803 13.235 20.9611 13.2919 21.1278 13.3493C22.8955 13.9495 24.0404 14.8858 24.0259 15.8718C24.0259 16.8792 22.8015 17.8728 20.9237 18.4874C20.8224 18.5161 20.7211 18.5519 20.6194 18.5802C20.663 18.7231 20.6916 18.866 20.7207 19.0089C21.0973 20.8598 20.8074 22.3749 19.9311 22.8752C19.7009 23.0033 19.4362 23.0685 19.1677 23.0634C18.3645 23.062 17.3447 22.5733 16.3171 21.7025ZM17.7373 19.0796C17.3211 19.6779 16.8637 20.2509 16.368 20.7949C16.5056 20.9293 16.6433 21.0525 16.781 21.1667C17.9762 22.1813 19.0775 22.5603 19.5923 22.2674C19.7495 22.1422 19.8779 21.9892 19.97 21.8174C20.0621 21.6456 20.1159 21.4584 20.1283 21.2671C20.2329 20.5579 20.2034 19.8373 20.0411 19.1374C20.0193 19.0089 19.9926 18.8803 19.9543 18.7446C19.2244 18.9025 18.4836 19.0144 17.7373 19.0796ZM11.6658 19.3085C11.3692 20.8316 11.5863 21.9668 12.1021 22.2602C12.2848 22.3308 12.4821 22.3633 12.6799 22.3556C12.8778 22.3478 13.0713 22.3 13.2469 22.2154C13.9301 21.95 14.5523 21.5668 15.0801 21.0861C15.1887 21.0001 15.29 20.9002 15.399 20.8003C14.8924 20.2561 14.4229 19.6832 13.9934 19.085C13.2499 19.0276 12.5115 18.9228 11.7836 18.7714C11.7385 18.9582 11.7022 19.1365 11.6658 19.3085ZM15.8828 20.3089C16.2017 19.9585 16.5202 19.5728 16.8391 19.1441C16.5202 19.1585 16.1872 19.1656 15.8537 19.1656C15.5202 19.1656 15.209 19.1585 14.8974 19.1441C15.2231 19.5652 15.5493 19.9585 15.8823 20.3089H15.8828ZM14.3608 13.334C14.0855 13.7269 13.8174 14.1404 13.5639 14.5776C13.3104 15.0063 13.0792 15.4422 12.8684 15.8767C13.086 16.3054 13.3177 16.7413 13.5712 17.1847C13.8247 17.6134 14.0928 18.0359 14.3681 18.435C14.846 18.4637 15.3462 18.4798 15.8532 18.4798C16.3602 18.4798 16.8672 18.4655 17.3529 18.4301C17.6137 18.0372 17.8817 17.6152 18.1357 17.1794C18.3897 16.7435 18.6282 16.3005 18.8385 15.8718C18.6282 15.4502 18.3892 15.0143 18.1357 14.578C17.8822 14.1417 17.6142 13.7269 17.3461 13.3345C16.8614 13.2986 16.3607 13.2771 15.8537 13.2771C15.3467 13.2771 14.8465 13.2982 14.3608 13.334ZM11.9702 18.1147C12.4673 18.2197 12.9704 18.2985 13.4772 18.3508C13.3032 18.0793 13.1296 17.8074 12.9629 17.5216C12.8034 17.243 12.644 16.9643 12.499 16.6857C12.2892 17.1713 12.1152 17.6511 11.9702 18.1147ZM18.744 17.5144C18.5773 17.8002 18.4105 18.0717 18.2443 18.3365C18.7586 18.2769 19.269 18.1911 19.7731 18.0793C19.6157 17.5969 19.4319 17.1222 19.2224 16.657C19.0702 16.9428 18.9108 17.2286 18.744 17.5144ZM10.7313 14.0127C9.25344 14.5274 8.36255 15.2769 8.36255 15.8637C8.39072 16.0525 8.45896 16.2343 8.56335 16.3986C8.66774 16.563 8.80623 16.7067 8.97086 16.8214C9.5363 17.2609 10.1847 17.6 10.8835 17.8217C11.0139 17.8665 11.1516 17.9006 11.2892 17.9436C11.5118 17.2407 11.7803 16.5509 12.0933 15.878C11.7797 15.2167 11.5135 14.537 11.2965 13.8434C11.101 13.8917 10.9126 13.9482 10.7313 14.0127ZM19.6209 15.8637C19.9423 16.528 20.2176 17.2106 20.4449 17.9073C20.5394 17.8786 20.6334 17.85 20.7202 17.8213C22.3357 17.2927 23.3376 16.485 23.3429 15.8561C23.3429 15.2701 22.4157 14.5122 20.9015 13.9979C20.7493 13.9482 20.583 13.898 20.4167 13.8478C20.1973 14.5345 19.9314 15.2078 19.6209 15.8637ZM18.7372 14.2201C18.904 14.5059 19.0634 14.785 19.2079 15.0636C19.4092 14.6082 19.5833 14.143 19.7294 13.67C19.2373 13.5595 18.7391 13.4737 18.237 13.4129C18.411 13.6767 18.5773 13.9415 18.7367 14.2201H18.7372ZM11.9775 13.6642C12.1229 14.1216 12.2964 14.5861 12.499 15.0645C12.6445 14.7859 12.8034 14.5072 12.9629 14.2286C13.1224 13.95 13.2886 13.6785 13.4626 13.4138C12.9411 13.4769 12.4486 13.5625 11.9775 13.6642ZM16.7228 10.627C16.5997 10.734 16.4766 10.8483 16.353 10.9629C16.8561 11.5003 17.3184 12.069 17.7368 12.6652C18.4741 12.731 19.2053 12.8457 19.9248 13.0084C19.9538 12.9013 19.9732 12.7938 19.9975 12.6867C20.3368 11.0431 20.1279 9.78525 19.5772 9.47122C19.4564 9.40852 19.3193 9.37754 19.1807 9.38163C18.5889 9.37894 17.6806 9.80496 16.7228 10.6256V10.627ZM12.0861 9.48914C11.5718 9.78211 11.3687 10.954 11.6731 12.4977C11.7095 12.6621 11.7458 12.826 11.7889 12.9976C12.5094 12.8409 13.2403 12.7287 13.9769 12.6616C14.3968 12.0647 14.8616 11.4959 15.368 10.9594C15.2885 10.8805 15.2013 10.8093 15.1218 10.7376C14.1136 9.85647 13.1442 9.39148 12.5112 9.39148C12.3624 9.38679 12.2152 9.42062 12.0861 9.48914ZM16.8241 12.6047C16.5253 12.2052 16.203 11.8212 15.8586 11.4544C15.5328 11.8042 15.2066 12.1904 14.8891 12.6047C15.2081 12.5904 15.5265 12.5832 15.8527 12.5832C16.1789 12.5832 16.5056 12.5891 16.8246 12.6047H16.8241ZM14.4044 15.8924C14.3976 15.7087 14.4301 15.5256 14.5 15.3535C14.57 15.1815 14.6759 15.0239 14.8119 14.8898C14.9478 14.7557 15.111 14.6476 15.2922 14.5719C15.4734 14.4962 15.669 14.4543 15.8678 14.4486C16.2688 14.4612 16.648 14.6203 16.9223 14.8909C17.1967 15.1616 17.3436 15.5217 17.3311 15.8924C17.344 16.2633 17.1972 16.6239 16.9227 16.8948C16.6482 17.1658 16.2686 17.325 15.8673 17.3375C15.6684 17.3318 15.4727 17.2898 15.2915 17.214C15.1102 17.1382 14.9469 17.0301 14.811 16.8958C14.6751 16.7615 14.5692 16.6037 14.4994 16.4316C14.4297 16.2594 14.3974 16.0761 14.4044 15.8924Z"
    fill="#667DFF" />
  <defs>
    <linearGradient id="paint0_linear_611_966" x1="5.25127" y1="4.47948" x2="28.3612" y2="25.8808"
      gradientUnits="userSpaceOnUse">
      <stop stop-color="#3346B0" />
      <stop offset="1" stop-color="#121214" />
    </linearGradient>
    <linearGradient id="paint1_linear_611_966" x1="9.02503" y1="3.4249" x2="23.6652" y2="28.1521"
      gradientUnits="userSpaceOnUse">
      <stop stop-color="#526CFF" />
      <stop offset="1" stop-color="#4763FF" stop-opacity="0.25" />
    </linearGradient>
  </defs>
</svg>