<svg width="213" height="69" viewBox="0 0 213 69" fill="none" xmlns="http://www.w3.org/2000/svg">
  <g clip-path="url(#clip0_2_1653)">
    <path
      d="M54.1623 2.31419L45.3003 1.03026C45.0382 0.978906 44.7759 1.08161 44.6711 1.18433L40.8955 6.01186C40.6334 6.32 40.5809 6.73086 40.6858 7.09036C40.7907 7.44986 40.4761 7.75801 40.1091 7.70665L37.0152 7.039C36.5433 6.93628 36.0189 7.09037 35.7043 7.50123L23.4338 22.9083C23.2241 23.2164 22.8046 23.3191 22.4375 23.165L17.7706 21.1108C17.3511 20.9053 16.8792 20.9567 16.5121 21.2134L14.1524 22.8055C13.7853 23.0624 13.261 23.1137 12.8415 22.9083L11.6878 22.3433C10.9537 21.9838 10.0623 22.3947 9.85252 23.165L9.01351 26.8114C8.80376 27.6845 9.17083 28.5575 9.95738 29.0197L11.7403 30.0982L17.456 33.5391L20.2351 35.2339C21.0217 35.6961 22.018 35.5934 22.6997 35.0285L27.3667 31.0227C27.7337 30.7145 28.3106 30.6118 28.73 30.8686L30.1458 31.5875C30.6178 31.8444 31.1947 31.7416 31.5617 31.3821L33.9214 29.2251C34.2885 28.8656 34.8652 28.8143 35.2847 29.0197L38.7981 30.6118C39.3225 30.8686 39.9517 30.7145 40.3188 30.2523L41.9443 28.198L54.2672 12.7397C54.844 12.0206 54.4769 10.9421 53.5331 10.7367L50.8063 10.1204C50.2295 10.0177 49.9673 9.2987 50.3868 8.88785L54.6343 3.70081C55.0538 3.08452 54.7915 2.41689 54.1623 2.31419Z"
      fill="#8234E9" />
    <path
      d="M13.5223 33.4362C13.26 33.2821 12.9979 33.5388 13.1028 33.7957L14.4137 37.1852C14.5186 37.442 14.5186 37.6987 14.4662 37.9555L13.3125 42.3722C13.26 42.6804 13.365 42.9885 13.5747 43.1426L16.8783 45.6591C17.1929 45.8645 17.6124 45.8645 17.8746 45.6077L21.3355 42.629C21.5452 42.4749 21.8074 42.3723 22.0172 42.3209L25.95 41.9101C26.2122 41.8587 26.3171 41.4991 26.0548 41.3451L13.5223 33.4362Z"
      fill="#8234E9" />
    <path
      d="M12.3697 44.8368C12.16 44.6827 11.8454 44.6314 11.5832 44.7341L8.80398 46.0694C8.64666 46.1207 8.54179 46.2748 8.43692 46.4289L2.51147 60.7574C2.51147 60.8088 2.51147 60.8088 2.51147 60.8602C2.5639 60.9116 2.61634 60.9629 2.72121 60.9629L4.08459 60.4493C4.13703 60.4493 4.18947 60.4493 4.2419 60.4493C4.29434 60.5007 4.34678 60.6034 4.29434 60.6547L0.0468931 67.4852C-0.0579821 67.6392 0.151773 67.7933 0.256648 67.6392L15.6208 52.5404C15.7782 52.3863 15.8307 52.2322 15.8831 52.0268L16.1977 48.1237C16.1977 47.8668 16.0928 47.6615 15.9355 47.5074L12.3697 44.8368Z"
      fill="#8234E9" />
    <path
      d="M84.2911 28.1108V4.40625H92.5055C95.351 4.40625 97.5093 4.95979 98.9803 6.06686C100.451 7.16309 101.187 8.77486 101.187 10.9022C101.187 12.0636 100.892 13.0893 100.301 13.9793C99.7109 14.8583 98.8886 15.5041 97.8368 15.9166C99.0394 16.2205 99.984 16.8338 100.671 17.7563C101.369 18.6789 101.718 19.8077 101.718 21.1426C101.718 23.4219 100.999 25.1477 99.56 26.3199C98.1213 27.4921 96.0704 28.089 93.4075 28.1108H84.2911ZM89.1231 17.7888V24.1871H93.2625C94.4007 24.1871 95.2866 23.9158 95.9201 23.3731C96.5643 22.8195 96.8864 22.0597 96.8864 21.0938C96.8864 18.9231 95.7751 17.8214 93.5525 17.7888H89.1231ZM89.1231 14.3374H92.6988C95.1362 14.294 96.3549 13.3117 96.3549 11.3906C96.3549 10.3161 96.0436 9.54547 95.4207 9.07877C94.8088 8.60121 93.837 8.36242 92.5055 8.36242H89.1231V14.3374Z"
      fill="white" />
    <path
      d="M104.328 19.1405C104.328 17.393 104.66 15.8355 105.326 14.4679C105.992 13.1004 106.948 12.0421 108.193 11.2933C109.45 10.5444 110.904 10.1699 112.558 10.1699C114.91 10.1699 116.827 10.8971 118.308 12.3515C119.8 13.8059 120.633 15.7813 120.805 18.2776L120.837 19.4823C120.837 22.1849 120.09 24.3557 118.599 25.9946C117.106 27.6227 115.103 28.4367 112.59 28.4367C110.078 28.4367 108.07 27.6227 106.566 25.9946C105.074 24.3665 104.328 22.1524 104.328 19.3521V19.1405ZM108.983 19.4823C108.983 21.1538 109.294 22.4345 109.916 23.3246C110.539 24.2037 111.431 24.6434 112.59 24.6434C113.718 24.6434 114.599 24.2091 115.232 23.3408C115.866 22.4618 116.182 21.0616 116.182 19.1405C116.182 17.5016 115.866 16.2317 115.232 15.3308C114.599 14.43 113.707 13.9796 112.558 13.9796C111.42 13.9796 110.539 14.43 109.916 15.3308C109.294 16.2208 108.983 17.6047 108.983 19.4823Z"
      fill="white" />
    <path
      d="M122.979 19.1405C122.979 17.393 123.312 15.8355 123.978 14.4679C124.643 13.1004 125.599 12.0421 126.845 11.2933C128.101 10.5444 129.556 10.1699 131.21 10.1699C133.561 10.1699 135.478 10.8971 136.96 12.3515C138.453 13.8059 139.285 15.7813 139.456 18.2776L139.489 19.4823C139.489 22.1849 138.742 24.3557 137.25 25.9946C135.757 27.6227 133.754 28.4367 131.241 28.4367C128.729 28.4367 126.721 27.6227 125.218 25.9946C123.725 24.3665 122.979 22.1524 122.979 19.3521V19.1405ZM127.634 19.4823C127.634 21.1538 127.945 22.4345 128.568 23.3246C129.191 24.2037 130.082 24.6434 131.241 24.6434C132.369 24.6434 133.25 24.2091 133.884 23.3408C134.517 22.4618 134.833 21.0616 134.833 19.1405C134.833 17.5016 134.517 16.2317 133.884 15.3308C133.25 14.43 132.358 13.9796 131.21 13.9796C130.071 13.9796 129.191 14.43 128.568 15.3308C127.945 16.2208 127.634 17.6047 127.634 19.4823Z"
      fill="white" />
    <path
      d="M151.793 23.2432C151.793 22.6679 151.509 22.2175 150.94 21.8919C150.381 21.5555 149.479 21.2569 148.234 20.9965C144.089 20.1173 142.017 18.3373 142.017 15.6565C142.017 14.0935 142.656 12.791 143.933 11.7491C145.222 10.6963 146.903 10.1699 148.975 10.1699C151.187 10.1699 152.954 10.6963 154.274 11.7491C155.606 12.8019 156.271 14.1695 156.271 15.8518H151.617C151.617 15.1789 151.402 14.6254 150.972 14.1912C150.543 13.7462 149.872 13.5237 148.959 13.5237C148.175 13.5237 147.569 13.7027 147.139 14.0609C146.71 14.4191 146.495 14.8749 146.495 15.4285C146.495 15.9495 146.736 16.3728 147.219 16.6984C147.713 17.0131 148.54 17.2899 149.7 17.5287C150.86 17.7566 151.837 18.0171 152.631 18.3102C155.09 19.2219 156.32 20.8011 156.32 23.0478C156.32 24.6542 155.637 25.9566 154.274 26.9552C152.91 27.9428 151.149 28.4367 148.991 28.4367C147.531 28.4367 146.232 28.1762 145.094 27.6552C143.966 27.1234 143.08 26.4016 142.436 25.4899C141.792 24.5673 141.469 23.5742 141.469 22.5106H145.883C145.926 23.3463 146.232 23.9867 146.8 24.4317C147.369 24.8766 148.132 25.0992 149.088 25.0992C149.979 25.0992 150.65 24.931 151.101 24.5945C151.563 24.2472 151.793 23.7967 151.793 23.2432Z"
      fill="white" />
    <path
      d="M164.904 6.16406V10.4947H167.884V13.9461H164.904V22.7377C164.904 23.3889 165.028 23.8556 165.275 24.1378C165.522 24.42 165.994 24.5611 166.692 24.5611C167.207 24.5611 167.664 24.5231 168.061 24.4471V28.0126C167.148 28.2948 166.209 28.4358 165.242 28.4358C161.978 28.4358 160.314 26.7698 160.25 23.4377V13.9461H157.705V10.4947H160.25V6.16406H164.904Z"
      fill="white" />
    <path
      d="M175.39 28.1107H170.718V10.4951H175.39V28.1107ZM170.445 5.93654C170.445 5.23105 170.676 4.65038 171.137 4.19452C171.61 3.73867 172.249 3.51074 173.054 3.51074C173.849 3.51074 174.483 3.73867 174.955 4.19452C175.427 4.65038 175.664 5.23105 175.664 5.93654C175.664 6.65289 175.422 7.23899 174.938 7.69484C174.466 8.1507 173.838 8.37863 173.054 8.37863C172.27 8.37863 171.637 8.1507 171.153 7.69484C170.681 7.23899 170.445 6.65289 170.445 5.93654Z"
      fill="white" />
    <path
      d="M183.524 10.4955L183.669 12.5306C184.914 10.9568 186.584 10.1699 188.677 10.1699C190.524 10.1699 191.898 10.718 192.801 11.8143C193.703 12.9104 194.164 14.5494 194.186 16.731V28.1111H189.531V16.8449C189.531 15.8464 189.316 15.1246 188.887 14.6796C188.457 14.2237 187.744 13.9959 186.745 13.9959C185.435 13.9959 184.453 14.5602 183.797 15.689V28.1111H179.142V10.4955H183.524Z"
      fill="white" />
    <path
      d="M197.053 19.1731C197.053 16.4705 197.687 14.2943 198.954 12.6445C200.232 10.9948 201.949 10.1699 204.107 10.1699C206.019 10.1699 207.506 10.832 208.569 12.1561L208.762 10.4955H212.982V27.525C212.982 29.0662 212.634 30.4067 211.936 31.5462C211.249 32.6859 210.276 33.5542 209.02 34.1512C207.764 34.7481 206.293 35.0466 204.607 35.0466C203.329 35.0466 202.083 34.7861 200.87 34.2652C199.657 33.755 198.739 33.0929 198.116 32.2789L200.177 29.4135C201.337 30.7268 202.744 31.3834 204.397 31.3834C205.633 31.3834 206.593 31.047 207.28 30.374C207.967 29.712 208.311 28.7677 208.311 27.5412V26.597C207.238 27.8234 205.826 28.4367 204.076 28.4367C201.982 28.4367 200.285 27.6118 198.985 25.9621C197.697 24.3014 197.053 22.1036 197.053 19.3685V19.1731ZM201.708 19.515C201.708 21.1104 202.024 22.3641 202.658 23.2758C203.292 24.1766 204.162 24.6271 205.267 24.6271C206.685 24.6271 207.699 24.0897 208.311 23.0153V15.6076C207.688 14.5331 206.685 13.9959 205.299 13.9959C204.183 13.9959 203.302 14.4571 202.658 15.3796C202.024 16.3023 201.708 17.6806 201.708 19.515Z"
      fill="white" />
    <path
      d="M99.6725 52.8079C99.6725 55.5213 99.0612 57.6975 97.8368 59.3364C96.6234 60.9645 94.9806 61.7785 92.9082 61.7785C91.1472 61.7785 89.7245 61.1598 88.64 59.9225V68.2255H83.9852V43.8373H88.3018L88.4628 45.5631C89.5903 44.1955 91.0613 43.5117 92.876 43.5117C95.0235 43.5117 96.6932 44.3149 97.8851 45.9212C99.0769 47.5276 99.6725 49.7417 99.6725 52.5637V52.8079ZM95.0181 52.466C95.0181 50.8271 94.7282 49.5626 94.1484 48.6726C93.5793 47.7826 92.7471 47.3377 91.6519 47.3377C90.1915 47.3377 89.1876 47.902 88.64 49.0308V56.2431C89.209 57.4044 90.2238 57.9852 91.6842 57.9852C93.9068 57.9852 95.0181 56.1454 95.0181 52.466Z"
      fill="white" />
    <path
      d="M110.593 61.7785C108.037 61.7785 105.955 60.9862 104.344 59.4016C102.744 57.8169 101.944 55.7059 101.944 53.0684V52.6126C101.944 50.8434 102.282 49.2642 102.959 47.8749C103.635 46.4748 104.59 45.4002 105.826 44.6514C107.071 43.8916 108.489 43.5117 110.078 43.5117C112.461 43.5117 114.335 44.2715 115.699 45.7909C117.073 47.3105 117.76 49.4649 117.76 52.2544V54.1755H106.663C106.814 55.326 107.264 56.2485 108.016 56.9431C108.779 57.6378 109.74 57.9852 110.899 57.9852C112.693 57.9852 114.094 57.3284 115.103 56.0151L117.39 58.6037C116.692 59.6023 115.747 60.3838 114.555 60.9482C113.363 61.5017 112.043 61.7785 110.593 61.7785ZM110.061 47.3213C109.138 47.3213 108.386 47.6361 107.806 48.2656C107.237 48.8952 106.873 49.796 106.711 50.9682H113.187V50.5937C113.165 49.5518 112.886 48.7487 112.349 48.1842C111.812 47.609 111.049 47.3213 110.061 47.3213Z"
      fill="white" />
    <path
      d="M119.693 52.4823C119.693 50.7348 120.026 49.1773 120.692 47.8097C121.357 46.4422 122.314 45.3839 123.559 44.635C124.815 43.8862 126.27 43.5117 127.924 43.5117C130.275 43.5117 132.192 44.2389 133.674 45.6933C135.166 47.1477 135.998 49.123 136.17 51.6194L136.202 52.8241C136.202 55.5267 135.456 57.6975 133.963 59.3364C132.471 60.9645 130.468 61.7785 127.956 61.7785C125.443 61.7785 123.436 60.9645 121.932 59.3364C120.439 57.7083 119.693 55.4942 119.693 52.6939V52.4823ZM124.348 52.8241C124.348 54.4956 124.659 55.7763 125.282 56.6664C125.905 57.5455 126.797 57.9852 127.956 57.9852C129.083 57.9852 129.963 57.5509 130.597 56.6826C131.231 55.8036 131.548 54.4034 131.548 52.4823C131.548 50.8434 131.231 49.5735 130.597 48.6726C129.963 47.7718 129.072 47.3213 127.924 47.3213C126.786 47.3213 125.905 47.7718 125.282 48.6726C124.659 49.5626 124.348 50.9465 124.348 52.8241Z"
      fill="white" />
    <path
      d="M154.757 52.8079C154.757 55.5213 154.145 57.6975 152.921 59.3364C151.708 60.9645 150.065 61.7785 147.992 61.7785C146.232 61.7785 144.809 61.1598 143.724 59.9225V68.2255H139.07V43.8373H143.386L143.547 45.5631C144.675 44.1955 146.146 43.5117 147.96 43.5117C150.108 43.5117 151.778 44.3149 152.97 45.9212C154.162 47.5276 154.757 49.7417 154.757 52.5637V52.8079ZM150.102 52.466C150.102 50.8271 149.813 49.5626 149.233 48.6726C148.664 47.7826 147.832 47.3377 146.736 47.3377C145.276 47.3377 144.272 47.902 143.724 49.0308V56.2431C144.293 57.4044 145.308 57.9852 146.768 57.9852C148.991 57.9852 150.102 56.1454 150.102 52.466Z"
      fill="white" />
    <path d="M162.569 61.4532H157.898V36.4463H162.569V61.4532Z" fill="white" />
    <path
      d="M174.439 61.7785C171.884 61.7785 169.8 60.9862 168.19 59.4016C166.59 57.8169 165.791 55.7059 165.791 53.0684V52.6126C165.791 50.8434 166.129 49.2642 166.805 47.8749C167.482 46.4748 168.437 45.4002 169.672 44.6514C170.918 43.8916 172.334 43.5117 173.924 43.5117C176.308 43.5117 178.181 44.2715 179.546 45.7909C180.92 47.3105 181.607 49.4649 181.607 52.2544V54.1755H170.509C170.659 55.326 171.111 56.2485 171.862 56.9431C172.624 57.6378 173.586 57.9852 174.745 57.9852C176.538 57.9852 177.939 57.3284 178.949 56.0151L181.236 58.6037C180.538 59.6023 179.594 60.3838 178.402 60.9482C177.21 61.5017 175.889 61.7785 174.439 61.7785ZM173.908 47.3213C172.984 47.3213 172.233 47.6361 171.653 48.2656C171.084 48.8952 170.718 49.796 170.558 50.9682H177.032V50.5937C177.011 49.5518 176.732 48.7487 176.195 48.1842C175.658 47.609 174.896 47.3213 173.908 47.3213Z"
      fill="white" />
  </g>
  <defs>
    <clipPath id="clip0_2_1653">
      <rect width="212.963" height="68.03" fill="white" transform="translate(0.0183105 0.219727)" />
    </clipPath>
  </defs>
</svg>