<svg width="93" height="19" viewBox="0 0 93 19" fill="none" xmlns="http://www.w3.org/2000/svg">
  <path
    d="M11.655 12.65C12.251 12.1393 12.64 11.468 12.823 10.637H18.711C18.442 13.0123 17.464 14.9353 15.78 16.4075C14.095 17.8798 12.02 18.6162 9.55704 18.6162C7.76104 18.6162 6.14402 18.23 4.70602 17.4583C3.26802 16.6865 2.14504 15.614 1.33904 14.2408C0.532035 12.8675 0.129028 11.3263 0.129028 9.61625C0.129028 7.90625 0.532035 6.36495 1.33904 4.99175C2.14504 3.61845 3.26802 2.54595 4.70602 1.77425C6.14402 1.00171 7.76104 0.616211 9.55704 0.616211C11.981 0.616211 14.027 1.32646 15.696 2.74775C17.364 4.16825 18.35 6.03045 18.652 8.33375H12.848C12.602 7.57395 12.181 6.96275 11.584 6.49925C10.989 6.03645 10.321 5.80475 9.58203 5.80475C8.56503 5.80475 7.74403 6.15495 7.12103 6.85545C6.49603 7.55595 6.18503 8.47625 6.18503 9.61545C6.18503 10.748 6.49904 11.6645 7.12604 12.365C7.75504 13.0655 8.57203 13.415 9.58203 13.415C10.369 13.415 11.06 13.16 11.656 12.65H11.655ZM32.554 7.96995C33.697 9.04245 34.269 10.4299 34.269 12.1302C34.269 14.0743 33.612 15.6417 32.295 16.8312C30.978 18.0215 29.244 18.6162 27.09 18.6162C24.961 18.6162 23.231 18.0192 21.898 16.8252C20.564 15.6304 19.897 14.0833 19.897 12.1805C19.897 11.1418 20.081 10.0963 20.446 9.04475C20.812 7.99325 21.378 6.84275 22.144 5.59475L24.85 1.19221L30.569 1.19146L27.367 6.38595C27.687 6.36945 27.939 6.36125 28.124 6.36125C29.933 6.36125 31.409 6.89745 32.554 7.96995ZM28.693 13.7263C29.104 13.316 29.311 12.7843 29.311 12.1302C29.311 11.4769 29.104 10.9408 28.693 10.5215C28.28 10.1023 27.746 9.89295 27.09 9.89295C26.434 9.89295 25.899 10.103 25.488 10.5215C25.075 10.9408 24.869 11.4769 24.869 12.1302C24.869 12.7843 25.075 13.316 25.487 13.7263C25.899 14.1373 26.434 14.3427 27.09 14.3427C27.746 14.3427 28.28 14.1373 28.692 13.7263H28.693ZM44.991 8.83625C47.023 9.42425 48.306 11.183 48.306 13.4563C48.306 14.7125 47.863 15.8038 46.989 16.7C46.12 17.5895 45.031 18.041 43.751 18.041H38.211C38.201 18.0409 38.191 18.0389 38.181 18.035C38.172 18.031 38.163 18.0253 38.156 18.0182C38.149 18.0112 38.143 18.0027 38.14 17.9935C38.136 17.9842 38.134 17.9745 38.134 17.9645V1.26796C38.134 1.22596 38.168 1.19146 38.211 1.19146H43.091C44.277 1.19146 45.256 1.57921 45.999 2.34495C46.762 3.07995 47.152 4.06245 47.152 5.26025C47.152 6.86675 46.337 8.19125 44.991 8.83625ZM46.524 16.2703C47.303 15.494 47.682 14.5738 47.682 13.4555C47.682 12.2135 47.293 11.1958 46.527 10.4323C45.733 9.64245 44.756 9.25775 43.538 9.25775H38.759V17.4184H43.75C44.848 17.4184 45.782 17.0316 46.524 16.2703ZM38.758 1.81395V8.63595H43.091C44.104 8.63595 44.934 8.31945 45.56 7.69625C46.202 7.05725 46.527 6.23745 46.527 5.26025C46.527 3.23075 45.114 1.81395 43.091 1.81395H38.759H38.758ZM92.114 17.9202C92.123 17.9314 92.128 17.9447 92.129 17.9585C92.13 17.9725 92.127 17.9862 92.121 17.9986C92.114 18.011 92.104 18.0215 92.092 18.0289C92.08 18.0361 92.066 18.04 92.052 18.0402H91.471C91.459 18.0403 91.446 18.0374 91.435 18.0318C91.424 18.0261 91.415 18.018 91.407 18.0079L85.198 9.33425L82.456 12.4888V17.9637C82.456 17.9737 82.454 17.9837 82.45 17.993C82.447 18.0023 82.441 18.0108 82.434 18.018C82.427 18.0252 82.418 18.0309 82.409 18.0349C82.4 18.0388 82.389 18.0409 82.379 18.041H81.918C81.907 18.0409 81.897 18.0389 81.888 18.035C81.879 18.031 81.87 18.0253 81.863 18.0182C81.856 18.0112 81.85 18.0027 81.847 17.9935C81.843 17.9842 81.841 17.9745 81.841 17.9645V1.26796C81.841 1.22596 81.875 1.19146 81.918 1.19146H82.379C82.421 1.19146 82.456 1.22596 82.456 1.26796V11.561L91.362 1.21846C91.369 1.21003 91.378 1.20325 91.389 1.19859C91.399 1.19392 91.41 1.19149 91.421 1.19146H92.032C92.074 1.19146 92.109 1.22596 92.109 1.26796C92.109 1.28671 92.101 1.30396 92.091 1.31746L85.611 8.84145L92.114 17.9202ZM77.942 1.19146C77.985 1.19146 78.019 1.22596 78.019 1.26796V17.9645C78.019 17.9745 78.017 17.9842 78.014 17.9935C78.01 18.0027 78.004 18.0112 77.997 18.0182C77.99 18.0253 77.981 18.031 77.972 18.035C77.963 18.0389 77.953 18.0409 77.942 18.041H77.73C77.718 18.041 77.706 18.0381 77.695 18.0327C77.684 18.0272 77.675 18.0192 77.668 18.0094L66.49 2.55945V17.9645C66.49 17.9745 66.488 17.9842 66.484 17.9935C66.481 18.0027 66.475 18.0112 66.468 18.0182C66.461 18.0253 66.452 18.031 66.443 18.035C66.434 18.0389 66.424 18.0409 66.413 18.041H65.943C65.932 18.0409 65.922 18.0389 65.913 18.035C65.904 18.031 65.895 18.0253 65.888 18.0182C65.881 18.0112 65.875 18.0027 65.872 17.9935C65.868 17.9842 65.866 17.9745 65.866 17.9645V1.26796C65.866 1.22596 65.9 1.19146 65.943 1.19146H66.242C66.254 1.19163 66.265 1.19457 66.276 1.20004C66.287 1.20552 66.296 1.21337 66.303 1.22296L77.394 16.553V1.26871C77.394 1.22671 77.429 1.19221 77.471 1.19221L77.942 1.19146ZM63.086 17.9375C63.091 17.9489 63.092 17.9614 63.091 17.9737C63.09 17.986 63.085 17.9977 63.078 18.0079C63.071 18.0181 63.061 18.0265 63.05 18.0322C63.039 18.038 63.027 18.041 63.014 18.041H62.525C62.509 18.0409 62.493 18.0358 62.48 18.0267C62.468 18.0175 62.458 18.0048 62.453 17.99L60.496 12.8278H52.521L50.565 17.9915C50.559 18.006 50.55 18.0185 50.537 18.0274C50.524 18.0362 50.509 18.041 50.493 18.041H50.003C49.99 18.0409 49.978 18.0378 49.967 18.032C49.955 18.0261 49.946 18.0177 49.939 18.0074C49.932 17.9971 49.928 17.9853 49.926 17.9729C49.925 17.9606 49.927 17.9482 49.932 17.9368L56.287 1.24096C56.293 1.22646 56.302 1.21393 56.315 1.20508C56.328 1.19622 56.344 1.19146 56.359 1.19146H56.657C56.673 1.19136 56.688 1.19616 56.701 1.20517C56.714 1.21418 56.724 1.22695 56.73 1.24171L63.085 17.9375H63.086ZM52.75 12.2053H60.268L56.51 2.39295L52.751 12.2053H52.75Z"
    fill="#E1E1E6" />
</svg>