<svg width="60" height="62" viewBox="0 0 60 62" fill="none" xmlns="http://www.w3.org/2000/svg">
<g clip-path="url(#clip0_357_104)">
<g clip-path="url(#clip1_357_104)">
<g clip-path="url(#clip2_357_104)">
<path opacity="0.3" d="M51.2106 52.0697C39.5776 63.7275 20.7174 63.8017 8.98539 52.2925C17.277 60.3861 30.5682 60.3118 38.7856 52.0945C47.0524 43.8029 47.0524 30.3631 38.7608 22.0962C30.4692 13.8046 17.0295 13.8294 8.76263 22.121C0.570058 30.3136 0.520555 43.5801 8.58938 51.8717C-2.91983 40.1397 -2.84558 21.3289 8.78738 9.67124C20.4946 -2.06076 39.4786 -2.06076 51.2106 9.64649C62.9178 21.3537 62.9178 40.3625 51.2106 52.0697Z" fill="#4863F7"/>
<path opacity="0.6" d="M38.7862 52.0708C30.5689 60.2882 17.2776 60.3624 8.98597 52.2688C8.91172 52.1946 8.86222 52.1451 8.78797 52.0708L8.76322 52.0461C13.6392 56.8973 21.51 56.8973 26.3859 52.0461C31.2371 47.1701 31.2371 39.2993 26.3859 34.4233C21.51 29.5969 13.6144 29.5969 8.76322 34.4481C3.93677 39.2745 3.91201 47.0711 8.66421 51.9471C8.66421 51.9471 8.66421 51.9471 8.63946 51.9223C8.63946 51.9223 8.63946 51.9223 8.61471 51.8976L8.58996 51.8728L8.56521 51.8481C0.521122 43.5812 0.570624 30.3147 8.78797 22.0973C17.0796 13.8057 30.4946 13.8057 38.7862 22.0726C47.0778 30.3642 47.0778 43.804 38.7862 52.0708Z" fill="#4863F7"/>
<path opacity="0.4" d="M8.76061 52.0689C8.7115 52.0198 8.66239 51.9707 8.61328 51.9216L8.63784 51.9461C8.68695 51.9952 8.73605 52.0444 8.76061 52.0689Z" fill="#4863F7"/>
<path d="M26.3868 52.0698C21.5356 56.9458 13.64 56.9458 8.76405 52.0698C8.71455 52.0203 8.68979 51.9956 8.64029 51.9461C3.8881 47.0701 3.91285 39.2735 8.7393 34.447C13.5905 29.5711 21.4861 29.5711 26.362 34.447C31.2379 39.2982 31.2379 47.1938 26.3868 52.0698Z" fill="#4863F7"/>
</g>
</g>
</g>
<defs>
<clipPath id="clip0_357_104">
<rect width="60" height="61" fill="white" transform="translate(0 0.0600586)"/>
</clipPath>
<clipPath id="clip1_357_104">
<rect width="60" height="61" fill="white" transform="translate(0 0.0600586)"/>
</clipPath>
<clipPath id="clip2_357_104">
<rect width="60" height="61" fill="white" transform="translate(0 0.0600586)"/>
</clipPath>
</defs>
</svg>
