<svg width="93" height="27" viewBox="0 0 93 27" fill="none" xmlns="http://www.w3.org/2000/svg">
  <path
    d="M13.719 0.418701C6.46304 0.418701 0.552734 6.33765 0.552734 13.6054C0.552734 20.8989 6.46304 26.8136 13.719 26.8136C20.976 26.8136 26.907 20.8946 26.907 13.6054C26.907 6.33765 20.97 0.418701 13.719 0.418701ZM22.716 19.8465C19.84 20.1687 16.726 20.2439 13.719 20.2439C10.712 20.2439 7.59704 20.1644 4.69504 19.8465C3.87654 19.7681 3.45514 19.5566 3.34904 18.6846C3.19144 17.0191 3.19144 15.3278 3.19144 13.6108C3.19144 11.9195 3.19144 10.2282 3.34904 8.56375C3.45624 7.69175 3.87654 7.48025 4.69504 7.40075C7.59704 7.07865 10.711 7.00455 13.719 7.00455C16.728 7.00455 19.84 7.08395 22.716 7.40185C23.561 7.48025 23.983 7.69175 24.088 8.56375C24.22 10.2293 24.22 11.9206 24.22 13.6108C24.22 15.3289 24.22 17.0191 24.088 18.6846C23.981 19.5566 23.561 19.7681 22.716 19.8465Z"
    fill="#E1E1E6" />
  <path
    d="M8.39204 13.6055C8.39804 12.5511 8.71604 11.5221 9.30504 10.6484C9.89404 9.77469 10.729 9.09529 11.703 8.69609C12.678 8.29679 13.748 8.19549 14.78 8.40499C15.812 8.61449 16.759 9.12529 17.501 9.87309C18.243 10.6208 18.748 11.572 18.951 12.6066C19.154 13.6413 19.047 14.713 18.643 15.6865C18.238 16.6601 17.555 17.492 16.679 18.0772C15.804 18.6623 14.774 18.9746 13.722 18.9747C13.018 18.9767 12.322 18.8389 11.672 18.5694C11.023 18.2999 10.433 17.904 9.93704 17.4047C9.44204 16.9053 9.05004 16.3123 8.78404 15.6602C8.51904 15.008 8.38604 14.3097 8.39204 13.6055Z"
    fill="#E1E1E6" />
  <path
    d="M85.571 16.9233C83.801 16.9233 82.362 15.4822 82.362 13.515C82.362 11.5477 83.801 10.1066 85.571 10.1066C87.341 10.1066 88.781 11.5477 88.781 13.515C88.781 15.4822 87.342 16.9233 85.571 16.9233ZM71.129 16.9233C69.413 16.9233 67.976 15.566 67.976 13.515C67.976 11.4919 69.414 10.1066 71.129 10.1066C72.843 10.1066 74.283 11.4919 74.283 13.515C74.283 15.566 72.844 16.9233 71.129 16.9233ZM56.547 16.9233C54.776 16.9233 53.337 15.4822 53.337 13.515C53.337 11.5477 54.776 10.1066 56.547 10.1066C58.318 10.1066 59.756 11.5477 59.756 13.515C59.756 15.4822 58.317 16.9233 56.547 16.9233ZM36.848 16.8954C35.105 16.8954 33.639 15.5102 33.639 13.4871C33.639 11.4371 35.105 10.0787 36.848 10.0787C38.592 10.0787 40.029 11.4371 40.029 13.4871C40.029 15.5102 38.59 16.8954 36.848 16.8954ZM85.569 6.86474C82.001 6.86474 79.013 9.66314 79.013 13.515C79.013 17.3668 81.943 20.1684 85.571 20.1684C89.14 20.1684 92.128 17.37 92.128 13.5182C92.128 9.66644 89.196 6.86804 85.571 6.86804L85.569 6.86474ZM56.549 6.86804C52.98 6.86804 49.992 9.66644 49.992 13.5182C49.992 17.37 52.924 20.1684 56.549 20.1684C60.118 20.1684 63.106 17.37 63.106 13.5182C63.106 9.66644 60.173 6.86804 56.549 6.86804ZM40.807 7.08924C40.392 7.08924 40.143 7.33944 40.143 7.75494V8.47554C39.392 7.56064 38.013 6.86474 36.628 6.86474C33.253 6.86474 30.349 9.74694 30.349 13.515C30.349 17.2831 33.087 19.8882 36.546 19.8882C37.188 19.8919 37.823 19.7635 38.414 19.5108C39.004 19.2581 39.536 18.8865 39.977 18.4192C39.949 21.0522 38.566 22.2431 36.186 22.2431C34.914 22.2431 33.72 21.8554 32.341 20.9684C31.98 20.7193 31.566 20.8031 31.376 21.1907L30.545 22.8251C30.352 23.2138 30.407 23.5768 30.795 23.8227C32.51 24.9309 34.529 25.4861 36.272 25.4861C40.838 25.4861 43.355 23.0162 43.355 17.3389V7.75174C43.355 7.33614 43.106 7.08594 42.692 7.08594L40.807 7.08924ZM71.517 6.86804C70.207 6.87724 68.953 7.40534 68.03 8.33704V2.45884C68.03 2.04327 67.782 1.79414 67.367 1.79414H65.324C64.908 1.79414 64.659 2.04327 64.659 2.45884V19.2782C64.659 19.6938 64.908 19.944 65.324 19.944H67.177C67.593 19.944 67.842 19.6938 67.842 19.2782V18.5577C68.644 19.4726 70.138 20.1684 71.604 20.1684C74.841 20.1684 77.635 17.2315 77.635 13.5182C77.635 9.75014 74.813 6.86804 71.523 6.86804H71.517ZM46.434 1.68676C45.632 1.32595 45.079 1.68676 45.079 2.57267V19.1676C45.079 20.0546 45.632 20.4144 46.434 20.0546L47.486 19.5832C48.15 19.2782 48.451 18.8315 48.451 18.1153V3.61858C48.451 2.89804 48.147 2.45455 47.486 2.14958L46.434 1.68676Z"
    fill="#E1E1E6" />
</svg>