<svg width="57" height="31" viewBox="0 0 57 31" fill="none" xmlns="http://www.w3.org/2000/svg">
  <path
    d="M0 17.8304H4.30427L6.69553 5.93387H2.39126L0 17.8304ZM3.28798 4.85781H8.36942L9.20636 0.673096H4.12493L3.28798 4.85781ZM5.97816 21.1782H10.2824L12.9128 8.3251H16.141L16.6193 5.93387H13.4508L13.5704 5.39584C13.7498 4.37955 14.1084 3.2437 15.7225 3.2437C16.6791 3.2437 17.5758 3.30348 18.4725 3.72195L18.9508 1.21113C17.9345 0.852436 16.8584 0.673096 15.8421 0.673096C12.3748 0.673096 9.98352 2.70567 9.0868 5.93387H7.59226L7.114 8.3251H8.60854L5.97816 21.1782Z"
    fill="#E1E1E6" />
  <path
    d="M19.6078 18.0694C24.6892 18.0694 28.2163 13.4662 28.2163 9.7C28.2163 6.89026 25.6457 5.69463 23.1349 5.69463C17.5752 5.69463 14.5263 10.6565 14.5263 14.064C14.5263 16.8738 17.1567 18.0694 19.6078 18.0694ZM33.238 18.0694C38.3194 18.0694 41.8465 13.4662 41.8465 9.7C41.8465 6.89026 39.2161 5.69463 36.7053 5.69463C31.1456 5.69463 28.0967 10.6565 28.0967 14.064C28.0967 16.8738 30.7869 18.0694 33.238 18.0694ZM48.8409 17.8303H53.0854L56.5528 0.912109H52.2485L51.2322 5.93376L49.4388 5.75441C45.2541 5.75441 41.428 11.1347 41.428 14.9608C41.428 16.5151 42.4443 18.0694 44.178 18.0694C46.629 18.0694 48.3627 16.8738 49.0801 15.6781H49.3192L48.8409 17.8303ZM35.5694 26.7377C32.2284 29.5057 27.9374 30.8573 23.6131 30.504C17.9339 30.1453 13.8687 25.7812 13.1514 21.178H13.3905C14.7057 24.0476 17.8741 26.7377 21.7599 27.1562C25.7055 27.6344 30.4282 25.841 32.9988 23.39L30.1293 21.178H38.7976L36.8846 30.3844L35.6292 26.7975L35.5694 26.7377Z"
    fill="#E1E1E6" />
</svg>