<svg width="98" height="25" viewBox="0 0 98 25" fill="none" xmlns="http://www.w3.org/2000/svg">
  <path
    d="M35.914 11.8045C35.861 5.38615 27.911 0.223391 18.146 0.223391H17.914C14.753 0.222101 11.62 0.81579 8.67804 1.97347C3.73404 3.94667 0.365028 7.44685 0.129028 11.4589C0.129028 11.5727 0.129028 11.6821 0.129028 11.7914C0.129028 11.9008 0.129028 11.892 0.129028 11.9402V11.9927C0.129028 12.0233 0.129028 12.0583 0.129028 12.0889V12.6227C0.129028 12.6227 0.129028 12.6664 0.129028 12.6926V12.7715C0.129028 12.8632 0.129028 12.9552 0.129028 13.0427C0.129028 13.1301 0.129028 13.209 0.129028 13.2878C0.321028 16.486 2.05403 19.3867 5.05103 21.5086C8.31003 23.8144 12.729 25.0089 17.84 25.0089H18.115C23.365 24.965 27.872 23.6744 31.14 21.2768C34.247 18.993 35.953 15.8603 35.918 12.4564L35.914 11.8045Z"
    fill="#8D8D99" />
  <path
    d="M16.26 16.7966C16.42 16.7298 16.59 16.69 16.763 16.6785C16.953 16.6435 17.148 16.6506 17.334 16.6993C17.52 16.748 17.694 16.8371 17.842 16.9603C17.99 17.0834 18.109 17.2376 18.191 17.412C18.272 17.5864 18.315 17.7767 18.315 17.9692C18.315 18.1618 18.272 18.352 18.191 18.5264C18.109 18.7008 17.99 18.855 17.842 18.9782C17.694 19.1014 17.52 19.1905 17.334 19.2391C17.148 19.2878 16.953 19.2949 16.763 19.2599C16.433 19.2625 16.114 19.1367 15.874 18.9091C15.634 18.6814 15.492 18.3696 15.477 18.0392C15.477 17.7461 15.306 17.7023 15.215 17.7023C15.168 17.7053 15.123 17.7177 15.082 17.7388C15.04 17.7598 15.004 17.7891 14.974 17.8249C14.819 17.9914 14.606 18.093 14.379 18.1092C14.237 18.1088 14.097 18.079 13.968 18.0217C13.747 17.9631 13.555 17.8259 13.427 17.6359C13.3 17.4458 13.246 17.2159 13.276 16.9892C13.288 16.9444 13.288 16.8975 13.278 16.8526C13.267 16.8075 13.246 16.7658 13.215 16.7311C13.174 16.6948 13.124 16.6705 13.071 16.6611C13.029 16.656 12.987 16.6597 12.948 16.6718C12.908 16.6838 12.871 16.704 12.839 16.7311C12.657 16.8863 12.436 16.9879 12.2 17.0242C12.085 17.0204 11.972 16.9998 11.863 16.963C11.551 16.8647 11.286 16.6554 11.119 16.3747C10.951 16.0941 10.892 15.7616 10.953 15.4404C10.966 15.3952 10.965 15.3473 10.95 15.3028C10.936 15.2582 10.908 15.2192 10.87 15.191C10.756 15.121 10.647 15.226 10.577 15.296C10.498 15.3738 10.402 15.4324 10.296 15.4673C10.191 15.5022 10.079 15.5124 9.96899 15.4973C9.70599 15.4784 9.45799 15.3638 9.27399 15.1752C9.08899 14.9866 8.98001 14.737 8.96701 14.4734C8.96601 14.3447 8.98999 14.2171 9.03799 14.0977C9.08599 13.9784 9.15799 13.8697 9.24799 13.7779C9.33799 13.686 9.44499 13.6129 9.56399 13.5626C9.68199 13.5123 9.80899 13.4858 9.93799 13.4847C10.164 13.4558 10.392 13.5132 10.577 13.6454C10.762 13.7777 10.89 13.975 10.936 14.1978C10.936 14.1978 10.936 14.2372 10.936 14.2591C10.936 14.2809 10.962 14.456 11.063 14.4866C11.163 14.5172 11.246 14.4166 11.294 14.3422C11.304 14.3244 11.315 14.3082 11.329 14.294L11.36 14.2547C11.482 14.0786 11.651 13.9397 11.847 13.8532C12.043 13.7667 12.259 13.7361 12.471 13.7647C12.619 13.7682 12.766 13.7902 12.909 13.8303C13.116 13.9041 13.294 14.0437 13.415 14.2276C13.535 14.4117 13.593 14.6301 13.578 14.8497C13.577 14.914 13.601 14.9761 13.645 15.0227C13.69 15.0694 13.75 15.0968 13.815 15.0991C13.854 15.0962 13.893 15.0854 13.928 15.0673C13.963 15.0493 13.995 15.0244 14.02 14.9941C14.113 14.8797 14.228 14.7851 14.358 14.716C14.488 14.6468 14.63 14.6045 14.777 14.5916C14.969 14.5932 15.158 14.6349 15.333 14.7141C16.273 15.1078 15.849 16.311 15.845 16.3242C15.788 16.4641 15.696 16.7005 15.893 16.8273L15.932 16.8492H16.011C16.083 16.8433 16.154 16.8255 16.221 16.7966H16.26Z"
    fill="#E1E1E6" />
  <path
    d="M34.942 10.4178C32.429 11.004 29.977 11.8242 27.618 12.8678C25.924 11.4153 22.009 8.05516 20.95 7.28946C20.525 6.94046 20.045 6.66666 19.528 6.48006C19.297 6.40776 19.056 6.37226 18.815 6.37506C18.517 6.38466 18.222 6.43776 17.94 6.53256C17.185 6.84906 16.491 7.29306 15.888 7.84506L15.848 7.87576C15.249 8.36136 14.632 8.86016 14.177 8.96516C13.975 9.01356 13.768 9.03856 13.56 9.03956C13.17 9.06966 12.783 8.95606 12.471 8.72006C12.483 8.69306 12.499 8.66806 12.519 8.64576L13.993 7.02696C15.135 5.86746 16.211 4.77376 18.705 4.69495H18.828C19.965 4.72686 21.084 4.98256 22.122 5.44746C23.557 6.14436 25.13 6.50786 26.725 6.51066C28.433 6.47036 30.113 6.05986 31.647 5.30746C33.345 6.77316 34.526 8.51446 34.942 10.4178Z"
    fill="#E1E1E6" />
  <path
    d="M17.923 1.01976H18.146C20.504 1.0129 22.851 1.33391 25.12 1.97355L25.269 2.0173L25.575 2.11356C27.444 2.68755 29.209 3.55601 30.804 4.68616C29.507 5.26777 28.107 5.58457 26.687 5.61807H26.63C25.191 5.60827 23.774 5.27477 22.482 4.64241C21.334 4.1296 20.098 3.84431 18.842 3.80238H18.649C17.127 3.79275 15.652 4.32643 14.489 5.30747C13.788 5.35307 13.095 5.48687 12.428 5.70557C11.972 5.86277 11.496 5.95847 11.015 5.98997H10.525H10.441C8.71704 5.70177 7.02403 5.25207 5.38403 4.64679C8.61303 2.35856 13.163 1.04601 17.923 1.01976Z"
    fill="#505059" />
  <path
    d="M4.57401 5.25928C6.84 6.16488 9.46499 6.80808 10.261 6.85178H10.436C10.62 6.85178 10.808 6.85178 10.996 6.87368C11.564 6.84318 12.125 6.73568 12.663 6.55428C12.887 6.48868 13.101 6.42738 13.324 6.37058L13.293 6.40558L11.797 8.05068C11.668 8.16958 11.578 8.32448 11.538 8.49538C11.498 8.66618 11.511 8.84508 11.574 9.00878C11.668 9.21038 11.821 9.37938 12.011 9.49438C12.52 9.78248 13.098 9.92478 13.683 9.90568C13.907 9.90618 14.13 9.88128 14.348 9.83128C15 9.67818 15.66 9.14008 16.382 8.56248C16.95 8.06238 17.6 7.66428 18.303 7.38558C18.473 7.34038 18.648 7.31538 18.824 7.31118H18.955C19.49 7.39738 19.991 7.63248 20.399 7.98938C21.584 8.86438 26.651 13.2396 27.237 13.7208C27.334 13.8124 27.41 13.9232 27.461 14.046C27.513 14.1688 27.538 14.3009 27.535 14.434C27.525 14.5608 27.485 14.6833 27.418 14.7914C27.351 14.8995 27.259 14.99 27.15 15.0553C26.954 15.1881 26.725 15.2625 26.489 15.2697C26.291 15.2693 26.098 15.2148 25.929 15.1122L25.789 14.9896C25.321 14.5521 23.899 13.2965 23.313 12.8021C23.209 12.6893 23.067 12.6191 22.914 12.6052C22.871 12.6047 22.827 12.6143 22.788 12.6332C22.748 12.6522 22.714 12.68 22.687 12.7145C22.556 12.8808 22.626 13.1127 22.858 13.3052L25.08 15.4928C25.224 15.6313 25.319 15.8123 25.351 16.0091C25.36 16.1759 25.32 16.3416 25.237 16.4866C25.154 16.6315 25.031 16.7498 24.883 16.8272C24.674 16.9793 24.424 17.066 24.166 17.0766C23.974 17.0767 23.785 17.0221 23.623 16.9191L23.282 16.591C22.709 16.0353 22.114 15.4622 21.676 15.1034C21.57 14.9969 21.432 14.929 21.282 14.9109C21.241 14.9101 21.2 14.9183 21.163 14.9349C21.125 14.9516 21.091 14.9762 21.064 15.0072C21.002 15.0772 20.924 15.2347 21.099 15.4446C21.135 15.4914 21.174 15.5352 21.217 15.576L22.836 17.3654C22.915 17.4493 22.962 17.5582 22.969 17.6733C22.976 17.7883 22.943 17.9023 22.875 17.9954L22.827 18.061C22.779 18.1136 22.731 18.1573 22.687 18.1967C22.481 18.3502 22.23 18.4303 21.974 18.4242C21.908 18.4312 21.842 18.4312 21.777 18.4242C21.593 18.3935 21.541 18.3498 21.523 18.3279L21.471 18.2754C21.012 17.7958 20.527 17.3415 20.018 16.9148C19.918 16.8111 19.785 16.7447 19.642 16.7266C19.599 16.7279 19.558 16.7379 19.519 16.756C19.481 16.7741 19.447 16.7998 19.419 16.8316C19.283 16.9803 19.344 17.2035 19.572 17.4179L20.792 18.7742C20.762 18.8223 20.626 18.9711 20.158 19.0323C20.098 19.0367 20.038 19.0367 19.979 19.0323C19.563 19.0094 19.156 18.8959 18.789 18.6998C18.894 18.4399 18.947 18.162 18.946 17.8816C18.94 17.3179 18.714 16.7788 18.316 16.3797C17.918 15.9807 17.379 15.7534 16.815 15.7465C16.839 15.3631 16.743 14.9818 16.542 14.6545C16.341 14.3273 16.044 14.07 15.691 13.9177C15.415 13.7978 15.117 13.7339 14.816 13.7296C14.621 13.7292 14.428 13.7602 14.243 13.8215C14.013 13.435 13.648 13.1468 13.219 13.0121C12.973 12.9215 12.711 12.8785 12.449 12.8852C12.05 12.8831 11.66 13.0004 11.329 13.2221C11.158 13.0327 10.95 12.8814 10.717 12.7781C10.484 12.6749 10.232 12.6219 9.97699 12.6227C9.52299 12.6247 9.08601 12.7963 8.75201 13.104C8.23101 12.7364 6.48999 11.7214 2.11899 10.7676C1.92199 10.7238 1.49401 10.6057 1.13501 10.5051C1.50201 8.59748 2.70101 6.78618 4.57401 5.25928Z"
    fill="#E1E1E6" />
  <path
    d="M35.09 12.509C35.09 12.6519 35.073 12.7978 35.038 12.9465C34.653 15.4273 32.969 17.7593 30.19 19.5487C26.975 21.6444 22.683 22.8213 18.11 22.8607H17.879C8.54597 22.8607 0.954982 18.048 0.906982 12.0759C0.906982 11.8878 0.906983 11.6777 0.932983 11.4459L1.88297 11.6646C6.18796 12.5834 7.79796 13.5547 8.20096 13.8522C8.12896 14.0529 8.09298 14.2647 8.09598 14.4778C8.09898 14.9641 8.29498 15.4292 8.63998 15.7719C8.98498 16.1145 9.45096 16.3067 9.93796 16.3067C10.021 16.3132 10.104 16.3132 10.187 16.3067C10.274 16.6464 10.444 16.9593 10.681 17.2174C10.919 17.4754 11.216 17.6707 11.548 17.7855C11.862 17.9095 12.205 17.9399 12.536 17.873C12.765 18.3283 13.162 18.6767 13.643 18.8443C13.878 18.936 14.127 18.9835 14.378 18.9843C14.527 18.9744 14.675 18.9449 14.816 18.8968C14.99 19.2632 15.265 19.5727 15.608 19.7895C15.951 20.0063 16.348 20.1215 16.754 20.1218C17.306 20.113 17.834 19.8957 18.233 19.5137C18.76 19.7994 19.345 19.9625 19.944 19.9906C20.036 19.9902 20.128 19.9828 20.219 19.9687C20.459 19.9604 20.695 19.9001 20.909 19.7921C21.124 19.6841 21.312 19.5309 21.462 19.343L21.501 19.2862C21.664 19.3277 21.832 19.3498 22 19.3518C22.429 19.3373 22.842 19.1838 23.177 18.9143C23.503 18.6862 23.744 18.3548 23.859 17.9736H24.144C24.575 17.9638 24.993 17.8268 25.347 17.5799C25.601 17.431 25.815 17.221 25.968 16.9688C26.12 16.7168 26.208 16.4305 26.222 16.136C26.312 16.1426 26.403 16.1426 26.493 16.136C26.896 16.1287 27.289 16.0041 27.622 15.7773C27.847 15.636 28.036 15.4434 28.173 15.2154C28.31 14.9873 28.391 14.73 28.41 14.4648C28.43 14.1406 28.362 13.817 28.213 13.5285C30.43 12.6182 32.717 11.8866 35.051 11.3408C35.051 11.5333 35.086 11.7215 35.086 11.9184C35.086 12.1153 35.104 12.3253 35.09 12.509Z"
    fill="#505059" />
  <path
    d="M96.633 4.51114C95.991 3.70611 95.014 3.30359 93.701 3.30359C92.389 3.30359 91.412 3.70611 90.77 4.51114C90.143 5.33573 89.804 6.34313 89.804 7.37903C89.804 8.41503 90.143 9.42233 90.77 10.2469C91.412 11.0403 92.389 11.437 93.701 11.437C95.014 11.437 95.991 11.0359 96.633 10.2339C97.26 9.40923 97.599 8.40183 97.599 7.36593C97.599 6.33003 97.26 5.32263 96.633 4.49801V4.51114ZM95.04 9.14013C94.874 9.33493 94.667 9.49133 94.434 9.59863C94.202 9.70583 93.949 9.76143 93.693 9.76143C93.437 9.76143 93.184 9.70583 92.951 9.59863C92.718 9.49133 92.511 9.33493 92.345 9.14013C92.038 8.60233 91.877 7.99393 91.877 7.37473C91.877 6.75553 92.038 6.14703 92.345 5.60933C92.511 5.41453 92.718 5.25803 92.951 5.15083C93.184 5.04353 93.437 4.98793 93.693 4.98793C93.949 4.98793 94.202 5.04353 94.434 5.15083C94.667 5.25803 94.874 5.41453 95.04 5.60933C95.347 6.14703 95.509 6.75553 95.509 7.37473C95.509 7.99393 95.347 8.60233 95.04 9.14013Z"
    fill="#E1E1E6" />
  <path
    d="M80.155 3.83729C79.459 3.49479 78.691 3.32377 77.915 3.33853C76.603 3.33853 75.728 3.67541 75.177 4.34919C74.827 4.83125 74.63 5.40755 74.612 6.00305H76.546C76.576 5.74695 76.674 5.50375 76.83 5.29865C76.964 5.17035 77.124 5.07265 77.299 5.01225C77.475 4.95175 77.661 4.93005 77.845 4.94855C78.18 4.92855 78.515 4.99015 78.821 5.12795C78.931 5.19335 79.021 5.28905 79.08 5.40375C79.138 5.51855 79.162 5.64755 79.149 5.77545C79.147 5.90485 79.104 6.03005 79.025 6.13255C78.946 6.23515 78.836 6.30935 78.711 6.34425C78.454 6.43825 78.184 6.49705 77.911 6.51925L77.224 6.60675C76.615 6.65945 76.021 6.82565 75.474 7.09675C75.118 7.30025 74.826 7.59955 74.632 7.96085C74.437 8.32215 74.349 8.73075 74.376 9.14005C74.358 9.45385 74.409 9.76785 74.527 10.0592C74.645 10.3505 74.827 10.6119 75.058 10.8244C75.554 11.22 76.174 11.429 76.809 11.4151C81.184 11.6119 81.127 9.11375 81.184 8.59305V5.71865C81.135 4.79985 80.812 4.16981 80.155 3.83729ZM79.145 8.21245C79.168 8.47255 79.128 8.73435 79.027 8.97525C78.927 9.21615 78.768 9.42885 78.567 9.59505C78.214 9.84415 77.792 9.97715 77.36 9.97565C77.107 9.98155 76.86 9.90125 76.66 9.74815C76.556 9.65595 76.476 9.54045 76.426 9.41105C76.375 9.28175 76.356 9.14245 76.371 9.00435C76.363 8.83285 76.403 8.66245 76.486 8.51245C76.569 8.36245 76.693 8.23885 76.843 8.15565C77.134 8.01815 77.444 7.92665 77.762 7.88435L78.2 7.79685C78.382 7.76745 78.563 7.72215 78.738 7.66115C78.873 7.60945 79.004 7.54505 79.127 7.46865L79.145 8.21245Z"
    fill="#E1E1E6" />
  <path
    d="M70.197 5.05376C70.404 5.03766 70.6119 5.07086 70.8029 5.15076C70.9959 5.23066 71.1659 5.35486 71.2999 5.51316C71.4609 5.74136 71.5649 6.00566 71.6019 6.28316H73.7589C73.6399 5.19816 73.26 4.43684 72.617 4.00807C71.872 3.55089 71.0089 3.32689 70.1359 3.36492C69.6199 3.33658 69.1029 3.41959 68.6209 3.6083C68.1399 3.79702 67.7039 4.08704 67.3449 4.45871C66.6249 5.31096 66.263 6.40836 66.334 7.52136C66.287 8.54436 66.6119 9.54996 67.2479 10.3521C67.8609 11.0828 68.81 11.4459 70.106 11.4459C70.665 11.4814 71.2239 11.3805 71.7349 11.1519C72.2469 10.9232 72.695 10.5737 73.041 10.1333C73.435 9.63826 73.6749 9.03916 73.7319 8.40946H71.5889C71.5609 8.76646 71.428 9.10746 71.208 9.38956C71.073 9.52756 70.908 9.63316 70.726 9.69836C70.544 9.76346 70.35 9.78656 70.158 9.76576C69.85 9.78656 69.5439 9.70476 69.2869 9.53296C69.0309 9.36116 68.8379 9.10916 68.7399 8.81636C68.5849 8.38476 68.513 7.92736 68.53 7.46886C68.513 6.98896 68.5849 6.50996 68.7399 6.05566C68.8379 5.75076 69.033 5.48696 69.297 5.30556C69.561 5.12426 69.877 5.03566 70.197 5.05376Z"
    fill="#E1E1E6" />
  <path
    d="M65.757 3.36487C61.329 3.36487 61.592 7.30249 61.592 7.30249V11.284H63.6V7.54759C63.572 7.08399 63.65 6.62019 63.828 6.19119C64.108 5.66619 64.641 5.40369 65.446 5.40369H65.687C65.783 5.40369 65.893 5.40369 66.024 5.43429V3.38674H65.849L65.757 3.36487Z"
    fill="#E1E1E6" />
  <path
    d="M58.375 9.18394C58.298 9.29864 58.205 9.40184 58.099 9.49024C57.77 9.71614 57.373 9.82274 56.975 9.79204C56.602 9.81434 56.231 9.72614 55.907 9.53834C55.646 9.36464 55.434 9.12644 55.291 8.84664C55.148 8.56694 55.08 8.25504 55.094 7.94134H60.654C60.67 7.43574 60.646 6.92964 60.584 6.42754C60.506 5.86134 60.298 5.32084 59.976 4.84814C59.653 4.35633 59.198 3.96521 58.664 3.71931C58.097 3.47615 57.486 3.35539 56.87 3.36492C56.367 3.34462 55.864 3.42814 55.395 3.6103C54.925 3.79245 54.498 4.06934 54.14 4.42371C53.44 5.12814 53.09 6.13874 53.09 7.46444C53.09 8.87324 53.478 9.89414 54.254 10.527C55.01 11.147 55.962 11.4801 56.94 11.4677C57.471 11.4987 58.003 11.4151 58.499 11.2226C58.995 11.0301 59.443 10.7332 59.814 10.3521C60.141 10.0309 60.381 9.63194 60.51 9.19264L58.375 9.18394ZM55.676 5.44314C55.833 5.29214 56.02 5.17534 56.225 5.10004C56.43 5.02484 56.648 4.99264 56.866 5.00564C57.298 4.99144 57.72 5.13794 58.051 5.41684C58.216 5.57104 58.349 5.75724 58.44 5.96404C58.531 6.17094 58.579 6.39414 58.581 6.62004H55.142C55.191 6.18114 55.378 5.76904 55.676 5.44314Z"
    fill="#E1E1E6" />
  <path
    d="M52.277 11.2664H50.444V6.64614C50.465 6.46064 50.445 6.27274 50.385 6.09574C50.326 5.91864 50.229 5.75664 50.101 5.62094C49.972 5.48524 49.816 5.37904 49.643 5.30984C49.469 5.24054 49.283 5.20984 49.096 5.21984C48.909 5.21414 48.723 5.24734 48.549 5.31744C48.375 5.38764 48.218 5.49304 48.087 5.62714C47.956 5.76124 47.855 5.92114 47.789 6.09654C47.723 6.27194 47.695 6.45914 47.705 6.64614V11.2664H45.881V6.64614C45.903 6.46144 45.884 6.27424 45.826 6.09744C45.768 5.92074 45.672 5.75874 45.545 5.62294C45.418 5.48704 45.263 5.38064 45.09 5.31104C44.918 5.24144 44.732 5.21034 44.546 5.21984C44.359 5.21274 44.172 5.24514 43.997 5.31474C43.823 5.38434 43.665 5.48984 43.534 5.62424C43.403 5.75864 43.301 5.91894 43.236 6.09504C43.171 6.27104 43.143 6.45884 43.155 6.64614V11.2664H41.317V6.68994C41.317 4.78234 42.582 3.33856 44.546 3.33856C44.983 3.32743 45.415 3.41766 45.811 3.60214C46.206 3.78661 46.554 4.06031 46.826 4.40172C47.103 4.06541 47.452 3.79539 47.847 3.61144C48.242 3.42748 48.674 3.33424 49.11 3.33856C51.109 3.33856 52.29 4.7211 52.29 6.68994L52.277 11.2664Z"
    fill="#E1E1E6" />
  <path
    d="M89.194 0.949628C89.194 0.949628 87.173 0.735248 87.173 2.36281V4.51103C86.958 4.16039 86.657 3.87105 86.298 3.67099C85.921 3.46154 85.4961 3.35586 85.0641 3.36473C84.6031 3.34861 84.145 3.44166 83.727 3.63631C83.309 3.83096 82.942 4.12168 82.658 4.48478C82.023 5.39785 81.714 6.49855 81.783 7.60865C81.739 8.61515 82.064 9.60295 82.697 10.3868C83.306 11.1088 84.5 11.4237 85.559 11.4237C89.26 11.4237 89.217 8.25175 89.217 8.25175L89.194 0.949628ZM86.7881 9.15745C86.6421 9.36685 86.445 9.53485 86.214 9.64525C85.985 9.75565 85.73 9.80465 85.475 9.78745C85.228 9.80265 84.98 9.75185 84.758 9.64045C84.536 9.52915 84.348 9.36095 84.212 9.15315C83.91 8.62075 83.766 8.01395 83.795 7.40305C83.776 6.82835 83.918 6.25975 84.207 5.76235C84.339 5.54515 84.529 5.36835 84.755 5.25115C84.981 5.13395 85.235 5.08075 85.489 5.09725C85.859 5.09195 86.219 5.22275 86.499 5.46485C86.972 5.86295 87.204 6.58485 87.204 7.51675C87.236 8.09445 87.0881 8.66785 86.7801 9.15745H86.7881Z"
    fill="#E1E1E6" />
  <path
    d="M53.428 15.2172H54.941L52.207 22.9482H50.146L47.438 15.2172H49.591L51.131 20.6556L52.5 15.9217C52.547 15.7139 52.666 15.5294 52.836 15.4006C53.005 15.2717 53.215 15.2069 53.428 15.2172ZM59.247 15.0116H59.417V17.0767L59.08 17.0504C58.98 17.0504 58.901 17.0504 58.84 17.0504C58.03 17.0504 57.483 17.3129 57.208 17.8423C57.024 18.276 56.944 18.7461 56.971 19.2162V22.9219H54.946V18.9843C54.946 18.9843 54.679 15.0247 59.15 15.0247L59.247 15.0116ZM67.153 18.0742C67.072 17.5086 66.864 16.9684 66.544 16.4948C66.225 16.0001 65.769 15.6082 65.232 15.366C64.666 15.1193 64.055 14.997 63.438 15.0072C62.934 14.9882 62.432 15.0722 61.961 15.2543C61.491 15.4363 61.063 15.7126 60.704 16.0661C60.003 16.7748 59.653 17.7855 59.653 19.1287C59.653 20.5374 60.043 21.5613 60.817 22.1913C61.576 22.8106 62.529 23.1435 63.508 23.132C64.039 23.1632 64.571 23.0798 65.067 22.8873C65.563 22.6947 66.012 22.3977 66.383 22.0163C66.708 21.6933 66.948 21.2951 67.083 20.8569H64.947C64.871 20.9703 64.778 21.0719 64.672 21.1588C64.341 21.3939 63.939 21.5068 63.534 21.4781C63.16 21.5005 62.787 21.4123 62.462 21.2244C62.202 21.0462 61.992 20.8041 61.853 20.5213C61.713 20.2386 61.649 19.9247 61.666 19.6099H67.227C67.241 19.0998 67.216 18.5894 67.153 18.083V18.0742ZM61.705 18.468C61.751 18.0265 61.937 17.611 62.235 17.2823C62.394 17.1316 62.581 17.0152 62.787 16.9399C62.992 16.8646 63.211 16.8323 63.429 16.8448C63.862 16.8306 64.284 16.9771 64.615 17.2561C64.78 17.4111 64.912 17.598 65.003 17.8056C65.094 18.0131 65.142 18.237 65.144 18.4636L61.705 18.468ZM43.163 12.5134V22.9219H41.256V13.9791C41.256 12.4434 43.163 12.5221 43.163 12.5221V12.5134ZM44.725 15.2085H46.755V22.9219H44.717L44.725 15.2085ZM44.725 12.6972H46.755V14.7141H44.721L44.725 12.6972Z"
    fill="#E1E1E6" />
</svg>