<svg width="46" height="25" viewBox="0 0 46 25" fill="none" xmlns="http://www.w3.org/2000/svg">
  <mask id="mask0_2_726" style="mask-type:luminance" maskUnits="userSpaceOnUse" x="0" y="0" width="46" height="25">
    <path d="M45.129 0.616211H0.129028V24.6162H45.129V0.616211Z" fill="white" />
  </mask>
  <g mask="url(#mask0_2_726)">
    <path
      d="M8.41599 2.90556C9.82199 1.46038 11.689 0.616211 13.881 0.616211C18.152 0.616211 20.984 3.66527 21.525 8.23295C21.701 9.71635 21.7 11.8077 21.698 14.23C21.697 14.4784 21.697 14.7303 21.697 14.9854V24.0596H15.824V17.3481C15.824 17.3481 15.812 11.6039 15.776 10.5303C15.618 5.85455 12.787 2.91663 8.41502 2.91347C7.09602 4.27625 6.38901 5.94245 6.28501 8.49025C6.27001 8.84555 6.274 10.1052 6.279 11.7653C6.281 12.6254 6.28401 13.593 6.28501 14.5981C6.28901 18.9728 6.28501 24.0606 6.28501 24.0606H0.411021V13.7315C0.411021 13.3776 0.40502 13.0207 0.39802 12.6623C0.38502 11.9415 0.371021 11.2152 0.411021 10.4959C0.478021 9.29675 0.690003 8.11805 1.262 7.02305C2.572 4.51456 5.25601 2.89941 8.11701 2.89941C8.21701 2.89941 8.31699 2.90146 8.41599 2.90556Z"
      fill="#E1E1E6" />
    <path
      d="M44.847 14.7369C44.887 14.0177 44.874 13.2912 44.86 12.5705C44.854 12.2121 44.847 11.8552 44.847 11.5013V1.1721H38.974C38.974 1.1721 38.969 6.25995 38.974 10.6346C38.974 11.6397 38.977 12.6073 38.98 13.4674C38.984 15.1275 38.988 16.3871 38.974 16.7424C38.869 19.2902 38.163 20.9564 36.843 22.3193C32.471 22.316 29.64 19.3781 29.482 14.7025C29.446 13.6289 29.431 10.9649 29.431 7.87935V1.16772L23.562 1.17308V10.2474C23.562 10.5025 23.562 10.7543 23.562 11.0028C23.56 13.4251 23.559 15.5163 23.734 16.9997C24.275 21.5675 27.106 24.6165 31.377 24.6165C33.57 24.6165 35.436 23.7723 36.843 22.3271C36.942 22.3313 37.042 22.3333 37.142 22.3333C40.003 22.3333 42.687 20.7182 43.996 18.2096C44.569 17.1146 44.781 15.9359 44.847 14.7369Z"
      fill="#E1E1E6" />
  </g>
</svg>