<svg width="28" height="34" viewBox="0 0 28 34" fill="none" xmlns="http://www.w3.org/2000/svg">
  <path
    d="M27.4333 0.661562L22.943 0.00696483C22.8102 -0.019219 22.6773 0.0331456 22.6242 0.0855132L20.7112 2.5468C20.5783 2.7039 20.5518 2.91338 20.6049 3.09666C20.658 3.27995 20.4986 3.43706 20.3126 3.41087L18.745 3.07048C18.5059 3.01811 18.2402 3.09667 18.0808 3.30614L11.8635 11.1613C11.7572 11.3184 11.5447 11.3708 11.3587 11.2923L8.99396 10.2449C8.7814 10.1402 8.54227 10.1664 8.35629 10.2973L7.16065 11.109C6.97467 11.2399 6.70897 11.2661 6.49641 11.1613L5.91188 10.8733C5.53991 10.69 5.08822 10.8995 4.98195 11.2923L4.55683 13.1513C4.45055 13.5964 4.63654 14.0416 5.03508 14.2772L5.93845 14.8271L8.83454 16.5814L10.2427 17.4455C10.6413 17.6811 11.1461 17.6288 11.4915 17.3407L13.8562 15.2984C14.0422 15.1413 14.3345 15.0889 14.547 15.2198L15.2644 15.5864C15.5035 15.7173 15.7958 15.665 15.9818 15.4817L17.1774 14.382C17.3634 14.1987 17.6557 14.1725 17.8682 14.2772L19.6484 15.0889C19.9141 15.2198 20.2329 15.1413 20.4189 14.9056L21.2426 13.8583L27.4864 5.97689C27.7787 5.61032 27.5927 5.06046 27.1145 4.95572L25.7328 4.64151C25.4406 4.58914 25.3077 4.22257 25.5203 4.0131L27.6724 1.36853C27.885 1.05432 27.7521 0.71393 27.4333 0.661562Z"
    fill="#8234E9" />
  <path
    d="M6.84174 16.5277C6.70889 16.4491 6.57605 16.58 6.62919 16.7109L7.29342 18.4391C7.34656 18.57 7.34656 18.7009 7.31999 18.8318L6.73546 21.0837C6.70889 21.2408 6.76202 21.3979 6.8683 21.4764L8.54219 22.7594C8.70161 22.8642 8.91416 22.8642 9.04701 22.7332L10.8006 21.2146C10.9069 21.136 11.0398 21.0837 11.146 21.0575L13.1388 20.848C13.2716 20.8218 13.3248 20.6385 13.1919 20.56L6.84174 16.5277Z"
    fill="#8234E9" />
  <path
    d="M6.25835 22.3414C6.15207 22.2628 5.99265 22.2366 5.8598 22.289L4.45162 22.9698C4.37191 22.996 4.31876 23.0745 4.26562 23.1531L1.26326 30.4584C1.26326 30.4846 1.26326 30.4846 1.26326 30.5107C1.28983 30.5369 1.3164 30.5631 1.36954 30.5631L2.06035 30.3013C2.08692 30.3013 2.11349 30.3013 2.14006 30.3013C2.16662 30.3275 2.1932 30.3798 2.16663 30.406L0.0144824 33.8885C-0.0386567 33.967 0.0676243 34.0456 0.120763 33.967L7.90567 26.269C7.98537 26.1904 8.01194 26.1119 8.03851 26.0071L8.19793 24.0171C8.19793 23.8862 8.14479 23.7815 8.06508 23.7029L6.25835 22.3414Z"
    fill="#8234E9" />
</svg>