<svg width="220" height="272" viewBox="0 0 220 272" fill="none" xmlns="http://www.w3.org/2000/svg">
  <g clip-path="url(#clip0_2_1577)">
    <g filter="url(#filter0_d_2_1577)">
      <path
        d="M134.694 130.774H85.3058C82.3755 130.774 80 133.15 80 136.08V185.469C80 188.399 82.3755 190.774 85.3058 190.774H134.694C137.625 190.774 140 188.399 140 185.469V136.08C140 133.15 137.625 130.774 134.694 130.774Z"
        fill="#121214" />
      <path
        d="M134.694 130.774H85.3058C82.3755 130.774 80 133.15 80 136.08V185.469C80 188.399 82.3755 190.774 85.3058 190.774H134.694C137.625 190.774 140 188.399 140 185.469V136.08C140 133.15 137.625 130.774 134.694 130.774Z"
        fill="url(#paint0_linear_2_1577)" />
      <path
        d="M121.847 146.719L118.002 146.152C117.89 146.13 117.774 146.173 117.727 146.22L116.09 148.356C115.978 148.494 115.953 148.674 116 148.833C116.047 148.992 115.91 149.13 115.751 149.104L114.406 148.808C114.2 148.761 113.972 148.83 113.839 149.014L108.515 155.826C108.425 155.964 108.241 156.007 108.082 155.938L106.058 155.031C105.877 154.941 105.671 154.963 105.512 155.078L104.489 155.783C104.33 155.895 104.103 155.92 103.922 155.83L103.419 155.581C103.101 155.422 102.715 155.602 102.624 155.946L102.259 157.558C102.169 157.944 102.328 158.331 102.668 158.533L103.441 159.01L105.92 160.532L107.127 161.28C107.467 161.486 107.901 161.439 108.197 161.19L110.221 159.419C110.38 159.281 110.629 159.238 110.814 159.35L111.428 159.668C111.634 159.78 111.884 159.737 112.043 159.578L113.065 158.624C113.224 158.465 113.474 158.443 113.658 158.533L115.183 159.238C115.411 159.35 115.686 159.285 115.845 159.079L116.549 158.172L121.898 151.338C122.147 151.02 121.988 150.543 121.58 150.452L120.398 150.181C120.149 150.134 120.033 149.816 120.218 149.636L122.061 147.341C122.241 147.07 122.129 146.773 121.855 146.726L121.847 146.719Z"
        fill="#996DFF" />
      <path
        d="M104.211 160.479C104.099 160.41 103.983 160.526 104.03 160.638L104.598 162.138C104.645 162.25 104.645 162.366 104.619 162.478L104.117 164.429C104.095 164.567 104.139 164.7 104.229 164.769L105.664 165.882C105.801 165.972 105.982 165.972 106.098 165.86L107.601 164.545C107.691 164.476 107.807 164.433 107.897 164.408L109.603 164.227C109.715 164.205 109.762 164.046 109.65 163.977L104.211 160.479Z"
        fill="#996DFF" />
      <path
        d="M103.708 165.52C103.618 165.451 103.481 165.43 103.369 165.473L102.161 166.062C102.093 166.084 102.049 166.152 102.002 166.221L99.4293 172.557V172.604C99.451 172.625 99.4762 172.651 99.5196 172.651L100.112 172.423H100.181C100.203 172.445 100.228 172.491 100.203 172.513L98.3595 175.535C98.3125 175.603 98.4065 175.672 98.4499 175.603L105.118 168.928C105.186 168.859 105.208 168.791 105.23 168.7L105.367 166.973C105.367 166.861 105.32 166.767 105.255 166.702L103.708 165.52Z"
        fill="#996DFF" />
      <path d="M109 130.775V0.774414" stroke="url(#paint1_linear_2_1577)" stroke-width="2" stroke-dasharray="8 8" />
      <path
        d="M134.694 131.217H85.3057C82.6196 131.217 80.4421 133.394 80.4421 136.08V185.469C80.4421 188.155 82.6196 190.333 85.3057 190.333H134.694C137.38 190.333 139.558 188.155 139.558 185.469V136.08C139.558 133.394 137.38 131.217 134.694 131.217Z"
        stroke="url(#paint2_linear_2_1577)" stroke-width="0.884298" />
    </g>
  </g>
  <defs>
    <filter id="filter0_d_2_1577" x="-6.10352e-05" y="-79.2256" width="220" height="350" filterUnits="userSpaceOnUse"
      color-interpolation-filters="sRGB">
      <feFlood flood-opacity="0" result="BackgroundImageFix" />
      <feColorMatrix in="SourceAlpha" type="matrix" values="0 0 0 0 0 0 0 0 0 0 0 0 0 0 0 0 0 0 127 0"
        result="hardAlpha" />
      <feOffset />
      <feGaussianBlur stdDeviation="40" />
      <feComposite in2="hardAlpha" operator="out" />
      <feColorMatrix type="matrix" values="0 0 0 0 0.6 0 0 0 0 0.427451 0 0 0 0 1 0 0 0 1 0" />
      <feBlend mode="normal" in2="BackgroundImageFix" result="effect1_dropShadow_2_1577" />
      <feBlend mode="normal" in="SourceGraphic" in2="effect1_dropShadow_2_1577" result="shape" />
    </filter>
    <linearGradient id="paint0_linear_2_1577" x1="110" y1="130.774" x2="110" y2="190.774"
      gradientUnits="userSpaceOnUse">
      <stop stop-color="#202024" />
      <stop offset="1" stop-color="#202024" stop-opacity="0.2" />
    </linearGradient>
    <linearGradient id="paint1_linear_2_1577" x1="-nan" y1="-nan" x2="-nan" y2="-nan" gradientUnits="userSpaceOnUse">
      <stop stop-color="#505059" />
      <stop offset="1" stop-color="#505059" stop-opacity="0" />
    </linearGradient>
    <linearGradient id="paint2_linear_2_1577" x1="110" y1="130.775" x2="110" y2="190.775"
      gradientUnits="userSpaceOnUse">
      <stop stop-color="#323238" />
      <stop offset="1" stop-color="#323238" stop-opacity="0.3" />
    </linearGradient>
    <clipPath id="clip0_2_1577">
      <rect width="220" height="271" fill="white" transform="translate(0 0.55957)" />
    </clipPath>
  </defs>
</svg>