<svg width="336" height="140" viewBox="0 0 336 140" fill="none" xmlns="http://www.w3.org/2000/svg">
  <g clip-path="url(#clip0_343_58)">
    <mask id="mask0_343_58" style="mask-type:luminance" maskUnits="userSpaceOnUse" x="0" y="0" width="336" height="140">
      <path
        d="M332 0H4C1.79086 0 0 1.79086 0 4V136C0 138.209 1.79086 140 4 140H332C334.209 140 336 138.209 336 136V4C336 1.79086 334.209 0 332 0Z"
        fill="white" />
    </mask>
    <g mask="url(#mask0_343_58)">
      <path
        d="M332 0H4C1.79086 0 0 1.79086 0 4V136C0 138.209 1.79086 140 4 140H332C334.209 140 336 138.209 336 136V4C336 1.79086 334.209 0 332 0Z"
        fill="#121214" />
      <path fill-rule="evenodd" clip-rule="evenodd"
        d="M58 -4H-49C-50.6569 -4 -52 -2.65686 -52 -1V62C-52 63.6569 -50.6569 65 -49 65H58C59.6569 65 61 63.6569 61 62V-1C61 -2.65686 59.6569 -4 58 -4ZM-49 -5C-51.2091 -5 -53 -3.20914 -53 -1V62C-53 64.2091 -51.2091 66 -49 66H58C60.2091 66 62 64.2091 62 62V-1C62 -3.20914 60.2091 -5 58 -5H-49ZM433 -4H326C324.343 -4 323 -2.65686 323 -1V62C323 63.6569 324.343 65 326 65H433C434.657 65 436 63.6569 436 62V-1C436 -2.65686 434.657 -4 433 -4ZM326 -5C323.791 -5 322 -3.20914 322 -1V62C322 64.2091 323.791 66 326 66H433C435.209 66 437 64.2091 437 62V-1C437 -3.20914 435.209 -5 433 -5H326ZM297.5 10.6753V-3H296.5V10.4701L282.791 24.3571H229H228.791L228.644 24.5059L217.644 35.6487L218.356 36.3513L229.209 25.3571H283H283.209L283.356 25.2084L297.356 11.0266L297.5 10.8805V10.6753ZM103.5 102.39V81H102.5V102.183L80.6131 124.071H23V78C23 76.3431 24.3431 75 26 75H133C134.657 75 136 76.3431 136 78V141C136 142.657 134.657 144 133 144H26C24.3431 144 23 142.657 23 141V125.071H80.8202H81.0273L81.1738 124.925L103.354 102.743L103.5 102.597V102.39ZM22 125.071V141C22 143.209 23.7909 145 26 145H133C135.209 145 137 143.209 137 141V78C137 75.7909 135.209 74 133 74H26C23.7909 74 22 75.7909 22 78V124.071H12V78C12 75.7909 10.2091 74 8 74H-99C-101.209 74 -103 75.7909 -103 78V141C-103 143.209 -101.209 145 -99 145H8C10.2091 145 12 143.209 12 141V125.071H22ZM11 125.071V141C11 142.657 9.65685 144 8 144H-99C-100.657 144 -102 142.657 -102 141V78C-102 76.3431 -100.657 75 -99 75H8C9.65685 75 11 76.3431 11 78V124.071H-4.73034H-4.93745L-5.08391 124.218L-22.3644 141.5H-38V142.5H-22.1573H-21.9502L-21.8037 142.354L-4.52321 125.071H11ZM106 -3V40H105V-3H106ZM232.646 105.354L242.5 115.207V140.5H243.5V115V114.793L243.354 114.646L233.354 104.646L232.646 105.354ZM276 75H383C384.657 75 386 76.3431 386 78V141C386 142.657 384.657 144 383 144H276C274.343 144 273 142.657 273 141V78C273 76.3431 274.343 75 276 75ZM272 78C272 75.7909 273.791 74 276 74H383C385.209 74 387 75.7909 387 78V141C387 143.209 385.209 145 383 145H276C273.791 145 272 143.209 272 141V78ZM183 -4H76C74.3431 -4 73 -2.65686 73 -1V62C73 63.6569 74.3431 65 76 65H183C184.657 65 186 63.6569 186 62V-1C186 -2.65686 184.657 -4 183 -4ZM76 -5C73.7909 -5 72 -3.20914 72 -1V62C72 64.2091 73.7909 66 76 66H183C185.209 66 187 64.2091 187 62V-1C187 -3.20914 185.209 -5 183 -5H76ZM308 -4H201C199.343 -4 198 -2.65686 198 -1V62C198 63.6569 199.343 65 201 65H308C309.657 65 311 63.6569 311 62V-1C311 -2.65686 309.657 -4 308 -4ZM201 -5C198.791 -5 197 -3.20914 197 -1V62C197 64.2091 198.791 66 201 66H308C310.209 66 312 64.2091 312 62V-1C312 -3.20914 310.209 -5 308 -5H201ZM151 75H258C259.657 75 261 76.3431 261 78V141C261 142.657 259.657 144 258 144H151C149.343 144 148 142.657 148 141V78C148 76.3431 149.343 75 151 75ZM147 78C147 75.7909 148.791 74 151 74H258C260.209 74 262 75.7909 262 78V141C262 143.209 260.209 145 258 145H151C148.791 145 147 143.209 147 141V78Z"
        fill="url(#paint0_radial_343_58)" fill-opacity="0.3" />
      <g filter="url(#filter0_f_343_58)">
        <path
          d="M113 96C127.359 96 139 84.3594 139 70C139 55.6406 127.359 44 113 44C98.6406 44 87 55.6406 87 70C87 84.3594 98.6406 96 113 96Z"
          fill="#E44D26" />
      </g>
      <g filter="url(#filter1_f_343_58)">
        <path
          d="M218 96C232.359 96 244 84.3594 244 70C244 55.6406 232.359 44 218 44C203.641 44 192 55.6406 192 70C192 84.3594 203.641 96 218 96Z"
          fill="#E5D130" />
      </g>
      <g filter="url(#filter2_f_343_58)">
        <path
          d="M168 96C182.359 96 194 84.3594 194 70C194 55.6406 182.359 44 168 44C153.641 44 142 55.6406 142 70C142 84.3594 153.641 96 168 96Z"
          fill="#42A5F5" />
      </g>
      <path opacity="0.5"
        d="M161.147 42.8427L127.346 23.205C124.688 21.6608 121.417 21.643 118.743 23.1583L84.449 42.5884C81.687 44.1533 79.9917 47.1081 80.0259 50.2975L80.4508 89.8983C80.4839 92.9865 82.1345 95.8278 84.7925 97.3719L118.594 117.01C121.313 118.59 124.669 118.569 127.369 116.956L160.765 97.004C163.368 95.449 164.978 92.6422 165.016 89.5963L165.488 50.5171C165.526 47.3572 163.867 44.4227 161.147 42.8427Z"
        fill="#AE9B9B" />
      <mask id="mask1_343_58" style="mask-type:luminance" maskUnits="userSpaceOnUse" x="80" y="27" width="86"
        height="86">
        <path d="M165.489 27.3756H80.0254V112.839H165.489V27.3756Z" fill="white" />
      </mask>
      <g mask="url(#mask1_343_58)">
        <path
          d="M156.317 45.8717L126.384 28.4164C124.03 27.0439 121.134 27.0281 118.766 28.375L88.3968 45.6456C85.9509 47.0367 84.4496 49.6631 84.4799 52.498L84.8562 87.6978C84.8855 90.4428 86.3472 92.9684 88.701 94.3408L118.634 111.796C121.042 113.201 124.014 113.182 126.405 111.748L155.979 94.0138C158.284 92.6316 159.71 90.1367 159.743 87.4293L160.161 52.6932C160.195 49.8845 158.725 47.2761 156.317 45.8717Z"
          fill="#202024" />
        <path
          d="M148.485 52.2657L125.799 39.6104C124.015 38.6152 121.82 38.6038 120.025 39.5803L97.0081 52.1019C95.1543 53.1104 94.0164 55.0146 94.0394 57.07L94.3246 82.5905C94.3468 84.5807 95.4546 86.4117 97.2386 87.4068L119.925 100.062C121.75 101.08 124.003 101.067 125.815 100.027L148.23 87.1697C149.976 86.1676 151.057 84.3588 151.082 82.3958L151.399 57.2115C151.425 55.1751 150.311 53.284 148.485 52.2657Z"
          fill="url(#paint1_linear_343_58)" />
        <path
          d="M122.311 82.2933L130.591 80.0111L131.71 67.6912H116.981L116.615 63.5913H132.076L132.483 59.5722H112.139L113.279 71.7104H127.295L126.827 76.9211L122.311 78.1328L117.795 76.9211L117.51 73.5684H113.441L114.031 80.0111L122.311 82.2933ZM106.179 52.8872H138.443L135.534 85.6056L122.311 89.2409L109.088 85.6056L106.179 52.8872Z"
          fill="#E44D26" />
        <path d="M89.3737 93.1874L88.702 94.3392M158.407 87.4137C158.407 87.4139 158.407 87.4135 158.407 87.4137Z"
          stroke="url(#paint2_linear_343_58)" stroke-width="2.67073" />
      </g>
      <path opacity="0.5"
        d="M205.562 42.8427L171.761 23.205C169.103 21.6609 165.832 21.643 163.158 23.1584L128.864 42.5884C126.102 44.1533 124.407 47.1081 124.441 50.2975L124.866 89.8983C124.899 92.9865 126.549 95.8279 129.208 97.3719L163.009 117.01C165.728 118.59 169.084 118.569 171.784 116.956L205.18 97.004C207.783 95.449 209.393 92.6422 209.431 89.5963L209.903 50.5171C209.941 47.3573 208.282 44.4228 205.562 42.8427Z"
        fill="#8EACC4" />
      <path
        d="M201.62 45.8712L171.688 28.416C169.334 27.0434 166.438 27.0276 164.069 28.3745L133.701 45.6452C131.255 47.0362 129.753 49.6626 129.784 52.4975L130.16 87.6973C130.189 90.4423 131.651 92.9679 134.005 94.3403L163.937 111.796C166.346 113.2 169.317 113.182 171.709 111.748L201.283 94.0133C203.587 92.6311 205.013 90.1362 205.046 87.4288L205.465 52.6927C205.499 49.884 204.029 47.2757 201.62 45.8712Z"
        fill="#202024" />
      <path fill-rule="evenodd" clip-rule="evenodd"
        d="M132.831 87.6687C132.85 89.4826 133.816 91.1385 135.35 92.0331L135.351 92.0338L165.283 109.489C166.849 110.402 168.779 110.39 170.335 109.457L199.909 91.7229C201.402 90.8274 202.342 89.2062 202.375 87.4296C202.376 87.4189 202.376 87.408 202.376 87.3973C202.376 87.3971 202.376 87.3976 202.376 87.3973L202.794 52.6606C202.814 50.9951 202.034 49.4473 200.74 48.4855C200.592 48.3752 200.437 48.2725 200.275 48.1783L170.342 30.7231C170.034 30.5435 169.712 30.3995 169.381 30.2914C168.13 29.8821 166.757 29.9847 165.565 30.6007C165.527 30.6205 165.489 30.6407 165.451 30.6616C165.445 30.665 165.439 30.6684 165.433 30.6719C165.418 30.6798 165.404 30.6879 165.39 30.696L135.021 47.9667C133.427 48.8734 132.434 50.5953 132.454 52.469L132.831 87.6687ZM133.701 45.6451L164.069 28.3745C164.148 28.33 164.226 28.2871 164.306 28.2456C166.6 27.0449 169.344 27.0875 171.604 28.368C171.632 28.3838 171.66 28.3997 171.688 28.4159L201.62 45.8711C204.029 47.2756 205.499 49.8841 205.465 52.6927L205.046 87.4288C205.013 90.1359 203.587 92.6312 201.283 94.0133L171.709 111.748C169.317 113.182 166.346 113.2 163.937 111.796L134.005 94.3403C133.706 94.1663 133.422 93.9737 133.153 93.7645C131.304 92.3244 130.186 90.0959 130.16 87.7C130.16 87.6991 130.16 87.6982 130.16 87.6973L129.784 52.4975C129.753 49.6644 131.253 47.0396 133.696 45.6478C133.697 45.6469 133.699 45.646 133.701 45.6451Z"
        fill="url(#paint3_linear_343_58)" />
      <path
        d="M193.789 52.5139L171.103 39.8586C169.319 38.8634 167.124 38.8519 165.329 39.8285L142.312 52.3501C140.458 53.3586 139.32 55.2628 139.343 57.3182L139.628 82.8387C139.651 84.8288 140.758 86.6599 142.542 87.655L165.229 100.311C167.054 101.329 169.306 101.315 171.119 100.276L193.533 87.4179C195.28 86.4158 196.361 84.607 196.386 82.644L196.703 57.4597C196.729 55.4233 195.615 53.5322 193.789 52.5139Z"
        fill="url(#paint4_linear_343_58)" />
      <path
        d="M154.928 54.9729L153.75 61.1675H178.379L177.582 65.1736H152.97L151.774 71.3496H176.404L175.026 78.4159L165.095 81.7729L156.486 78.4159L157.084 75.3743H151.031L149.6 82.7929L163.826 88.3569L180.228 82.7929L182.402 71.6093L182.837 69.3651L185.628 54.9729H154.928Z"
        fill="#42A5F5" />
      <path opacity="0.5"
        d="M249.973 42.8427L216.172 23.205C213.514 21.6609 210.243 21.643 207.569 23.1584L173.275 42.5884C170.513 44.1533 168.818 47.1081 168.852 50.2975L169.277 89.8983C169.31 92.9865 170.961 95.8279 173.619 97.3719L207.42 117.01C210.139 118.59 213.495 118.569 216.195 116.956L249.592 97.004C252.194 95.449 253.804 92.6422 253.842 89.5963L254.314 50.5171C254.352 47.3573 252.693 44.4228 249.973 42.8427Z"
        fill="#AEB59E" />
      <mask id="mask2_343_58" style="mask-type:luminance" maskUnits="userSpaceOnUse" x="169" y="27" width="87"
        height="86">
        <path d="M255.205 27.3757H169.742V112.839H255.205V27.3757Z" fill="white" />
      </mask>
      <g mask="url(#mask2_343_58)">
        <path
          d="M246.069 46.3767L216.493 29.2846C214.167 27.9406 211.306 27.9251 208.966 29.244L178.959 46.1553C176.542 47.5174 175.058 50.0892 175.088 52.8651L175.46 87.3325C175.489 90.0204 176.933 92.4934 179.259 93.8373L208.835 110.93C211.215 112.305 214.151 112.286 216.514 110.882L245.735 93.5171C248.013 92.1637 249.422 89.7207 249.454 87.0696L249.868 53.0563C249.901 50.306 248.449 47.7519 246.069 46.3767Z"
          fill="#202024" />
        <path fill-rule="evenodd" clip-rule="evenodd"
          d="M245.411 48.2622L215.163 30.8065C213.628 29.9212 211.741 29.911 210.197 30.7797L179.508 48.0509C177.913 48.948 176.936 50.6415 176.955 52.4686L177.336 87.6693L174.576 87.6991L174.196 52.4984C174.165 49.6634 175.682 47.0369 178.154 45.6458L208.843 28.3747C211.237 27.0277 214.163 27.0436 216.542 28.4162L246.79 45.8719C249.225 47.2764 250.71 49.8848 250.675 52.6936L250.253 87.4306C250.219 90.1381 248.778 92.6331 246.449 94.0153L216.563 111.75C214.147 113.184 211.144 113.203 208.71 111.798L178.461 94.3423C176.083 92.9698 174.606 90.4442 174.576 87.6991L177.336 87.6693C177.355 89.4385 178.307 91.0668 179.841 91.9519L210.089 109.408C211.659 110.314 213.596 110.302 215.155 109.377L245.041 91.642C246.543 90.7508 247.471 89.1424 247.493 87.397C247.493 87.3969 247.493 87.3972 247.493 87.397L247.916 52.66C247.938 50.8495 246.981 49.1678 245.411 48.2622Z"
          fill="url(#paint5_linear_343_58)" />
        <path
          d="M238.202 52.2653L215.516 39.61C213.732 38.6148 211.537 38.6033 209.742 39.5799L186.725 52.1015C184.871 53.11 183.733 55.0142 183.756 57.0696L184.041 82.5901C184.064 84.5803 185.171 86.4113 186.955 87.4064L209.642 100.062C211.467 101.08 213.719 101.067 215.532 100.027L237.946 87.1693C239.693 86.1672 240.774 84.3584 240.799 82.3954L241.116 57.2111C241.142 55.1747 240.028 53.2836 238.202 52.2653Z"
          fill="url(#paint6_linear_343_58)" />
        <path
          d="M192.208 77.4483L196.599 74.8341C197.447 76.3122 198.218 77.5623 200.067 77.5623C201.838 77.5623 202.955 76.8837 202.955 74.2273V56.1881H208.349V74.302C208.349 79.7966 205.075 82.2982 200.298 82.2982C198.61 82.3881 196.933 81.9727 195.489 81.1068C194.045 80.2408 192.902 78.9648 192.209 77.447L192.208 77.4483ZM211.279 76.8782L215.67 74.3766C216.159 75.3512 216.916 76.1704 217.857 76.7402C218.797 77.31 219.882 77.6072 220.986 77.5976C223.221 77.5976 224.645 76.4982 224.645 74.982C224.645 73.1632 223.181 72.5184 220.716 71.4529L219.372 70.891C215.481 69.2621 212.9 67.2152 212.9 62.8948C212.9 58.915 215.982 55.884 220.797 55.884C222.357 55.7728 223.916 56.116 225.279 56.8708C226.643 57.6256 227.75 58.7586 228.462 60.1285L224.263 62.7821C223.987 62.1021 223.508 61.5206 222.889 61.1145C222.27 60.7085 221.54 60.4972 220.796 60.5085C220.471 60.4763 220.144 60.5109 219.834 60.6101C219.524 60.7094 219.238 60.8712 218.995 61.0851C218.752 61.2991 218.558 61.5605 218.423 61.8526C218.289 62.1448 218.218 62.4614 218.214 62.7821C218.214 64.3743 219.216 65.0177 221.526 66.0031L222.874 66.5719C227.458 68.5047 230.038 70.4756 230.038 74.9087C230.038 79.6839 226.225 82.2995 221.102 82.2995C216.094 82.2995 212.859 79.95 211.279 76.8796"
          fill="#E6D130" />
      </g>
    </g>
  </g>
  <defs>
    <filter id="filter0_f_343_58" x="7" y="-36" width="212" height="212" filterUnits="userSpaceOnUse"
      color-interpolation-filters="sRGB">
      <feFlood flood-opacity="0" result="BackgroundImageFix" />
      <feBlend mode="normal" in="SourceGraphic" in2="BackgroundImageFix" result="shape" />
      <feGaussianBlur stdDeviation="40" result="effect1_foregroundBlur_343_58" />
    </filter>
    <filter id="filter1_f_343_58" x="112" y="-36" width="212" height="212" filterUnits="userSpaceOnUse"
      color-interpolation-filters="sRGB">
      <feFlood flood-opacity="0" result="BackgroundImageFix" />
      <feBlend mode="normal" in="SourceGraphic" in2="BackgroundImageFix" result="shape" />
      <feGaussianBlur stdDeviation="40" result="effect1_foregroundBlur_343_58" />
    </filter>
    <filter id="filter2_f_343_58" x="62" y="-36" width="212" height="212" filterUnits="userSpaceOnUse"
      color-interpolation-filters="sRGB">
      <feFlood flood-opacity="0" result="BackgroundImageFix" />
      <feBlend mode="normal" in="SourceGraphic" in2="BackgroundImageFix" result="shape" />
      <feGaussianBlur stdDeviation="40" result="effect1_foregroundBlur_343_58" />
    </filter>
    <radialGradient id="paint0_radial_343_58" cx="0" cy="0" r="1" gradientUnits="userSpaceOnUse"
      gradientTransform="translate(167 70) rotate(90) scale(68.5 246.6)">
      <stop stop-color="#DEE0FC" />
      <stop offset="1" stop-color="#DEE0FC" stop-opacity="0" />
    </radialGradient>
    <linearGradient id="paint1_linear_343_58" x1="80.3661" y1="24.5761" x2="152.712" y2="92.6778"
      gradientUnits="userSpaceOnUse">
      <stop stop-color="#852A12" />
      <stop offset="1" stop-color="#202024" />
    </linearGradient>
    <linearGradient id="paint2_linear_343_58" x1="103.926" y1="36.4561" x2="143.22" y2="102.133"
      gradientUnits="userSpaceOnUse">
      <stop stop-color="#D94A1D" />
      <stop offset="1" stop-color="#D66E4D" stop-opacity="0.24" />
    </linearGradient>
    <linearGradient id="paint3_linear_343_58" x1="149.229" y1="36.4555" x2="188.524" y2="102.133"
      gradientUnits="userSpaceOnUse">
      <stop stop-color="#3783C1" />
      <stop offset="1" stop-color="#18242F" />
    </linearGradient>
    <linearGradient id="paint4_linear_343_58" x1="139.356" y1="39.2723" x2="201.076" y2="96.4293"
      gradientUnits="userSpaceOnUse">
      <stop stop-color="#296494" />
      <stop offset="1" stop-color="#121214" />
    </linearGradient>
    <linearGradient id="paint5_linear_343_58" x1="193.847" y1="36.456" x2="232.946" y2="102.496"
      gradientUnits="userSpaceOnUse">
      <stop stop-color="#E6D130" />
      <stop offset="1" stop-color="#3D3A26" />
    </linearGradient>
    <linearGradient id="paint6_linear_343_58" x1="170.083" y1="24.5757" x2="242.429" y2="92.6774"
      gradientUnits="userSpaceOnUse">
      <stop stop-color="#A39423" />
      <stop offset="1" stop-color="#202024" />
    </linearGradient>
    <clipPath id="clip0_343_58">
      <rect width="336" height="140" fill="white" />
    </clipPath>
  </defs>
</svg>