<svg width="336" height="140" viewBox="0 0 336 140" fill="none" xmlns="http://www.w3.org/2000/svg">
  <mask id="mask0_326_554" style="mask-type:luminance" maskUnits="userSpaceOnUse" x="0" y="0" width="336" height="140">
    <path
      d="M332 0H4C1.79086 0 0 1.79086 0 4V136C0 138.209 1.79086 140 4 140H332C334.209 140 336 138.209 336 136V4C336 1.79086 334.209 0 332 0Z"
      fill="white" />
  </mask>
  <g mask="url(#mask0_326_554)">
    <path
      d="M332 0H4C1.79086 0 0 1.79086 0 4V136C0 138.209 1.79086 140 4 140H332C334.209 140 336 138.209 336 136V4C336 1.79086 334.209 0 332 0Z"
      fill="#121214" />
    <path fill-rule="evenodd" clip-rule="evenodd"
      d="M-84.6343 117.301H81.9567C83.4595 117.301 84.6794 118.521 84.6794 120.027V198.274C84.6794 199.78 83.4595 201 81.9567 201H-84.6343C-86.1372 201 -87.357 199.78 -87.357 198.274V120.027C-87.357 118.521 -86.1372 117.301 -84.6343 117.301ZM65.2045 -69H231.796C233.298 -69 234.518 -67.7804 234.518 -66.274V11.9726C234.518 13.479 233.298 14.6986 231.796 14.6986H65.2045C63.7016 14.6986 62.4818 13.479 62.4818 11.9726V-66.274C62.4818 -67.7804 63.7016 -69 65.2045 -69ZM-116.277 -69H50.3137C51.8166 -69 53.0364 -67.7804 53.0364 -66.274V11.9726C53.0364 13.479 51.8166 14.6986 50.3137 14.6986H-116.277C-117.78 14.6986 -119 13.479 -119 11.9726V-66.274C-119 -67.7804 -117.78 -69 -116.277 -69ZM174.094 24.1507H340.685C342.187 24.1507 343.407 25.3703 343.407 26.8767V105.123C343.407 106.63 342.187 107.849 340.685 107.849H174.094C172.591 107.849 171.371 106.63 171.371 105.123V35.5H216.793L223.646 42.3536L223.793 42.5H224H240.88C241.114 43.7338 242.198 44.6667 243.5 44.6667C244.973 44.6667 246.167 43.4728 246.167 42C246.167 40.5272 244.973 39.3333 243.5 39.3333C242.198 39.3333 241.114 40.2662 240.88 41.5H224.207L217.354 34.6464L217.207 34.5H217H171.371V26.8767C171.371 25.3703 172.591 24.1507 174.094 24.1507ZM96.8475 117.301H334.17C335.673 117.301 336.893 118.521 336.893 120.027V198.274C336.893 199.78 335.673 201 334.17 201H96.8475C95.3446 201 94.1248 199.78 94.1248 198.274V120.027C94.1248 118.521 95.3446 117.301 96.8475 117.301ZM246.686 -69H413.277C414.78 -69 416 -67.7804 416 -66.274V11.9726C416 13.479 414.78 14.6986 413.277 14.6986H246.686C245.183 14.6986 243.964 13.479 243.964 11.9726V-66.274C243.964 -67.7804 245.183 -69 246.686 -69ZM-116.277 -70C-118.333 -70 -120 -68.3318 -120 -66.274V11.9726C-120 14.0304 -118.333 15.6986 -116.277 15.6986H50.3137C52.3697 15.6986 54.0364 14.0304 54.0364 11.9726V-66.274C54.0364 -68.3318 52.3697 -70 50.3137 -70H-116.277ZM61.4818 -66.274C61.4818 -68.3318 63.1485 -70 65.2045 -70H231.796C233.852 -70 235.518 -68.3318 235.518 -66.274V11.9726C235.518 14.0304 233.852 15.6986 231.796 15.6986H65.2045C63.1485 15.6986 61.4818 14.0304 61.4818 11.9726V-66.274ZM-88.357 120.027C-88.357 117.97 -86.6903 116.301 -84.6343 116.301H81.9567C84.0127 116.301 85.6794 117.97 85.6794 120.027V198.274C85.6794 200.332 84.0127 202 81.9567 202H-84.6343C-86.6903 202 -88.357 200.332 -88.357 198.274V120.027ZM170.371 26.8767C170.371 24.8189 172.038 23.1507 174.094 23.1507H340.685C342.741 23.1507 344.407 24.8189 344.407 26.8767V105.123C344.407 107.181 342.741 108.849 340.685 108.849H174.094C172.038 108.849 170.371 107.181 170.371 105.123V26.8767ZM96.8475 116.301C94.7915 116.301 93.1248 117.97 93.1248 120.027V198.274C93.1248 200.332 94.7915 202 96.8475 202H334.17C336.226 202 337.893 200.332 337.893 198.274V120.027C337.893 117.97 336.226 116.301 334.17 116.301H96.8475ZM242.964 -66.274C242.964 -68.3318 244.63 -70 246.686 -70H413.277C415.333 -70 417 -68.3318 417 -66.274V11.9726C417 14.0304 415.333 15.6986 413.277 15.6986H246.686C244.63 15.6986 242.964 14.0304 242.964 11.9726V-66.274ZM259.324 60.5H292.38C292.614 59.2662 293.698 58.3333 295 58.3333C296.473 58.3333 297.667 59.5272 297.667 61C297.667 62.4728 296.473 63.6667 295 63.6667C293.698 63.6667 292.614 62.7338 292.38 61.5H259.499L244.614 73.3907L244.477 73.5H244.302H191.5V72.5H244.127L259.012 60.6093L259.149 60.5H259.324ZM36.6199 29.5H69.6763H69.8515L69.9883 29.6093L84.873 41.5H137.5V42.5H84.6978H84.5226L84.3858 42.3907L69.5011 30.5H36.6199C36.3858 31.7338 35.3019 32.6667 34 32.6667C32.5272 32.6667 31.3333 31.4728 31.3333 30C31.3333 28.5272 32.5272 27.3333 34 27.3333C35.3019 27.3333 36.3858 28.2662 36.6199 29.5ZM229 101.5H254.88C255.114 102.734 256.198 103.667 257.5 103.667C258.973 103.667 260.167 102.473 260.167 101C260.167 99.5272 258.973 98.3333 257.5 98.3333C256.198 98.3333 255.114 99.2662 254.88 100.5H229.207L217.354 88.6465L217.207 88.5H217H197.5V89.5H216.793L228.646 101.354L228.793 101.5H229ZM90.6199 94.5H116.5H116.707L116.854 94.6465L128.707 106.5H166.5V107.5H128.5H128.293L128.146 107.354L116.293 95.5H90.6199C90.3858 96.7338 89.3019 97.6667 88 97.6667C86.5272 97.6667 85.3333 96.4728 85.3333 95C85.3333 93.5272 86.5272 92.3333 88 92.3333C89.3019 92.3333 90.3858 93.2662 90.6199 94.5ZM88.1199 61.5H105H105.207L105.354 61.3535L112.207 54.5H158.5V53.5H112H111.793L111.646 53.6464L104.793 60.5H88.1199C87.8858 59.2662 86.8019 58.3333 85.5 58.3333C84.0272 58.3333 82.8333 59.5272 82.8333 61C82.8333 62.4728 84.0272 63.6667 85.5 63.6667C86.8019 63.6667 87.8858 62.7338 88.1199 61.5ZM136 80.5H34.6199C34.3858 81.7338 33.3018 82.6667 32 82.6667C30.5272 82.6667 29.3333 81.4728 29.3333 80C29.3333 78.5272 30.5272 77.3333 32 77.3333C33.3018 77.3333 34.3858 78.2662 34.6199 79.5H136V80.5Z"
      fill="url(#paint0_radial_326_554)" fill-opacity="0.3" />
    <g filter="url(#filter0_f_326_554)">
      <path
        d="M168 96C182.359 96 194 84.3594 194 70C194 55.6406 182.359 44 168 44C153.641 44 142 55.6406 142 70C142 84.3594 153.641 96 168 96Z"
        fill="#A098F1" />
    </g>
    <path
      d="M205.813 42.7298L172.14 23.1665C169.492 21.6281 166.234 21.6104 163.57 23.12L129.406 42.4765C126.654 44.0355 124.965 46.9791 125 50.1565L125.423 89.6074C125.456 92.684 127.1 95.5146 129.748 97.0528L163.421 116.616C166.131 118.19 169.474 118.17 172.164 116.562L205.434 96.6863C208.026 95.1372 209.63 92.341 209.668 89.3066L210.138 50.3753C210.176 47.2273 208.523 44.3039 205.813 42.7298Z"
      fill="#A6A1D1" />
    <path
      d="M201 45.7473L171.181 28.3581C168.836 26.9907 165.95 26.9749 163.591 28.3167L133.337 45.5221C130.9 46.9079 129.405 49.5243 129.435 52.3486L129.81 87.4151C129.839 90.1498 131.295 92.6658 133.64 94.0331L163.46 111.423C165.859 112.822 168.819 112.803 171.201 111.375L200.664 93.7073C202.96 92.3303 204.38 89.8448 204.413 87.1476L204.83 52.543C204.864 49.7449 203.399 47.1464 201 45.7473Z"
      fill="#202024" />
    <path
      d="M200.33 46.8964L201 45.7472M200.33 46.8964C202.312 48.052 203.528 50.2031 203.5 52.5269L203.083 87.1314C203.055 89.3713 201.876 91.429 199.979 92.5663L170.517 110.234C168.551 111.413 166.11 111.428 164.13 110.273L134.31 92.8838C132.373 91.7545 131.164 89.6717 131.14 87.4008M200.33 46.8964L170.51 29.5071C168.575 28.3787 166.196 28.3657 164.249 29.473L133.995 46.6784C131.982 47.8229 130.74 49.9888 130.765 52.3342L131.14 87.4008M131.14 87.4008L129.81 87.415"
      stroke="url(#paint1_linear_326_554)" stroke-width="2.66062" />
    <path
      d="M192.531 52.3641L170.167 39.7569C168.408 38.7656 166.244 38.7542 164.475 39.727L141.784 52.2008C139.957 53.2055 138.835 55.1025 138.858 57.15L139.139 82.5733C139.161 84.5559 140.253 86.38 142.012 87.3713L164.376 99.9787C166.176 100.993 168.396 100.98 170.183 99.9439L192.279 87.1351C194.001 86.1368 195.067 84.3349 195.091 82.3794L195.404 57.291C195.429 55.2624 194.331 53.3785 192.531 52.3641Z"
      fill="url(#paint2_linear_326_554)" />
    <path fill-rule="evenodd" clip-rule="evenodd"
      d="M179.158 57.8599V57.7209C178.181 57.5646 177.734 57.1173 177.578 56.1447H177.439C177.282 57.1173 176.835 57.5602 175.863 57.7209V57.8599C176.835 58.0205 177.278 58.4634 177.439 59.4404H177.578C177.738 58.4634 178.181 58.0205 179.158 57.8599ZM187.501 63.4354V63.583C184.488 63.8566 183.333 65.016 183.059 68.0252H182.912C182.638 65.016 181.483 63.8566 178.469 63.583V63.4354C181.483 63.1618 182.638 62.0068 182.916 58.9932H183.055C183.333 62.0068 184.488 63.1618 187.501 63.4354ZM167.009 60.0615L185.32 81.8597H180.418L175.411 75.9021H166.67C166.501 75.9021 166.366 75.9542 166.266 76.0584C166.162 76.1626 166.11 76.2973 166.11 76.4579V81.8597H162.402V60.8691C162.402 60.1744 162.962 59.6142 163.657 59.6142H166.049C166.418 59.6142 166.77 59.7792 167.009 60.0615ZM166.11 75.6112L168.807 72.7105H172.728L166.11 64.8336V75.6112ZM153.379 59.6185V81.8597V81.8641H157.057V59.6185H153.379Z"
      fill="#DEE0FC" />
  </g>
  <defs>
    <filter id="filter0_f_326_554" x="62" y="-36" width="212" height="212" filterUnits="userSpaceOnUse"
      color-interpolation-filters="sRGB">
      <feFlood flood-opacity="0" result="BackgroundImageFix" />
      <feBlend mode="normal" in="SourceGraphic" in2="BackgroundImageFix" result="shape" />
      <feGaussianBlur stdDeviation="40" result="effect1_foregroundBlur_326_554" />
    </filter>
    <radialGradient id="paint0_radial_326_554" cx="0" cy="0" r="1" gradientUnits="userSpaceOnUse"
      gradientTransform="translate(168 66) rotate(90) scale(84.5 166.974)">
      <stop stop-color="#DEE0FC" />
      <stop offset="1" stop-color="#DEE0FC" stop-opacity="0" />
    </radialGradient>
    <linearGradient id="paint1_linear_326_554" x1="149.331" y1="35.835" x2="186.891" y2="101.831"
      gradientUnits="userSpaceOnUse">
      <stop stop-color="#A29AF5" />
      <stop offset="1" stop-color="#A29AF5" stop-opacity="0.25" />
    </linearGradient>
    <linearGradient id="paint2_linear_326_554" x1="138.868" y1="39.1755" x2="200.443" y2="95.6041"
      gradientUnits="userSpaceOnUse">
      <stop stop-color="#A29AF5" />
      <stop offset="1" stop-color="#342C66" />
    </linearGradient>
  </defs>
</svg>