<svg width="336" height="140" viewBox="0 0 336 140" fill="none" xmlns="http://www.w3.org/2000/svg">
  <g clip-path="url(#clip0_342_43)">
    <mask id="mask0_342_43" style="mask-type:luminance" maskUnits="userSpaceOnUse" x="0" y="0" width="336" height="140">
      <path
        d="M332 0H4C1.79086 0 0 1.79086 0 4V136C0 138.209 1.79086 140 4 140H332C334.209 140 336 138.209 336 136V4C336 1.79086 334.209 0 332 0Z"
        fill="white" />
    </mask>
    <g mask="url(#mask0_342_43)">
      <path
        d="M332 0H4C1.79086 0 0 1.79086 0 4V136C0 138.209 1.79086 140 4 140H332C334.209 140 336 138.209 336 136V4C336 1.79086 334.209 0 332 0Z"
        fill="#121214" />
      <path
        d="M29.3333 9.99991C29.3333 11.4727 30.5272 12.6666 32 12.6666C33.4728 12.6666 34.6667 11.4727 34.6667 9.99991C34.6667 8.52715 33.4728 7.33324 32 7.33324C30.5272 7.33324 29.3333 8.52715 29.3333 9.99991ZM-11.6667 54.9999C-11.6667 56.4727 -10.4728 57.6666 -8.99999 57.6666C-7.52723 57.6666 -6.33332 56.4727 -6.33332 54.9999C-6.33332 53.5271 -7.52723 52.3332 -8.99999 52.3332C-10.4728 52.3332 -11.6667 53.5271 -11.6667 54.9999ZM-21.6667 27.9999C-21.6667 29.4727 -20.4728 30.6666 -19 30.6666C-17.5272 30.6666 -16.3333 29.4727 -16.3333 27.9999C-16.3333 26.5271 -17.5272 25.3332 -19 25.3332C-20.4728 25.3332 -21.6667 26.5271 -21.6667 27.9999ZM142.5 27.9999L142.854 27.6463L142.707 27.4999H142.5V27.9999ZM314 39.9999H314.5V39.4999H314V39.9999ZM12.3333 39.9999C12.3333 41.4727 13.5272 42.6666 15 42.6666C16.4728 42.6666 17.6667 41.4727 17.6667 39.9999C17.6667 38.5271 16.4728 37.3332 15 37.3332C13.5272 37.3332 12.3333 38.5271 12.3333 39.9999ZM285.333 -14.0001C285.333 -12.5273 286.527 -11.3334 288 -11.3334C289.473 -11.3334 290.667 -12.5273 290.667 -14.0001C290.667 -15.4729 289.473 -16.6668 288 -16.6668C286.527 -16.6668 285.333 -15.4729 285.333 -14.0001ZM-21.6667 77.9999C-21.6667 79.4727 -20.4728 80.6666 -19 80.6666C-17.5272 80.6666 -16.3333 79.4727 -16.3333 77.9999C-16.3333 76.5271 -17.5272 75.3332 -19 75.3332C-20.4728 75.3332 -21.6667 76.5271 -21.6667 77.9999ZM182.333 67.9999C182.333 69.4727 183.527 70.6666 185 70.6666C186.473 70.6666 187.667 69.4727 187.667 67.9999C187.667 66.5271 186.473 65.3332 185 65.3332C183.527 65.3332 182.333 66.5271 182.333 67.9999ZM280.333 86.9999C280.333 88.4727 281.527 89.6666 283 89.6666C284.473 89.6666 285.667 88.4727 285.667 86.9999C285.667 85.5271 284.473 84.3332 283 84.3332C281.527 84.3332 280.333 85.5271 280.333 86.9999ZM41.3333 101C41.3333 102.473 42.5272 103.667 44 103.667C45.4728 103.667 46.6667 102.473 46.6667 101C46.6667 99.5271 45.4728 98.3332 44 98.3332C42.5272 98.3332 41.3333 99.5271 41.3333 101ZM186.333 114C186.333 115.473 187.527 116.667 189 116.667C190.473 116.667 191.667 115.473 191.667 114C191.667 112.527 190.473 111.333 189 111.333C187.527 111.333 186.333 112.527 186.333 114ZM329.333 119C329.333 120.473 330.527 121.666 332 121.666C333.473 121.666 334.667 120.473 334.667 119C334.667 117.527 333.473 116.333 332 116.333C330.527 116.333 329.333 117.527 329.333 119ZM-105.667 40.0004C-105.667 41.4731 -104.473 42.667 -103 42.667C-101.527 42.667 -100.333 41.4731 -100.333 40.0004C-100.333 38.5276 -101.527 37.3337 -103 37.3337C-104.473 37.3337 -105.667 38.5276 -105.667 40.0004ZM32 10.4999H337.5V9.49991H32V10.4999ZM-8.99999 55.4999H154V54.4999H-8.99999V55.4999ZM-19 28.4999H142.5V27.4999H-19V28.4999ZM243 21.4999H183.657V22.4999H243V21.4999ZM247.5 17.9999V-0.637115H246.5V17.9999H247.5ZM249.311 -3.70255L271.741 -16.0622L271.259 -16.938L248.828 -4.57839L249.311 -3.70255ZM247.5 -0.637115C247.5 -1.91255 248.194 -3.08702 249.311 -3.70255L248.828 -4.57839C247.392 -3.78699 246.5 -2.27696 246.5 -0.637115H247.5ZM243 22.4999C245.485 22.4999 247.5 20.4852 247.5 17.9999H246.5C246.5 19.9329 244.933 21.4999 243 21.4999V22.4999ZM104.151 22.4999H154.843V21.4999H104.151V22.4999ZM100.651 17.9999V8.14628H99.6508V17.9999H100.651ZM98.2975 4.1913L84.2385 -3.43953L83.7615 -2.56065L97.8205 5.07018L98.2975 4.1913ZM100.651 8.14628C100.651 6.49619 99.7477 4.97845 98.2975 4.1913L97.8205 5.07018C98.9484 5.68241 99.6508 6.86287 99.6508 8.14628H100.651ZM104.151 21.4999C102.218 21.4999 100.651 19.9329 100.651 17.9999H99.6508C99.6508 20.4852 101.666 22.4999 104.151 22.4999V21.4999ZM313.5 39.9999V168H314.5V39.9999H313.5ZM14.5 39.9999V168H15.5V39.9999H14.5ZM287.5 -14.0001V39.9999H288.5V-14.0001H287.5ZM-19 78.4999H147V77.4999H-19V78.4999ZM185 68.4999H351V67.4999H185V68.4999ZM283 86.4999H196V87.4999H283V86.4999ZM44 101.5H147V100.5H44V101.5ZM-4.99999 124.5H100V123.5H-4.99999V124.5ZM103.5 128V150H104.5V128H103.5ZM100 124.5C101.933 124.5 103.5 126.067 103.5 128H104.5C104.5 125.515 102.485 123.5 100 123.5V124.5ZM189 114.5H222.875V113.5H189V114.5ZM226.375 118V130.258H227.375V118H226.375ZM227.7 133.447L236.647 142.354L237.353 141.646L228.406 132.738L227.7 133.447ZM226.375 130.258C226.375 131.455 226.852 132.603 227.7 133.447L228.406 132.738C227.746 132.081 227.375 131.189 227.375 130.258H226.375ZM222.875 114.5C224.808 114.5 226.375 116.067 226.375 118H227.375C227.375 115.515 225.36 113.5 222.875 113.5V114.5ZM332 118.5H248.414V119.5H332V118.5ZM244.914 115V79.7157H243.914V115H244.914ZM243.57 76.5082L222.518 55.7924L221.817 56.5052L242.869 77.2209L243.57 76.5082ZM244.914 79.7157C244.914 78.5096 244.43 77.3541 243.57 76.5082L242.869 77.2209C243.538 77.8789 243.914 78.7776 243.914 79.7157H244.914ZM248.414 118.5C246.481 118.5 244.914 116.933 244.914 115H243.914C243.914 117.485 245.929 119.5 248.414 119.5V118.5ZM-103 40.5004L58.7031 40.4999V39.4999L-103 39.5004V40.5004ZM62.2031 43.9999L62.2032 116.413H63.2032L63.2031 43.9999H62.2031ZM63.5348 119.609L106.648 162.355L107.352 161.645L64.2389 118.899L63.5348 119.609ZM62.2032 116.413C62.2032 117.613 62.6826 118.764 63.5348 119.609L64.2389 118.899C63.576 118.241 63.2032 117.347 63.2032 116.413H62.2032ZM58.7031 40.4999C60.6361 40.4999 62.2031 42.0669 62.2031 43.9999H63.2031C63.2031 41.5146 61.1884 39.4999 58.7031 39.4999V40.4999ZM314 39.4999H152.297V40.4999H314V39.4999ZM147.797 43.9999V116.413H148.797V43.9999H147.797ZM146.761 118.899L103.648 161.645L104.352 162.355L147.465 119.609L146.761 118.899ZM147.797 116.413C147.797 117.347 147.424 118.241 146.761 118.899L147.465 119.609C148.317 118.764 148.797 117.613 148.797 116.413H147.797ZM152.297 39.4999C149.812 39.4999 147.797 41.5146 147.797 43.9999H148.797C148.797 42.0669 150.364 40.4999 152.297 40.4999V39.4999ZM157.318 23.525L166.146 32.3535L166.854 31.6463L158.025 22.8179L157.318 23.525ZM219.362 54.4999H200.5V55.4999H219.362V54.4999ZM142.146 28.3535L152.646 38.8535L153.354 38.1463L142.854 27.6463L142.146 28.3535ZM180.475 22.8179L169.146 34.1463L169.854 34.8535L181.182 23.525L180.475 22.8179ZM154.843 22.4999C155.771 22.4999 156.662 22.8686 157.318 23.525L158.025 22.8179C157.181 21.974 156.037 21.4999 154.843 21.4999V22.4999ZM222.518 55.7924C221.677 54.9641 220.543 54.4999 219.362 54.4999V55.4999C220.28 55.4999 221.162 55.861 221.817 56.5052L222.518 55.7924ZM183.657 21.4999C182.463 21.4999 181.319 21.974 180.475 22.8179L181.182 23.525C181.838 22.8686 182.729 22.4999 183.657 22.4999V21.4999Z"
        fill="url(#paint0_radial_342_43)" fill-opacity="0.3" />
      <path
        d="M205.814 42.7297L172.141 23.1663C169.493 21.628 166.235 21.6102 163.571 23.1198L129.407 42.4763C126.655 44.0354 124.966 46.979 125.001 50.1563L125.424 89.6073C125.457 92.6838 127.101 95.5144 129.749 97.0526L163.422 116.616C166.132 118.19 169.475 118.169 172.165 116.562L205.435 96.6861C208.027 95.137 209.631 92.3408 209.669 89.3064L210.139 50.3751C210.177 47.2272 208.524 44.3038 205.814 42.7297Z"
        fill="#90AECD" />
      <path
        d="M201.001 45.7473L171.182 28.3581C168.837 26.9907 165.951 26.9749 163.592 28.3167L133.338 45.5221C130.901 46.9079 129.406 49.5243 129.436 52.3486L129.811 87.4151C129.84 90.1498 131.296 92.6658 133.641 94.0331L163.46 111.423C165.86 112.822 168.82 112.803 171.202 111.375L200.665 93.7073C202.961 92.3303 204.381 89.8448 204.414 87.1476L204.831 52.543C204.864 49.7449 203.4 47.1464 201.001 45.7473Z"
        fill="#202024" />
      <path
        d="M200.331 46.8964L201.001 45.7472M200.331 46.8964C202.313 48.052 203.529 50.2031 203.501 52.5269L203.084 87.1314C203.056 89.3713 201.877 91.429 199.98 92.5663L170.518 110.234C168.552 111.413 166.111 111.428 164.131 110.273L134.311 92.8838C132.374 91.7545 131.165 89.6717 131.141 87.4008M200.331 46.8964L170.511 29.5071C168.576 28.3787 166.197 28.3657 164.25 29.473L133.996 46.6784C131.983 47.8229 130.741 49.9888 130.766 52.3342L131.141 87.4008M131.141 87.4008L129.811 87.415"
        stroke="url(#paint1_linear_342_43)" stroke-width="2.66062" />
      <path
        d="M192.532 52.3639L170.168 39.7567C168.409 38.7654 166.245 38.754 164.476 39.7268L141.785 52.2006C139.958 53.2053 138.836 55.1023 138.859 57.1498L139.14 82.5731C139.162 84.5557 140.254 86.3798 142.013 87.3711L164.377 99.9785C166.177 100.993 168.397 100.98 170.183 99.9437L192.28 87.1349C194.002 86.1366 195.068 84.3347 195.092 82.3792L195.405 57.2908C195.43 55.2622 194.332 53.3783 192.532 52.3639Z"
        fill="url(#paint2_linear_342_43)" />
      <path
        d="M161.577 76.9178C161.577 76.9178 160.155 77.7804 162.563 78.0379C165.459 78.4113 166.996 78.3469 170.199 77.7289C170.839 78.128 171.518 78.4628 172.236 78.7203C165.023 81.8231 155.902 78.54 161.577 76.9178ZM160.654 72.8879C160.654 72.8879 159.117 74.0595 161.513 74.317C164.651 74.626 167.124 74.6904 171.377 73.8278C171.787 74.2527 172.3 74.5617 172.85 74.7548C164.165 77.3555 154.428 74.9994 160.642 72.9008L160.654 72.8879ZM177.667 79.9434C177.667 79.9434 178.718 80.806 176.502 81.4884C172.376 82.7244 159.181 83.0978 155.492 81.4884C154.198 80.9348 156.657 80.1236 157.452 80.0078C158.259 79.8275 158.682 79.8275 158.682 79.8275C157.26 78.8361 149.253 81.8746 154.62 82.7373C169.353 85.1578 181.485 81.6815 177.667 79.9563V79.9434ZM162.243 68.6778C162.243 68.6778 155.53 70.2872 159.835 70.8408C161.679 71.0854 165.318 71.021 168.713 70.7764C171.48 70.5318 174.26 70.0297 174.26 70.0297C174.26 70.0297 173.273 70.4674 172.594 70.8923C165.753 72.6948 152.622 71.8837 156.388 70.0297C159.591 68.4847 162.243 68.6649 162.243 68.6649V68.6778ZM174.26 75.4243C181.165 71.8322 177.962 68.3688 175.733 68.7937C175.182 68.9224 174.926 69.0383 174.926 69.0383C174.926 69.0383 175.105 68.6649 175.541 68.549C179.922 67.0041 183.368 73.1969 174.119 75.6045C174.119 75.6045 174.183 75.5402 174.247 75.4243H174.26ZM162.922 85.2093C169.571 85.647 179.743 84.9646 179.986 81.7974C179.986 81.7974 179.499 83.0334 174.503 83.9604C168.828 85.0161 161.807 84.8874 157.682 84.205C157.682 84.205 158.541 84.9518 162.922 85.1964V85.2093Z"
        fill="#8CBAEC" />
      <path
        d="M170.084 48.2451C170.084 48.2451 173.901 52.1462 166.445 58.0301C160.463 62.7938 165.087 65.5233 166.445 68.6262C162.935 65.4718 160.411 62.6779 162.128 60.0772C164.652 56.2405 171.621 54.3865 170.071 48.2451H170.084ZM168.124 66.0254C169.917 68.0726 167.637 69.9265 167.637 69.9265C167.637 69.9265 172.198 67.5704 170.097 64.6607C168.188 61.8797 166.702 60.5149 174.721 55.8671C174.721 55.8671 162.09 59.0215 168.124 66.0254Z"
        fill="#8CBAEC" />
      <g filter="url(#filter0_f_342_43)">
        <path
          d="M168 91C179.598 91 189 81.598 189 70C189 58.402 179.598 49 168 49C156.402 49 147 58.402 147 70C147 81.598 156.402 91 168 91Z"
          fill="#8CBAEC" />
      </g>
    </g>
  </g>
  <defs>
    <filter id="filter0_f_342_43" x="67" y="-31" width="202" height="202" filterUnits="userSpaceOnUse"
      color-interpolation-filters="sRGB">
      <feFlood flood-opacity="0" result="BackgroundImageFix" />
      <feBlend mode="normal" in="SourceGraphic" in2="BackgroundImageFix" result="shape" />
      <feGaussianBlur stdDeviation="40" result="effect1_foregroundBlur_342_43" />
    </filter>
    <radialGradient id="paint0_radial_342_43" cx="0" cy="0" r="1" gradientUnits="userSpaceOnUse"
      gradientTransform="translate(167 68.9999) rotate(90) scale(72.5 178.401)">
      <stop stop-color="#90AECD" />
      <stop offset="1" stop-color="#90AECD" stop-opacity="0" />
    </radialGradient>
    <linearGradient id="paint1_linear_342_43" x1="149.332" y1="35.835" x2="186.892" y2="101.831"
      gradientUnits="userSpaceOnUse">
      <stop stop-color="#336AA4" />
      <stop offset="1" stop-color="#336AA4" stop-opacity="0.25" />
    </linearGradient>
    <linearGradient id="paint2_linear_342_43" x1="138.869" y1="39.1753" x2="200.444" y2="95.6039"
      gradientUnits="userSpaceOnUse">
      <stop stop-color="#336AA4" />
      <stop offset="1" stop-color="#121214" />
    </linearGradient>
    <clipPath id="clip0_342_43">
      <rect width="336" height="140" fill="white" />
    </clipPath>
  </defs>
</svg>