<svg width="336" height="140" viewBox="0 0 336 140" fill="none" xmlns="http://www.w3.org/2000/svg">
  <g clip-path="url(#clip0_343_70)">
    <mask id="mask0_343_70" style="mask-type:luminance" maskUnits="userSpaceOnUse" x="0" y="0" width="336" height="140">
      <path
        d="M332 0H4C1.79086 0 0 1.79086 0 4V136C0 138.209 1.79086 140 4 140H332C334.209 140 336 138.209 336 136V4C336 1.79086 334.209 0 332 0Z"
        fill="white" />
    </mask>
    <g mask="url(#mask0_343_70)">
      <path
        d="M332 0H4C1.79086 0 0 1.79086 0 4V136C0 138.209 1.79086 140 4 140H332C334.209 140 336 138.209 336 136V4C336 1.79086 334.209 0 332 0Z"
        fill="#121214" />
      <g filter="url(#filter0_f_343_70)">
        <path
          d="M168 96C182.359 96 194 84.3594 194 70C194 55.6406 182.359 44 168 44C153.641 44 142 55.6406 142 70C142 84.3594 153.641 96 168 96Z"
          fill="#8CC84B" />
      </g>
      <path fill-rule="evenodd" clip-rule="evenodd"
        d="M352.175 -81.3333C352.175 -79.8606 351.141 -78.0697 349.865 -77.3333C348.59 -76.5969 347.556 -77.1939 347.556 -78.6666C347.556 -80.1394 348.59 -81.9303 349.865 -82.6666C351.141 -83.403 352.175 -82.8061 352.175 -81.3333ZM170.309 23.6667C170.309 25.1394 169.275 26.9303 168 27.6667C166.725 28.4031 165.691 27.8061 165.691 26.3333C165.691 24.8606 166.725 23.0697 168 22.3333C169.275 21.597 170.309 22.1939 170.309 23.6667ZM344.619 -76.4711L341.122 -74.4519V-75.4519L344.619 -77.4711V-76.4711ZM337.624 -72.4327L334.127 -70.4134V-71.4134L337.624 -73.4327V-72.4327ZM330.63 -68.3942L327.132 -66.375V-67.375L330.63 -69.3942V-68.3942ZM323.635 -64.3557L320.137 -62.3365V-63.3365L323.635 -65.3557V-64.3557ZM316.64 -60.3173L313.142 -58.2981V-59.2981L316.64 -61.3173V-60.3173ZM309.645 -56.2788L306.148 -54.2596V-55.2596L309.645 -57.2788V-56.2788ZM302.65 -52.2404L299.153 -50.2211V-51.2211L302.65 -53.2404V-52.2404ZM295.655 -48.2019L292.158 -46.1827V-47.1827L295.655 -49.2019V-48.2019ZM288.661 -44.1634L285.163 -42.1442V-43.1442L288.661 -45.1634V-44.1634ZM281.666 -40.125L278.168 -38.1058V-39.1058L281.666 -41.125V-40.125ZM274.671 -36.0865L271.174 -34.0673V-35.0673L274.671 -37.0865V-36.0865ZM267.676 -32.0481L264.179 -30.0288V-31.0288L267.676 -33.0481V-32.0481ZM260.681 -28.0096L257.184 -25.9904V-26.9904L260.681 -29.0096V-28.0096ZM253.687 -23.9712L250.189 -21.9519V-22.9519L253.687 -24.9712V-23.9712ZM246.692 -19.9327L243.194 -17.9135V-18.9135L246.692 -20.9327V-19.9327ZM239.697 -15.8942L236.199 -13.875V-14.875L239.697 -16.8942V-15.8942ZM232.702 -11.8558L229.205 -9.83654V-10.8365L232.702 -12.8558V-11.8558ZM225.707 -7.81731L222.21 -5.79808V-6.79808L225.707 -8.81731V-7.81731ZM218.712 -3.77884L215.215 -1.75961V-2.75961L218.712 -4.77884V-3.77884ZM211.718 0.259621L208.22 2.27886V1.27886L211.718 -0.740379V0.259621ZM204.723 4.29809L201.225 6.31732V5.31732L204.723 3.29809V4.29809ZM197.728 8.33656L194.231 10.3558V9.35578L197.728 7.33656V8.33656ZM190.733 12.375L187.236 14.3943V13.3943L190.733 11.375V12.375ZM183.738 16.4135L180.241 18.4327V17.4327L183.738 15.4135V16.4135ZM176.743 20.452L173.246 22.4712V21.4712L176.743 19.452V20.452ZM12.2766 -15.5L-39.6698 14.4912C-41.1047 15.3197 -41.1047 16.6628 -39.6698 17.4912L12.2766 47.4825C13.7114 48.3109 16.0378 48.3109 17.4727 47.4825L40.1076 34.4142C40.0569 34.3883 40.0072 34.3614 39.9587 34.3334C38.6833 33.597 38.6833 32.4031 39.9587 31.6667C41.2341 30.9303 43.3021 30.9303 44.5775 31.6667C44.626 31.6947 44.6727 31.7234 44.7176 31.7527L69.4191 17.4912C70.854 16.6628 70.854 15.3197 69.4191 14.4912L17.4727 -15.5C16.0378 -16.3284 13.7114 -16.3284 12.2766 -15.5ZM45.3558 32.3842L70.2851 17.9912C72.1983 16.8867 72.1983 15.0958 70.2851 13.9912L18.3387 -16C16.4256 -17.1046 13.3237 -17.1046 11.4105 -16L-40.5358 13.9912C-42.449 15.0958 -42.449 16.8867 -40.5358 17.9912L11.4105 47.9825C13.3237 49.0871 16.4256 49.0871 18.3387 47.9825L41.2015 34.7827C42.3453 35.0103 43.6645 34.8605 44.5775 34.3334C45.4906 33.8062 45.75 33.0446 45.3558 32.3842ZM199.33 25.4912L251.277 -4.50004C252.711 -5.32847 255.038 -5.32847 256.473 -4.50004L308.419 25.4912C309.854 26.3197 309.854 27.6628 308.419 28.4912L282.934 43.2052L280.197 41.625L279.331 42.125L282.068 43.7052L256.473 58.4825C255.038 59.3109 252.711 59.3109 251.277 58.4825L199.33 28.4912C197.895 27.6628 197.895 26.3197 199.33 25.4912ZM198.464 28.9912C196.551 27.8867 196.551 26.0958 198.464 24.9912L250.411 -5.00004C252.324 -6.1046 255.426 -6.1046 257.339 -5.00004L309.285 24.9912C311.198 26.0958 311.198 27.8867 309.285 28.9912L257.339 58.9825C255.426 60.0871 252.324 60.0871 250.411 58.9825L198.464 28.9912ZM266.33 126.491L318.277 96.5C319.711 95.6716 322.038 95.6716 323.473 96.5L375.419 126.491C376.854 127.32 376.854 128.663 375.419 129.491L323.473 159.482C322.038 160.311 319.711 160.311 318.277 159.482L266.33 129.491C264.895 128.663 264.895 127.32 266.33 126.491ZM265.464 129.991C263.551 128.887 263.551 127.096 265.464 125.991L317.411 96C319.324 94.8954 322.426 94.8954 324.339 96L376.285 125.991C378.198 127.096 378.198 128.887 376.285 129.991L324.339 159.982C322.426 161.087 319.324 161.087 317.411 159.982L265.464 129.991ZM95.3302 5.61548L116.53 -6.6245C117.965 -7.45292 120.292 -7.45292 121.727 -6.6245L142.927 5.61548C144.362 6.44391 144.362 7.78705 142.927 8.61548L121.727 20.8555C120.292 21.6839 117.965 21.6839 116.53 20.8555L95.3302 8.61548C93.8953 7.78705 93.8953 6.44391 95.3302 5.61548ZM94.4642 9.11548C92.551 8.01091 92.551 6.22005 94.4642 5.11548L115.664 -7.1245C117.578 -8.22906 120.679 -8.22906 122.593 -7.1245L143.793 5.11548C145.706 6.22005 145.706 8.01091 143.793 9.11548L122.593 21.3555C120.679 22.4601 117.578 22.4601 115.664 21.3555L94.4642 9.11548ZM-0.469536 58.5L-21.6698 70.74C-23.1047 71.5684 -23.1047 72.9116 -21.6698 73.74L-0.469536 85.98C0.96534 86.8084 3.29174 86.8084 4.72662 85.98L25.9269 73.74C27.3618 72.9116 27.3618 71.5684 25.9269 70.74L4.72662 58.5C3.29174 57.6716 0.965343 57.6716 -0.469536 58.5ZM-22.5358 70.24C-24.449 71.3446 -24.449 73.1354 -22.5358 74.24L-1.33556 86.48C0.577606 87.5845 3.67947 87.5845 5.59264 86.48L26.7929 74.24C28.7061 73.1354 28.7061 71.3446 26.7929 70.24L5.59265 58C3.67947 56.8955 0.57761 56.8955 -1.33556 58L-22.5358 70.24ZM55.3302 62.7969L93.877 40.5419C95.3118 39.7135 97.6382 39.7135 99.0731 40.5419L137.62 62.7969C139.055 63.6253 139.055 64.9685 137.62 65.7969L99.0731 88.0519C97.6382 88.8803 95.3118 88.8803 93.877 88.0519L55.3302 65.7969C53.8953 64.9685 53.8953 63.6253 55.3302 62.7969ZM54.4642 66.2969C52.551 65.1923 52.551 63.4015 54.4642 62.2969L72.6268 51.8107C71.5199 51.9963 70.2762 51.8372 69.4036 51.3333C68.1281 50.597 68.1281 49.4031 69.4036 48.6667C70.679 47.9303 72.7469 47.9303 74.0224 48.6667C74.895 49.1705 75.1706 49.8885 74.8491 50.5276L93.0109 40.0419C94.9241 38.9373 98.026 38.9373 99.9391 40.0419L138.486 62.2969C140.399 63.4015 140.399 65.1923 138.486 66.2969L99.9391 88.5519C98.026 89.6564 94.9241 89.6564 93.0109 88.5519L71.755 76.2798C72.1007 76.9455 72.3095 77.6715 72.3095 78.3333C72.3095 79.8061 71.2755 80.4031 70.0001 79.6667C68.7246 78.9303 67.6907 77.1394 67.6907 75.6667C67.6907 75.0049 67.8995 74.5199 68.2451 74.2533L54.4642 66.2969ZM50.2625 124.447L36.3302 132.491C34.8953 133.32 34.8953 134.663 36.3302 135.491L88.2766 165.482C89.7114 166.311 92.0378 166.311 93.4727 165.482L145.419 135.491C146.854 134.663 146.854 133.32 145.419 132.491L93.4727 102.5C92.0378 101.672 89.7115 101.672 88.2766 102.5L72.2591 111.748C72.2921 111.946 72.3095 112.142 72.3095 112.333C72.3095 113.806 71.2755 114.403 70.0001 113.667C69.8348 113.571 69.6735 113.458 69.5181 113.33L51.1285 123.947L51.9845 124.442L51.1185 124.942L50.2625 124.447ZM68.8871 112.695L50.2625 123.447L48.5493 122.458L47.6833 122.958L49.3964 123.947L35.4642 131.991C33.551 133.096 33.551 134.887 35.4642 135.991L87.4105 165.982C89.3237 167.087 92.4256 167.087 94.3387 165.982L146.285 135.991C148.198 134.887 148.198 133.096 146.285 131.991L94.3387 102C92.4256 100.895 89.3237 100.895 87.4106 102L72.0241 110.883C71.631 109.833 70.872 108.837 70.0001 108.333C68.7246 107.597 67.6907 108.194 67.6907 109.667C67.6907 110.673 68.1739 111.829 68.8871 112.695ZM292.366 105.833C291.091 106.57 289.023 106.57 287.747 105.833C286.472 105.097 286.472 103.903 287.747 103.167C289.023 102.43 291.091 102.43 292.366 103.167C293.642 103.903 293.642 105.097 292.366 105.833ZM189.309 46.3333C188.034 47.0697 185.966 47.0697 184.69 46.3334C183.415 45.597 183.415 44.4031 184.69 43.6667C185.966 42.9303 188.034 42.9303 189.309 43.6667C190.585 44.4031 190.585 45.597 189.309 46.3333ZM284.471 101.775L281.036 99.7917L281.902 99.2917L285.337 101.275L284.471 101.775ZM277.6 97.8083L274.165 95.825L275.031 95.325L278.466 97.3083L277.6 97.8083ZM270.73 93.8417L267.295 91.8584L268.161 91.3584L271.596 93.3417L270.73 93.8417ZM263.859 89.875L260.424 87.8917L261.29 87.3917L264.725 89.375L263.859 89.875ZM256.989 85.9084L253.554 83.925L254.42 83.425L257.855 85.4084L256.989 85.9084ZM250.118 81.9417L246.683 79.9583L247.549 79.4583L250.985 81.4417L250.118 81.9417ZM243.248 77.975L239.813 75.9917L240.679 75.4917L244.114 77.475L243.248 77.975ZM236.378 74.0083L232.942 72.025L233.808 71.525L237.244 73.5083L236.378 74.0083ZM229.507 70.0417L226.072 68.0583L226.938 67.5583L230.373 69.5417L229.507 70.0417ZM222.637 66.075L219.201 64.0917L220.067 63.5917L223.503 65.575L222.637 66.075ZM215.766 62.1083L212.331 60.125L213.197 59.625L216.632 61.6083L215.766 62.1083ZM208.896 58.1417L205.46 56.1583L206.326 55.6583L209.762 57.6417L208.896 58.1417ZM202.025 54.175L198.59 52.1917L199.456 51.6917L202.891 53.675L202.025 54.175ZM195.155 50.2083L191.719 48.225L192.586 47.725L196.021 49.7083L195.155 50.2083ZM136.747 46.8333C138.023 47.5697 140.091 47.5697 141.366 46.8333C142.642 46.097 142.642 44.9031 141.366 44.1667C140.091 43.4303 138.023 43.4303 136.747 44.1667C135.472 44.9031 135.472 46.097 136.747 46.8333ZM33.6903 -12.6666C34.9657 -11.9303 37.0336 -11.9303 38.3091 -12.6666C39.5845 -13.403 39.5845 -14.5969 38.3091 -15.3333C37.0337 -16.0697 34.9657 -16.0697 33.6903 -15.3333C32.4148 -14.5969 32.4148 -13.403 33.6903 -12.6666ZM130.036 40.7917L133.471 42.775L134.337 42.275L130.902 40.2917L130.036 40.7917ZM123.165 36.825L126.6 38.8083L127.466 38.3083L124.031 36.325L123.165 36.825ZM116.295 32.8584L119.73 34.8417L120.596 34.3417L117.161 32.3584L116.295 32.8584ZM109.424 28.8917L112.859 30.875L113.725 30.375L110.29 28.3917L109.424 28.8917ZM102.554 24.925L105.989 26.9083L106.855 26.4083L103.42 24.425L102.554 24.925ZM95.6833 20.9583L99.1185 22.9417L99.9845 22.4417L96.5493 20.4583L95.6833 20.9583ZM88.8128 16.9917L92.248 18.975L93.1141 18.475L89.6788 16.4917L88.8128 16.9917ZM81.9423 13.025L85.3776 15.0083L86.2436 14.5083L82.8084 12.525L81.9423 13.025ZM75.0719 9.05833L78.5071 11.0417L79.3731 10.5417L75.9379 8.55833L75.0719 9.05833ZM68.2014 5.09165L71.6366 7.07499L72.5027 6.57499L69.0674 4.59165L68.2014 5.09165ZM61.3309 1.125L64.7662 3.10833L65.6322 2.60833L62.197 0.624992L61.3309 1.125ZM54.4605 -2.84168L57.8957 -0.858345L58.7617 -1.35834L55.3265 -3.34168L54.4605 -2.84168ZM47.59 -6.80834L51.0252 -4.82501L51.8913 -5.32501L48.456 -7.30834L47.59 -6.80834ZM40.7195 -10.775L44.1548 -8.79168L45.0208 -9.29168L41.5855 -11.275L40.7195 -10.775ZM93.3661 148.833C92.0907 149.57 90.0228 149.57 88.7473 148.833C87.4719 148.097 87.4719 146.903 88.7473 146.167C90.0228 145.43 92.0907 145.43 93.3661 146.167C94.6416 146.903 94.6416 148.097 93.3661 148.833ZM-9.69091 89.3333C-10.9664 90.0697 -13.0343 90.0697 -14.3097 89.3334C-15.5851 88.597 -15.5852 87.4031 -14.3097 86.6667C-13.0343 85.9303 -10.9663 85.9303 -9.6909 86.6667C-8.41545 87.4031 -8.41546 88.597 -9.69091 89.3333ZM85.4709 144.775L82.0356 142.792L82.9016 142.292L86.3369 144.275L85.4709 144.775ZM78.6004 140.808L75.1652 138.825L76.0312 138.325L79.4664 140.308L78.6004 140.808ZM71.7299 136.842L68.2947 134.858L69.1607 134.358L72.5959 136.342L71.7299 136.842ZM64.8594 132.875L61.4242 130.892L62.2902 130.392L65.7255 132.375L64.8594 132.875ZM57.989 128.908L54.5537 126.925L55.4198 126.425L58.855 128.408L57.989 128.908ZM44.248 120.975L40.8128 118.992L41.6788 118.492L45.1141 120.475L44.248 120.975ZM37.3776 117.008L33.9423 115.025L34.8084 114.525L38.2436 116.508L37.3776 117.008ZM30.5071 113.042L27.0719 111.058L27.9379 110.558L31.3731 112.542L30.5071 113.042ZM23.6366 109.075L20.2014 107.092L21.0674 106.592L24.5027 108.575L23.6366 109.075ZM16.7662 105.108L13.3309 103.125L14.197 102.625L17.6322 104.608L16.7662 105.108ZM9.89569 101.142L6.46046 99.1583L7.32648 98.6583L10.7617 100.642L9.89569 101.142ZM3.02522 97.175L-0.410011 95.1917L0.456009 94.6917L3.89125 96.675L3.02522 97.175ZM-3.84525 93.2083L-7.28048 91.225L-6.41446 90.725L-2.97922 92.7083L-3.84525 93.2083ZM354.747 87.8333C356.023 88.5697 358.091 88.5697 359.366 87.8333C360.642 87.097 360.642 85.9031 359.366 85.1667C358.091 84.4303 356.023 84.4303 354.747 85.1667C353.472 85.9031 353.472 87.097 354.747 87.8333ZM251.69 28.3334C252.966 29.0697 255.034 29.0697 256.309 28.3334C257.585 27.597 257.585 26.4031 256.309 25.6667C255.034 24.9303 252.966 24.9303 251.69 25.6667C250.415 26.4031 250.415 27.597 251.69 28.3334ZM348.036 81.7917L351.471 83.775L352.337 83.275L348.902 81.2917L348.036 81.7917ZM341.165 77.825L344.6 79.8083L345.466 79.3083L342.031 77.325L341.165 77.825ZM334.295 73.8584L337.73 75.8417L338.596 75.3417L335.161 73.3584L334.295 73.8584ZM327.424 69.8917L330.859 71.875L331.725 71.375L328.29 69.3917L327.424 69.8917ZM320.554 65.925L323.989 67.9084L324.855 67.4084L321.42 65.425L320.554 65.925ZM313.683 61.9583L317.118 63.9417L317.985 63.4417L314.549 61.4583L313.683 61.9583ZM306.813 57.9917L310.248 59.975L311.114 59.475L307.679 57.4917L306.813 57.9917ZM299.942 54.025L303.378 56.0083L304.244 55.5083L300.808 53.525L299.942 54.025ZM293.072 50.0583L296.507 52.0417L297.373 51.5417L293.938 49.5583L293.072 50.0583ZM286.201 46.0917L289.637 48.075L290.503 47.575L287.067 45.5917L286.201 46.0917ZM272.46 38.1583L275.896 40.1417L276.762 39.6417L273.326 37.6583L272.46 38.1583ZM265.59 34.1917L269.025 36.175L269.891 35.675L266.456 33.6917L265.59 34.1917ZM258.72 30.225L262.155 32.2083L263.021 31.7083L259.586 29.725L258.72 30.225ZM65.759 47.0625L62.0784 44.9375L62.9445 44.4375L66.6251 46.5625L65.759 47.0625ZM58.3978 42.8125L54.7172 40.6875L55.5832 40.1875L59.2639 42.3125L58.3978 42.8125ZM51.0366 38.5625L47.356 36.4375L48.222 35.9375L51.9026 38.0625L51.0366 38.5625ZM342.67 24.1349C343.932 24.8934 346 24.9295 347.288 24.2155C348.576 23.5015 348.597 22.3078 347.334 21.5492C346.072 20.7907 344.004 20.7546 342.716 21.4686C341.428 22.1826 341.407 23.3764 342.67 24.1349ZM294.668 -4.70726C295.931 -3.94874 297.998 -3.91264 299.286 -4.62665C300.575 -5.34066 300.595 -6.53438 299.333 -7.29291C298.071 -8.05144 296.003 -8.08753 294.715 -7.37352C293.427 -6.65951 293.406 -5.46579 294.668 -4.70726ZM335.993 17.9341L339.422 19.9942L340.296 19.5094L336.868 17.4493L335.993 17.9341ZM329.136 13.8138L332.564 15.8739L333.439 15.3891L330.01 13.329L329.136 13.8138ZM322.278 9.69346L325.707 11.7536L326.582 11.2688L323.153 9.20865L322.278 9.69346ZM315.421 5.57315L318.85 7.63331L319.724 7.1485L316.296 5.08834L315.421 5.57315ZM308.564 1.45285L311.992 3.513L312.867 3.02819L309.438 0.96804L308.564 1.45285ZM301.706 -2.66745L305.135 -0.6073L306.01 -1.09211L302.581 -3.15226L301.706 -2.66745ZM70.4331 83.625V87.875L69.5671 87.375V83.125L70.4331 83.625ZM70.4331 92.125V96.375L69.5671 95.875V91.625L70.4331 92.125ZM70.4331 100.625V104.875L69.5671 104.375V100.125L70.4331 100.625ZM344.057 52.6667C345.332 51.9303 346.366 50.1394 346.366 48.6667C346.366 47.1939 345.332 46.597 344.057 47.3333C342.781 48.0697 341.747 49.8606 341.747 51.3333C341.747 52.8061 342.781 53.4031 344.057 52.6667ZM162.191 157.667C163.467 156.93 164.501 155.139 164.501 153.667C164.501 152.194 163.467 151.597 162.191 152.333C160.916 153.07 159.882 154.861 159.882 156.333C159.882 157.806 160.916 158.403 162.191 157.667ZM335.313 55.5481L338.811 53.5289V52.5289L335.313 54.5481V55.5481ZM328.318 59.5865L331.816 57.5673V56.5673L328.318 58.5865V59.5865ZM321.324 63.625L324.821 61.6058V60.6058L321.324 62.625V63.625ZM314.329 67.6635L317.826 65.6442V64.6442L314.329 66.6635V67.6635ZM307.334 71.7019L310.831 69.6827V68.6827L307.334 70.7019V71.7019ZM300.339 75.7404L303.836 73.7212V72.7212L300.339 74.7404V75.7404ZM293.344 79.7789L296.842 77.7596V76.7596L293.344 78.7789V79.7789ZM286.349 83.8173L289.847 81.7981V80.7981L286.349 82.8173V83.8173ZM279.355 87.8558L282.852 85.8365V84.8365L279.355 86.8558V87.8558ZM272.36 91.8942L275.857 89.875V88.875L272.36 90.8942V91.8942ZM265.365 95.9327L268.862 93.9135V92.9135L265.365 94.9327V95.9327ZM258.37 99.9712L261.868 97.9519V96.9519L258.37 98.9712V99.9712ZM251.375 104.01L254.873 101.99V100.99L251.375 103.01V104.01ZM244.381 108.048L247.878 106.029V105.029L244.381 107.048V108.048ZM237.386 112.087L240.883 110.067V109.067L237.386 111.087V112.087ZM230.391 116.125L233.888 114.106V113.106L230.391 115.125V116.125ZM223.396 120.163L226.893 118.144V117.144L223.396 119.163V120.163ZM216.401 124.202L219.899 122.183V121.183L216.401 123.202V124.202ZM209.406 128.24L212.904 126.221V125.221L209.406 127.24V128.24ZM202.412 132.279L205.909 130.26V129.26L202.412 131.279V132.279ZM195.417 136.317L198.914 134.298V133.298L195.417 135.317V136.317ZM188.422 140.356L191.919 138.337V137.337L188.422 139.356V140.356ZM181.427 144.394L184.924 142.375V141.375L181.427 143.394V144.394ZM174.432 148.433L177.93 146.414V145.414L174.432 147.433V148.433ZM167.437 152.471L170.935 150.452V149.452L167.437 151.471V152.471Z"
        fill="url(#paint0_radial_343_70)" fill-opacity="0.3" />
      <path opacity="0.5"
        d="M205.813 42.7296L172.14 23.1662C169.492 21.6279 166.234 21.6101 163.57 23.1197L129.406 42.4763C126.654 44.0353 124.965 46.9789 125 50.1562L125.423 89.6072C125.456 92.6837 127.1 95.5143 129.748 97.0526L163.421 116.616C166.131 118.19 169.474 118.169 172.164 116.562L205.434 96.686C208.026 95.1369 209.63 92.3407 209.668 89.3063L210.138 50.375C210.176 47.2271 208.523 44.3037 205.813 42.7296Z"
        fill="#C8E5A9" />
      <path
        d="M200.999 45.7471L171.18 28.3579C168.835 26.9905 165.949 26.9747 163.59 28.3166L133.336 45.5219C130.899 46.9077 129.404 49.5241 129.434 52.3484L129.809 87.415C129.838 90.1496 131.294 92.6656 133.639 94.0329L163.459 111.422C165.858 112.821 168.818 112.803 171.2 111.374L200.663 93.7071C202.959 92.3302 204.379 89.8447 204.412 87.1475L204.829 52.5428C204.863 49.7448 203.398 47.1462 200.999 45.7471Z"
        fill="#202024" />
      <path fill-rule="evenodd" clip-rule="evenodd"
        d="M199.659 48.0455L169.839 30.6563C168.314 29.7666 166.44 29.7565 164.906 30.6293L134.651 47.8347C133.063 48.7379 132.075 50.4534 132.095 52.3199L132.469 87.3865C132.489 89.1936 133.451 90.8432 134.979 91.7345L164.799 109.124C166.359 110.034 168.282 110.022 169.832 109.093L199.294 91.4253C200.791 90.5278 201.73 88.8981 201.752 87.1155L202.168 52.5108C202.191 50.6613 201.223 48.9574 199.659 48.0455ZM204.412 87.1475C204.379 89.8447 202.959 92.3302 200.663 93.7071L171.2 111.374C168.818 112.803 165.858 112.821 163.459 111.422L133.639 94.0329C131.294 92.6656 129.838 90.1496 129.809 87.415L129.434 52.3484C129.404 49.5241 130.899 46.9077 133.336 45.5219L163.59 28.3166C165.949 26.9747 168.835 26.9905 171.18 28.3579L200.999 45.7471C203.398 47.1462 204.863 49.7448 204.829 52.5428L204.412 87.1475Z"
        fill="url(#paint1_linear_343_70)" />
      <path
        d="M192.53 52.3639L170.166 39.7567C168.407 38.7654 166.243 38.754 164.474 39.7268L141.783 52.2007C139.956 53.2053 138.834 55.1023 138.857 57.1499L139.138 82.5731C139.16 84.5557 140.252 86.3799 142.011 87.3711L164.375 99.9785C166.175 100.993 168.395 100.979 170.182 99.9437L192.278 87.1349C194 86.1367 195.066 84.3347 195.09 82.3792L195.403 57.2908C195.428 55.2622 194.33 53.3783 192.53 52.3639Z"
        fill="url(#paint2_linear_343_70)" />
      <path
        d="M166.08 48.9905C166.608 48.6897 167.202 48.5317 167.807 48.5317C168.411 48.5317 169.006 48.6897 169.533 48.9905C174.791 52.0196 180.049 55.0482 185.307 58.0764C185.801 58.3636 186.213 58.7782 186.501 59.2788C186.789 59.7794 186.943 60.3483 186.947 60.9286V79.1601C186.937 79.7618 186.768 80.3494 186.458 80.8614C186.147 81.3733 185.708 81.7905 185.185 82.0691C179.944 85.082 174.705 88.0962 169.467 91.1118C168.929 91.415 168.322 91.5657 167.708 91.5483C167.094 91.5309 166.495 91.3461 165.975 91.0129C164.404 90.0839 162.832 89.1571 161.259 88.2325C160.914 88.073 160.604 87.843 160.349 87.5567C160.55 87.2859 160.908 87.2466 161.199 87.1261C161.845 86.8905 162.467 86.594 163.059 86.2404C163.133 86.1955 163.219 86.1744 163.306 86.1797C163.392 86.185 163.475 86.2165 163.543 86.2702C164.887 87.0557 166.218 87.8642 167.566 88.6415C167.854 88.8108 168.145 88.586 168.391 88.4465C173.533 85.4824 178.678 82.5219 183.823 79.565C183.915 79.5183 183.991 79.4445 184.041 79.3532C184.091 79.2619 184.113 79.1573 184.104 79.0531C184.104 73.041 184.104 67.0279 184.104 61.0139C184.113 60.8969 184.086 60.7799 184.027 60.6791C183.968 60.5783 183.88 60.4989 183.774 60.4519C178.55 57.4526 173.329 54.4519 168.111 51.4499C168.02 51.3867 167.913 51.3529 167.803 51.3529C167.694 51.3529 167.586 51.3867 167.496 51.4499C162.272 54.451 157.051 57.453 151.834 60.4559C151.728 60.5018 151.639 60.5805 151.579 60.6809C151.52 60.7814 151.493 60.8984 151.503 61.0153C151.503 67.0274 151.503 73.0405 151.503 79.0545C151.494 79.1584 151.516 79.2627 151.567 79.3532C151.618 79.4438 151.695 79.5163 151.787 79.561C153.181 80.3663 154.575 81.1694 155.969 81.9703C156.356 82.214 156.789 82.3719 157.239 82.4335C157.69 82.4951 158.148 82.4591 158.584 82.3278C158.962 82.1826 159.288 81.9232 159.517 81.5844C159.746 81.2457 159.869 80.8435 159.869 80.4318C159.875 74.4539 159.869 68.4761 159.869 62.4996C159.867 62.4362 159.879 62.3731 159.903 62.3146C159.927 62.2561 159.963 62.2034 160.008 62.16C160.053 62.1167 160.107 62.0836 160.166 62.063C160.225 62.0424 160.287 62.0347 160.349 62.0405C161.013 62.0405 161.689 62.031 162.359 62.0405C162.424 62.0435 162.487 62.0604 162.545 62.09C162.603 62.1196 162.654 62.1613 162.695 62.2124C162.736 62.2634 162.767 62.3227 162.784 62.3864C162.801 62.4501 162.805 62.5168 162.796 62.5822C162.796 68.598 162.802 74.6137 162.796 80.6282C162.84 81.4453 162.669 82.2597 162.3 82.9864C161.931 83.7132 161.377 84.3257 160.697 84.7601C159.788 85.1921 158.793 85.4024 157.791 85.3744C156.788 85.3465 155.806 85.081 154.921 84.599C153.389 83.8189 151.927 82.8993 150.422 82.0637C149.9 81.7859 149.46 81.3695 149.151 80.8585C148.841 80.3475 148.672 79.7607 148.662 79.1601V60.9286C148.667 60.3361 148.827 59.7558 149.126 59.2477C149.425 58.7397 149.852 58.3227 150.362 58.0399C155.604 55.0252 160.843 52.0087 166.08 48.9905Z"
        fill="#8CC84B" />
      <path
        d="M170.649 61.6165C172.965 61.3109 175.318 61.678 177.437 62.6756C178.206 63.1428 178.841 63.8066 179.28 64.6012C179.719 65.3959 179.947 66.2937 179.941 67.2058C179.911 67.3199 179.842 67.4191 179.746 67.4853C179.65 67.5515 179.534 67.5802 179.419 67.566C178.755 67.566 178.091 67.5755 177.427 67.566C177.299 67.5577 177.18 67.5011 177.091 67.4074C177.002 67.3137 176.951 67.1897 176.947 67.0595C176.872 66.6178 176.704 66.1981 176.453 65.8295C176.203 65.4609 175.877 65.1523 175.498 64.9251C174.237 64.4145 172.876 64.2158 171.525 64.3454C170.529 64.3137 169.545 64.5635 168.68 65.0673C168.382 65.3027 168.164 65.6274 168.057 65.9957C167.949 66.364 167.958 66.7573 168.081 67.1205C168.293 67.6365 168.878 67.7976 169.356 67.9561C172.11 68.6901 175.028 68.617 177.73 69.5813C178.31 69.7455 178.845 70.043 179.295 70.451C179.745 70.8591 180.097 71.3667 180.325 71.9351C180.596 72.7416 180.661 73.605 180.515 74.4444C180.369 75.2837 180.016 76.0714 179.489 76.7335C178.537 77.7417 177.299 78.4216 175.95 78.6784C174.192 79.0424 172.389 79.1205 170.607 78.9099C168.897 78.8105 167.257 78.1817 165.907 77.1073C165.371 76.6067 164.95 75.9915 164.675 75.3057C164.399 74.6199 164.276 73.8806 164.313 73.1405C164.325 73.0208 164.383 72.9109 164.475 72.8347C164.566 72.7586 164.683 72.7225 164.801 72.7342C165.465 72.7342 166.135 72.7274 166.803 72.7342C166.865 72.7327 166.927 72.7438 166.984 72.7668C167.042 72.7898 167.094 72.8242 167.139 72.868C167.183 72.9119 167.219 72.9643 167.243 73.0222C167.268 73.0801 167.281 73.1424 167.281 73.2055C167.315 73.6261 167.432 74.0353 167.626 74.4079C167.82 74.7806 168.087 75.1088 168.41 75.3724C169.84 76.0899 171.438 76.3863 173.024 76.2284C174.352 76.3301 175.677 75.9981 176.807 75.2803C177.066 75.0213 177.255 74.6977 177.355 74.3415C177.455 73.9852 177.462 73.6086 177.375 73.2488C177.213 72.6475 176.595 72.3672 176.065 72.1843C173.347 71.3067 170.396 71.625 167.698 70.6336C167.134 70.4651 166.611 70.1737 166.168 69.7795C165.724 69.3853 165.37 68.8977 165.129 68.3502C164.819 67.533 164.741 66.6436 164.903 65.7833C165.065 64.923 165.461 64.1263 166.045 63.4841C167.318 62.3383 168.939 61.6741 170.635 61.6029L170.649 61.6165Z"
        fill="#8CC84B" />
    </g>
  </g>
  <defs>
    <filter id="filter0_f_343_70" x="62" y="-36" width="212" height="212" filterUnits="userSpaceOnUse"
      color-interpolation-filters="sRGB">
      <feFlood flood-opacity="0" result="BackgroundImageFix" />
      <feBlend mode="normal" in="SourceGraphic" in2="BackgroundImageFix" result="shape" />
      <feGaussianBlur stdDeviation="40" result="effect1_foregroundBlur_343_70" />
    </filter>
    <radialGradient id="paint0_radial_343_70" cx="0" cy="0" r="1" gradientUnits="userSpaceOnUse"
      gradientTransform="translate(167.875 57.0001) rotate(90) scale(103.5 173.896)">
      <stop stop-color="#C8E5A9" />
      <stop offset="1" stop-color="#C8E5A9" stop-opacity="0" />
    </radialGradient>
    <linearGradient id="paint1_linear_343_70" x1="149.33" y1="35.8349" x2="186.89" y2="101.831"
      gradientUnits="userSpaceOnUse">
      <stop stop-color="#8CC84B" />
      <stop offset="1" stop-color="#8CC84B" stop-opacity="0.25" />
    </linearGradient>
    <linearGradient id="paint2_linear_343_70" x1="138.867" y1="39.1753" x2="200.442" y2="95.6039"
      gradientUnits="userSpaceOnUse">
      <stop stop-color="#3B6630" />
      <stop offset="1" stop-color="#121214" />
    </linearGradient>
    <clipPath id="clip0_343_70">
      <rect width="336" height="140" fill="white" />
    </clipPath>
  </defs>
</svg>