<svg width="336" height="140" viewBox="0 0 336 140" fill="none" xmlns="http://www.w3.org/2000/svg">
  <g clip-path="url(#clip0_343_61)">
    <mask id="mask0_343_61" style="mask-type:luminance" maskUnits="userSpaceOnUse" x="0" y="0" width="336" height="140">
      <path
        d="M332 0H4C1.79086 0 0 1.79086 0 4V136C0 138.209 1.79086 140 4 140H332C334.209 140 336 138.209 336 136V4C336 1.79086 334.209 0 332 0Z"
        fill="white" />
    </mask>
    <g mask="url(#mask0_343_61)">
      <path
        d="M332 0H4C1.79086 0 0 1.79086 0 4V136C0 138.209 1.79086 140 4 140H332C334.209 140 336 138.209 336 136V4C336 1.79086 334.209 0 332 0Z"
        fill="#121214" />
      <g filter="url(#filter0_f_343_61)">
        <path
          d="M168 96C182.359 96 194 84.3594 194 70C194 55.6406 182.359 44 168 44C153.641 44 142 55.6406 142 70C142 84.3594 153.641 96 168 96Z"
          fill="#2AC7E3" />
      </g>
      <path
        d="M306.333 28.4999C306.333 29.9727 307.527 31.1666 309 31.1666C310.473 31.1666 311.667 29.9727 311.667 28.4999C311.667 27.0271 310.473 25.8332 309 25.8332C307.527 25.8332 306.333 27.0271 306.333 28.4999ZM324.333 43.9999C324.333 45.4727 325.527 46.6666 327 46.6666C328.473 46.6666 329.667 45.4727 329.667 43.9999C329.667 42.5271 328.473 41.3332 327 41.3332C325.527 41.3332 324.333 42.5271 324.333 43.9999ZM281.333 127C281.333 128.473 282.527 129.667 284 129.667C285.473 129.667 286.667 128.473 286.667 127C286.667 125.527 285.473 124.333 284 124.333C282.527 124.333 281.333 125.527 281.333 127ZM296.333 99.9999C296.333 101.473 297.527 102.667 299 102.667C300.473 102.667 301.667 101.473 301.667 99.9999C301.667 98.5271 300.473 97.3332 299 97.3332C297.527 97.3332 296.333 98.5271 296.333 99.9999ZM272.217 66.9999C272.217 68.4727 273.411 69.6666 274.883 69.6666C276.356 69.6666 277.55 68.4727 277.55 66.9999C277.55 65.5271 276.356 64.3332 274.883 64.3332C273.411 64.3332 272.217 65.5271 272.217 66.9999ZM338.333 79.9999C338.333 81.4727 339.527 82.6666 341 82.6666C342.473 82.6666 343.667 81.4727 343.667 79.9999C343.667 78.5271 342.473 77.3332 341 77.3332C339.527 77.3332 338.333 78.5271 338.333 79.9999ZM6.33331 86.9999C6.33331 88.4727 7.52722 89.6666 8.99998 89.6666C10.4728 89.6666 11.6667 88.4727 11.6667 86.9999C11.6667 85.5271 10.4728 84.3332 8.99998 84.3332C7.52722 84.3332 6.33331 85.5271 6.33331 86.9999ZM54.3333 63.9999C54.3333 65.4727 55.5272 66.6666 57 66.6666C58.4728 66.6666 59.6667 65.4727 59.6667 63.9999C59.6667 62.5271 58.4728 61.3332 57 61.3332C55.5272 61.3332 54.3333 62.5271 54.3333 63.9999ZM33.3333 116C33.3333 117.473 34.5272 118.667 36 118.667C37.4728 118.667 38.6667 117.473 38.6667 116C38.6667 114.527 37.4728 113.333 36 113.333C34.5272 113.333 33.3333 114.527 33.3333 116ZM48.3333 99.9999C48.3333 101.473 49.5272 102.667 51 102.667C52.4728 102.667 53.6667 101.473 53.6667 99.9999C53.6667 98.5271 52.4728 97.3332 51 97.3332C49.5272 97.3332 48.3333 98.5271 48.3333 99.9999ZM15.3333 51.9999C15.3333 53.4727 16.5272 54.6666 18 54.6666C19.4728 54.6666 20.6667 53.4727 20.6667 51.9999C20.6667 50.5271 19.4728 49.3332 18 49.3332C16.5272 49.3332 15.3333 50.5271 15.3333 51.9999ZM74.8328 32.4999C74.8328 33.9727 76.0267 35.1666 77.4995 35.1666C78.9722 35.1666 80.1661 33.9727 80.1661 32.4999C80.1661 31.0271 78.9722 29.8332 77.4995 29.8332C76.0267 29.8332 74.8328 31.0271 74.8328 32.4999ZM40.3333 11.9999C40.3333 13.4727 41.5272 14.6666 43 14.6666C44.4728 14.6666 45.6667 13.4727 45.6667 11.9999C45.6667 10.5271 44.4728 9.33325 43 9.33325C41.5272 9.33325 40.3333 10.5271 40.3333 11.9999ZM208.157 17.9999H235.343V16.9999H208.157V17.9999ZM237.818 19.025L246.475 27.6819L247.182 26.9748L238.525 18.3179L237.818 19.025ZM249.657 28.9999H309V27.9999H249.657V28.9999ZM246.475 27.6819C247.319 28.5258 248.463 28.9999 249.657 28.9999V27.9999C248.729 27.9999 247.838 27.6311 247.182 26.9748L246.475 27.6819ZM235.343 17.9999C236.271 17.9999 237.162 18.3686 237.818 19.025L238.525 18.3179C237.681 17.474 236.537 16.9999 235.343 16.9999V17.9999ZM203.5 55.4999H261.596V54.4999H203.5V55.4999ZM264.969 53.9791L272.297 45.6828L271.548 45.0207L264.219 53.317L264.969 53.9791ZM274.92 44.4999H327V43.4999H274.92V44.4999ZM272.297 45.6828C272.962 44.9307 273.917 44.4999 274.92 44.4999V43.4999C273.63 43.4999 272.402 44.0537 271.548 45.0207L272.297 45.6828ZM261.596 55.4999C262.887 55.4999 264.115 54.9461 264.969 53.9791L264.219 53.317C263.555 54.0691 262.6 54.4999 261.596 54.4999V55.4999ZM168.5 116.5H218.596V115.5H168.5V116.5ZM221.219 117.683L228.548 125.979L229.297 125.317L221.969 117.021L221.219 117.683ZM231.92 127.5H284V126.5H231.92V127.5ZM228.548 125.979C229.402 126.946 230.63 127.5 231.92 127.5V126.5C230.917 126.5 229.962 126.069 229.297 125.317L228.548 125.979ZM218.596 116.5C219.6 116.5 220.555 116.931 221.219 117.683L221.969 117.021C221.115 116.054 219.887 115.5 218.596 115.5V116.5ZM203.5 91.4999H243.827V90.4999H203.5V91.4999ZM246.42 92.6493L252.197 99.0222L252.938 98.3505L247.161 91.9776L246.42 92.6493ZM255.531 100.5H299V99.4999H255.531V100.5ZM252.197 99.0222C253.05 99.9632 254.261 100.5 255.531 100.5V99.4999C254.543 99.4999 253.602 99.0825 252.938 98.3505L252.197 99.0222ZM243.827 91.4999C244.815 91.4999 245.757 91.9173 246.42 92.6493L247.161 91.9776C246.308 91.0366 245.097 90.4999 243.827 90.4999V91.4999ZM203.5 67.4999H274.883V66.4999H203.5V67.4999ZM203.5 80.4999H341V79.4999H203.5V80.4999ZM129 75.4999H82.6569V76.4999H129V75.4999ZM79.4749 76.8179L70.818 85.4748L71.5251 86.1819L80.182 77.525L79.4749 76.8179ZM68.3431 86.4999H8.99998V87.4999H68.3431V86.4999ZM70.818 85.4748C70.1616 86.1311 69.2714 86.4999 68.3431 86.4999V87.4999C69.5366 87.4999 70.6812 87.0258 71.5251 86.1819L70.818 85.4748ZM82.6569 75.4999C81.4634 75.4999 80.3188 75.974 79.4749 76.8179L80.182 77.525C80.8384 76.8686 81.7286 76.4999 82.6569 76.4999V75.4999ZM135 54.4999H105.731V55.4999H135V54.4999ZM102.207 56.2007L97.4596 62.177L98.2426 62.7991L102.99 56.8228L102.207 56.2007ZM94.7191 63.4999H57V64.4999H94.7191V63.4999ZM97.4596 62.177C96.7956 63.0128 95.7865 63.4999 94.7191 63.4999V64.4999C96.0915 64.4999 97.3889 63.8736 98.2426 62.7991L97.4596 62.177ZM105.731 54.4999C104.358 54.4999 103.061 55.1262 102.207 56.2007L102.99 56.8228C103.654 55.987 104.663 55.4999 105.731 55.4999V54.4999ZM166.843 130.5H119.477V131.5H166.843V130.5ZM116.785 129.237L106.717 117.124L105.948 117.763L116.016 129.876L116.785 129.237ZM103.257 115.5H36V116.5H103.257V115.5ZM106.717 117.124C105.862 116.095 104.594 115.5 103.257 115.5V116.5C104.297 116.5 105.283 116.963 105.948 117.763L106.717 117.124ZM119.477 130.5C118.436 130.5 117.45 130.037 116.785 129.237L116.016 129.876C116.871 130.905 118.139 131.5 119.477 131.5V130.5ZM140 90.4999H106.173V91.4999H140V90.4999ZM102.839 91.9776L97.0619 98.3505L97.8028 99.0222L103.58 92.6493L102.839 91.9776ZM94.4688 99.4999H51V100.5H94.4688V99.4999ZM97.0619 98.3505C96.3985 99.0825 95.4566 99.4999 94.4688 99.4999V100.5C95.7389 100.5 96.9498 99.9632 97.8028 99.0222L97.0619 98.3505ZM106.173 90.4999C104.903 90.4999 103.692 91.0366 102.839 91.9776L103.58 92.6493C104.243 91.9173 105.185 91.4999 106.173 91.4999V90.4999ZM140 38.4999H93.0354V39.4999H140V38.4999ZM89.624 40.0652L80.8346 50.2824L81.5927 50.9346L90.3821 40.7174L89.624 40.0652ZM78.1813 51.4999H18V52.4999H78.1813V51.4999ZM80.8346 50.2824C80.1697 51.0553 79.2008 51.4999 78.1813 51.4999V52.4999C79.4921 52.4999 80.7378 51.9283 81.5927 50.9346L80.8346 50.2824ZM93.0354 38.4999C91.7246 38.4999 90.4789 39.0715 89.624 40.0652L90.3821 40.7174C91.047 39.9445 92.0159 39.4999 93.0354 39.4999V38.4999ZM127.343 11.4999H43V12.4999H127.343V11.4999ZM169.318 132.525L179.146 142.354L179.854 141.646L170.025 131.818L169.318 132.525ZM129.818 13.525L151.646 35.3535L152.354 34.6463L130.525 12.8179L129.818 13.525ZM204.975 18.3179L186.146 37.1463L186.854 37.8535L205.682 19.025L204.975 18.3179ZM150 31.9999H113.75V32.9999H150V31.9999ZM113.75 31.9999H77.4995V32.9999H113.75V31.9999ZM127.343 12.4999C128.271 12.4999 129.162 12.8686 129.818 13.525L130.525 12.8179C129.681 11.974 128.537 11.4999 127.343 11.4999V12.4999ZM166.843 131.5C167.771 131.5 168.662 131.869 169.318 132.525L170.025 131.818C169.181 130.974 168.037 130.5 166.843 130.5V131.5ZM208.157 16.9999C206.963 16.9999 205.819 17.474 204.975 18.3179L205.682 19.025C206.338 18.3686 207.229 17.9999 208.157 17.9999V16.9999Z"
        fill="url(#paint0_radial_343_61)" fill-opacity="0.3" />
      <path opacity="0.5"
        d="M205.814 42.7299L172.141 23.1666C169.493 21.6282 166.235 21.6105 163.571 23.1201L129.407 42.4766C126.655 44.0356 124.966 46.9792 125.001 50.1566L125.424 89.6075C125.457 92.6841 127.101 95.5147 129.749 97.0529L163.422 116.616C166.132 118.19 169.475 118.17 172.165 116.562L205.435 96.6864C208.027 95.1373 209.631 92.3411 209.669 89.3067L210.139 50.3754C210.177 47.2274 208.524 44.304 205.814 42.7299Z"
        fill="#8CE0F0" />
      <path
        d="M201.001 45.7474L171.182 28.3582C168.837 26.9909 165.951 26.9751 163.592 28.3169L133.338 45.5223C130.901 46.908 129.406 49.5245 129.436 52.3487L129.811 87.4153C129.84 90.1499 131.296 92.666 133.641 94.0332L163.46 111.423C165.86 112.822 168.82 112.803 171.202 111.375L200.665 93.7075C202.961 92.3305 204.381 89.845 204.414 87.1479L204.831 52.5432C204.864 49.7451 203.4 47.1466 201.001 45.7474Z"
        fill="#202024" />
      <path fill-rule="evenodd" clip-rule="evenodd"
        d="M199.661 48.0458L169.841 30.6566C168.316 29.767 166.442 29.7568 164.907 30.6296L134.653 47.835C133.065 48.7383 132.077 50.4537 132.096 52.3203L132.471 87.3869C132.491 89.1939 133.453 90.8435 134.981 91.7348L164.801 109.124C166.361 110.034 168.284 110.022 169.834 109.093L199.296 91.4257C200.793 90.5281 201.732 88.8984 201.754 87.1158L202.17 52.5111C202.193 50.6616 201.225 48.9578 199.661 48.0458ZM204.414 87.1479C204.381 89.845 202.961 92.3305 200.665 93.7075L171.202 111.375C168.82 112.803 165.86 112.822 163.46 111.423L133.641 94.0332C131.296 92.666 129.84 90.1499 129.811 87.4153L129.436 52.3487C129.406 49.5245 130.901 46.908 133.338 45.5223L163.592 28.3169C165.951 26.9751 168.837 26.9909 171.182 28.3582L201.001 45.7474C203.4 47.1466 204.864 49.7451 204.831 52.5432L204.414 87.1479Z"
        fill="url(#paint1_linear_343_61)" />
      <path
        d="M193.199 52.365L170.599 39.7575C168.822 38.7661 166.635 38.7547 164.847 39.7275L141.917 52.2017C140.07 53.2065 138.936 55.1034 138.959 57.1511L139.243 82.575C139.266 84.5577 140.369 86.3818 142.146 87.3731L164.747 99.9808C166.565 100.995 168.809 100.982 170.615 99.946L192.944 87.1369C194.685 86.1386 195.761 84.3366 195.786 82.3811L196.102 57.2921C196.128 55.2634 195.018 53.3794 193.199 52.365Z"
        fill="url(#paint2_linear_343_61)" />
      <path
        d="M168.738 85.2411C168.351 84.899 167.948 84.5557 167.562 84.1755C167.254 84.4604 166.965 84.7274 166.659 84.9932C162.843 88.2827 158.91 89.6522 156.578 88.3209C154.323 87.0467 153.612 83.2828 154.515 78.5475C154.611 78.0342 154.727 77.5209 154.862 77.0077C154.457 76.8885 154.071 76.7788 153.686 76.6501C148.885 75.0113 145.724 72.3498 145.724 69.6872C145.724 67.1211 148.673 64.6301 153.28 63.033C153.795 62.8614 154.34 62.6909 154.899 62.5384C154.77 62.0438 154.668 61.5682 154.572 61.1081C153.607 56.3013 154.282 52.4611 156.556 51.168C158.927 49.7985 162.86 51.2633 166.81 54.7042C167.041 54.9128 167.273 55.1417 167.523 55.3693C167.89 55.0272 168.237 54.6852 168.603 54.3812C172.343 51.1632 176.062 49.8176 178.337 51.1108C180.707 52.4409 181.402 56.5481 180.342 61.6254C180.284 61.9496 180.213 62.2535 180.131 62.5789C180.613 62.7124 181.094 62.8638 181.538 63.0163C186.241 64.6134 189.287 67.1044 189.248 69.7277C189.248 72.4082 185.991 75.0518 180.995 76.687C180.725 76.7633 180.456 76.8587 180.185 76.9338C180.301 77.314 180.377 77.6942 180.455 78.0744C181.457 82.9992 180.685 87.0301 178.354 88.3614C177.741 88.7021 177.037 88.8756 176.323 88.862C174.186 88.8584 171.472 87.5581 168.738 85.2411ZM172.517 78.2627C171.41 79.8545 170.193 81.3789 168.874 82.8263C169.24 83.1839 169.606 83.5117 169.972 83.8156C173.153 86.5152 176.083 87.5235 177.452 86.744C177.871 86.4111 178.212 86.004 178.457 85.5469C178.702 85.0897 178.846 84.5918 178.879 84.0826C179.157 82.1957 179.078 80.2785 178.646 78.4164C178.588 78.0744 178.517 77.7323 178.416 77.3712C176.473 77.7913 174.503 78.0891 172.517 78.2627ZM156.363 78.8717C155.574 82.9241 156.152 85.9443 157.524 86.7249C158.01 86.9127 158.535 86.9994 159.061 86.9788C159.588 86.9582 160.103 86.8308 160.57 86.6058C162.387 85.8998 164.043 84.88 165.447 83.6011C165.736 83.3722 166.006 83.1064 166.296 82.8406C164.948 81.3927 163.699 79.8686 162.556 78.277C160.578 78.1243 158.613 77.8455 156.676 77.4427C156.556 77.9397 156.46 78.4141 156.363 78.8717ZM167.583 81.5332C168.431 80.6011 169.279 79.5749 170.127 78.4343C169.279 78.4725 168.393 78.4915 167.505 78.4915C166.618 78.4915 165.79 78.4725 164.961 78.4343C165.828 79.5547 166.696 80.6011 167.581 81.5332H167.583ZM163.533 62.9758C162.801 64.0211 162.088 65.1212 161.413 66.2844C160.739 67.425 160.124 68.5847 159.563 69.7408C160.142 70.8815 160.758 72.0411 161.433 73.2211C162.107 74.3617 162.82 75.4856 163.553 76.5476C164.824 76.6239 166.155 76.6668 167.504 76.6668C168.853 76.6668 170.202 76.6286 171.494 76.5345C172.188 75.4892 172.901 74.3665 173.577 73.2068C174.253 72.0471 174.887 70.8683 175.447 69.7277C174.887 68.6062 174.251 67.4465 173.577 66.2856C172.902 65.1247 172.189 64.0211 171.476 62.977C170.187 62.8816 168.854 62.8244 167.505 62.8244C166.156 62.8244 164.826 62.8804 163.533 62.9758ZM157.173 75.6954C158.495 75.9746 159.834 76.1843 161.182 76.3235C160.719 75.6012 160.258 74.8778 159.814 74.1174C159.39 73.376 158.965 72.6347 158.58 71.8933C158.021 73.1853 157.559 74.4618 157.173 75.6954ZM175.195 74.0983C174.752 74.8587 174.308 75.581 173.866 76.2854C175.234 76.1269 176.592 75.8985 177.933 75.6012C177.515 74.3178 177.026 73.0547 176.468 71.8171C176.063 72.5775 175.639 73.3379 175.195 74.0983ZM153.877 64.7815C149.945 66.1509 147.574 68.1449 147.574 69.7063C147.649 70.2086 147.831 70.6923 148.109 71.1295C148.386 71.5668 148.755 71.9491 149.193 72.2545C150.697 73.4237 152.422 74.326 154.282 74.9159C154.628 75.0351 154.995 75.1257 155.361 75.2401C155.953 73.3699 156.668 71.5346 157.5 69.7444C156.666 67.9849 155.958 66.1765 155.38 64.331C154.86 64.4597 154.359 64.6098 153.877 64.7815ZM177.528 69.7063C178.384 71.4737 179.116 73.2898 179.721 75.1436C179.972 75.0673 180.222 74.991 180.453 74.9147C184.752 73.5083 187.417 71.3594 187.431 69.686C187.431 68.127 184.964 66.1104 180.936 64.7421C180.531 64.6098 180.088 64.4764 179.646 64.3429C179.062 66.1698 178.355 67.9611 177.528 69.7063ZM175.177 65.3333C175.621 66.0937 176.045 66.8363 176.43 67.5776C176.965 66.366 177.428 65.1282 177.817 63.8697C176.508 63.5757 175.182 63.3473 173.846 63.1856C174.309 63.8876 174.752 64.592 175.176 65.3333H175.177ZM157.192 63.8542C157.579 65.0711 158.041 66.3071 158.58 67.58C158.967 66.8386 159.39 66.0973 159.814 65.356C160.238 64.6146 160.681 63.8923 161.144 63.188C159.756 63.356 158.446 63.5837 157.192 63.8542ZM169.818 55.7733C169.49 56.0582 169.163 56.3621 168.834 56.6672C170.172 58.0969 171.402 59.6102 172.516 61.1963C174.477 61.3713 176.423 61.6765 178.337 62.1093C178.414 61.8245 178.466 61.5384 178.53 61.2536C179.433 56.8806 178.877 53.5338 177.412 52.6983C177.091 52.5315 176.726 52.4491 176.357 52.46C174.783 52.4528 172.366 53.5863 169.818 55.7698V55.7733ZM157.481 52.746C156.113 53.5255 155.572 56.6434 156.382 60.7506C156.479 61.188 156.576 61.6242 156.691 62.0807C158.607 61.6638 160.552 61.3651 162.512 61.1868C163.629 59.5986 164.866 58.0852 166.213 56.6577C166.002 56.4479 165.77 56.2584 165.558 56.0677C162.876 53.7233 160.296 52.4862 158.612 52.4862C158.216 52.4737 157.825 52.5637 157.481 52.746ZM170.087 61.0354C169.292 59.9724 168.435 58.9507 167.518 57.9747C166.652 58.9056 165.784 59.933 164.939 61.0354C165.788 60.9973 166.635 60.9782 167.503 60.9782C168.371 60.9782 169.24 60.9937 170.089 61.0354H170.087ZM163.649 69.7826C163.631 69.2939 163.718 68.8067 163.904 68.349C164.09 67.8912 164.372 67.4719 164.733 67.1151C165.095 66.7582 165.529 66.4708 166.012 66.2694C166.494 66.0679 167.014 65.9564 167.543 65.9412C168.61 65.9748 169.619 66.398 170.349 67.1181C171.078 67.8382 171.47 68.7964 171.436 69.7826C171.471 70.7695 171.08 71.7288 170.35 72.4497C169.619 73.1706 168.609 73.5942 167.541 73.6275C167.012 73.6123 166.492 73.5006 166.01 73.2989C165.527 73.0973 165.093 72.8095 164.731 72.4523C164.37 72.095 164.088 71.6753 163.902 71.2171C163.717 70.759 163.631 70.2715 163.649 69.7826Z"
        fill="#2AC7E3" />
    </g>
  </g>
  <defs>
    <filter id="filter0_f_343_61" x="62" y="-36" width="212" height="212" filterUnits="userSpaceOnUse"
      color-interpolation-filters="sRGB">
      <feFlood flood-opacity="0" result="BackgroundImageFix" />
      <feBlend mode="normal" in="SourceGraphic" in2="BackgroundImageFix" result="shape" />
      <feGaussianBlur stdDeviation="40" result="effect1_foregroundBlur_343_61" />
    </filter>
    <radialGradient id="paint0_radial_343_61" cx="0" cy="0" r="1" gradientUnits="userSpaceOnUse"
      gradientTransform="translate(175 63.4999) rotate(90) scale(73.5 205.059)">
      <stop stop-color="#8CE0F0" />
      <stop offset="1" stop-color="#8CE0F0" stop-opacity="0" />
    </radialGradient>
    <linearGradient id="paint1_linear_343_61" x1="148.808" y1="36.3674" x2="187.954" y2="101.796"
      gradientUnits="userSpaceOnUse">
      <stop stop-color="#4DBCD6" />
      <stop offset="1" stop-color="#4DBCD6" stop-opacity="0.24" />
    </linearGradient>
    <linearGradient id="paint2_linear_343_61" x1="138.972" y1="39.1734" x2="200.459" y2="96.1142"
      gradientUnits="userSpaceOnUse">
      <stop stop-color="#226B7A" />
      <stop offset="1" stop-color="#121214" />
    </linearGradient>
    <clipPath id="clip0_343_61">
      <rect width="336" height="140" fill="white" />
    </clipPath>
  </defs>
</svg>