<svg width="336" height="140" viewBox="0 0 336 140" fill="none" xmlns="http://www.w3.org/2000/svg">
  <g clip-path="url(#clip0_343_67)">
    <mask id="mask0_343_67" style="mask-type:luminance" maskUnits="userSpaceOnUse" x="0" y="0" width="336" height="140">
      <path
        d="M332 0H4C1.79086 0 0 1.79086 0 4V136C0 138.209 1.79086 140 4 140H332C334.209 140 336 138.209 336 136V4C336 1.79086 334.209 0 332 0Z"
        fill="white" />
    </mask>
    <g mask="url(#mask0_343_67)">
      <path
        d="M332 0H4C1.79086 0 0 1.79086 0 4V136C0 138.209 1.79086 140 4 140H332C334.209 140 336 138.209 336 136V4C336 1.79086 334.209 0 332 0Z"
        fill="#121214" />
      <g filter="url(#filter0_f_343_67)">
        <path
          d="M168 96C182.359 96 194 84.3594 194 70C194 55.6406 182.359 44 168 44C153.641 44 142 55.6406 142 70C142 84.3594 153.641 96 168 96Z"
          fill="#667DFF" />
      </g>
      <path fill-rule="evenodd" clip-rule="evenodd"
        d="M185 -40H225C226.657 -40 228 -38.6569 228 -37V48C228 49.6569 226.657 51 225 51H185C183.343 51 182 49.6569 182 48V-37C182 -38.6569 183.343 -40 185 -40ZM181 -37C181 -39.2091 182.791 -41 185 -41H225C227.209 -41 229 -39.2091 229 -37V48C229 50.2091 227.209 52 225 52H185C182.791 52 181 50.2091 181 48V-37ZM99 69H139C140.657 69 142 70.3431 142 72V157C142 158.657 140.657 160 139 160H99C97.3431 160 96 158.657 96 157V72C96 70.3431 97.3431 69 99 69ZM95 72C95 69.7909 96.7909 68 99 68H139C141.209 68 143 69.7909 143 72V157C143 159.209 141.209 161 139 161H99C96.7909 161 95 159.209 95 157V72ZM104 -36H64C62.3431 -36 61 -34.6569 61 -33V35H65C67.2091 35 69 36.7909 69 39V55H104C105.657 55 107 53.6569 107 52V-33C107 -34.6569 105.657 -36 104 -36ZM69 56H104C106.209 56 108 54.2091 108 52V-33C108 -35.2091 106.209 -37 104 -37H64C61.7909 -37 60 -35.2091 60 -33V35H42V-19C42 -21.2091 40.2091 -23 38 -23H-2C-4.20914 -23 -6 -21.2091 -6 -19V66C-6 68.2091 -4.20914 70 -2 70H21V124C21 126.209 22.7909 128 25 128H40V194C40 196.209 41.7909 198 44 198H84C86.2091 198 88 196.209 88 194V109C88 106.791 86.2091 105 84 105H69V56ZM68 105V56H64C61.7909 56 60 54.2091 60 52V36H42V66C42 68.2091 40.2091 70 38 70H22V124C22 125.657 23.3431 127 25 127H40V109C40 106.791 41.7909 105 44 105H68ZM41 127V109C41 107.343 42.3431 106 44 106H68V124C68 125.657 66.6569 127 65 127H41ZM41 128H65C67.2091 128 69 126.209 69 124V106H84C85.6569 106 87 107.343 87 109V194C87 195.657 85.6569 197 84 197H44C42.3431 197 41 195.657 41 194V128ZM41 -19V35H25C22.7909 35 21 36.7909 21 39V69H-2C-3.65685 69 -5 67.6569 -5 66V-19C-5 -20.6569 -3.65685 -22 -2 -22H38C39.6569 -22 41 -20.6569 41 -19ZM22 39V69H38C39.6569 69 41 67.6569 41 66V36H25C23.3431 36 22 37.3431 22 39ZM68 55V39C68 37.3431 66.6569 36 65 36H61V52C61 53.6569 62.3431 55 64 55H68ZM209 116C207.343 116 206 117.343 206 119V204C206 205.657 207.343 207 209 207H249C250.657 207 252 205.657 252 204V119C252 117.343 250.657 116 249 116H209ZM209 115C206.791 115 205 116.791 205 119V204C205 206.209 206.791 208 209 208H249C251.209 208 253 206.209 253 204V119C253 116.791 251.209 115 249 115H209ZM278 75H289V87C289 88.6569 287.657 90 286 90H275V78C275 76.3431 276.343 75 278 75ZM278 74H289V2C289 0.343147 287.657 -1 286 -1H246C244.343 -1 243 0.343147 243 2V87C243 88.6569 244.343 90 246 90H274V78C274 75.7909 275.791 74 278 74ZM290 2V74H318C320.209 74 322 75.7909 322 78V170C322 172.209 320.209 174 318 174H278C275.791 174 274 172.209 274 170V91H246C243.791 91 242 89.2091 242 87V2C242 -0.209137 243.791 -2 246 -2H286C288.209 -2 290 -0.209141 290 2ZM290 87V75H318C319.657 75 321 76.3431 321 78V170C321 171.657 319.657 173 318 173H278C276.343 173 275 171.657 275 170V91H286C288.209 91 290 89.2091 290 87ZM311 -40H351C352.657 -40 354 -38.6569 354 -37V48C354 49.6569 352.657 51 351 51H311C309.343 51 308 49.6569 308 48V-37C308 -38.6569 309.343 -40 311 -40ZM307 -37C307 -39.2091 308.791 -41 311 -41H351C353.209 -41 355 -39.2091 355 -37V48C355 50.2091 353.209 52 351 52H311C308.791 52 307 50.2091 307 48V-37Z"
        fill="url(#paint0_radial_343_67)" fill-opacity="0.35" />
      <path opacity="0.5"
        d="M205.814 42.7297L172.141 23.1664C169.493 21.628 166.235 21.6103 163.571 23.1199L129.407 42.4764C126.655 44.0354 124.966 46.979 125.001 50.1564L125.424 89.6073C125.457 92.6839 127.101 95.5145 129.749 97.0527L163.422 116.616C166.132 118.19 169.475 118.17 172.165 116.562L205.435 96.6862C208.027 95.1371 209.631 92.3409 209.669 89.3065L210.139 50.3752C210.177 47.2272 208.524 44.3038 205.814 42.7297Z"
        fill="#B1BCFF" />
      <path
        d="M201.001 45.7474L171.182 28.3582C168.837 26.9909 165.951 26.9751 163.592 28.3169L133.338 45.5223C130.901 46.908 129.406 49.5245 129.436 52.3487L129.811 87.4153C129.84 90.1499 131.296 92.666 133.641 94.0332L163.46 111.423C165.86 112.822 168.82 112.803 171.202 111.375L200.665 93.7075C202.961 92.3305 204.381 89.845 204.414 87.1479L204.831 52.5432C204.864 49.7451 203.4 47.1466 201.001 45.7474Z"
        fill="#202024" />
      <path
        d="M193.199 52.365L170.599 39.7575C168.822 38.7661 166.635 38.7547 164.847 39.7275L141.917 52.2017C140.07 53.2065 138.936 55.1034 138.959 57.1511L139.243 82.575C139.266 84.5577 140.369 86.3818 142.146 87.3731L164.747 99.9808C166.565 100.995 168.809 100.982 170.615 99.946L192.944 87.1369C194.685 86.1386 195.761 84.3366 195.786 82.3811L196.102 57.2921C196.128 55.2634 195.018 53.3794 193.199 52.365Z"
        fill="url(#paint1_linear_343_67)" />
      <path fill-rule="evenodd" clip-rule="evenodd"
        d="M200.382 48.1292L170.248 30.7395C168.72 29.8576 166.839 29.8474 165.301 30.7128L134.728 47.9187C133.14 48.8125 132.165 50.4995 132.185 52.3197L132.564 87.3872C132.583 89.1497 133.531 90.7719 135.059 91.6537L165.194 109.044C166.757 109.946 168.687 109.934 170.24 109.012L200.013 91.3449C201.509 90.4571 202.435 88.8548 202.456 87.116C202.456 87.1158 202.456 87.1162 202.456 87.116L202.877 52.5104C202.899 50.7067 201.946 49.0314 200.382 48.1292ZM205.205 87.1495C205.172 89.8467 203.737 92.3322 201.416 93.7092L171.643 111.377C169.236 112.805 166.244 112.824 163.82 111.425L133.685 94.035C131.316 92.6677 129.844 90.1516 129.815 87.4169L129.436 52.3494C129.405 49.5251 130.917 46.9085 133.379 45.5227L163.953 28.3169C166.337 26.9751 169.252 26.9909 171.622 28.3583L201.756 45.7479C204.181 47.1471 205.66 49.7457 205.626 52.5439L205.205 87.1495Z"
        fill="url(#paint2_linear_343_67)" />
      <path
        d="M168.414 84.9977C168.027 84.6556 167.624 84.3123 167.238 83.9321C166.93 84.217 166.641 84.484 166.335 84.7498C162.519 88.0393 158.586 89.4088 156.254 88.0774C153.999 86.8033 153.288 83.0394 154.191 78.3041C154.287 77.7908 154.403 77.2775 154.538 76.7642C154.133 76.6451 153.747 76.5354 153.362 76.4067C148.56 74.7679 145.399 72.1064 145.399 69.4438C145.399 66.8777 148.349 64.3867 152.955 62.7896C153.471 62.618 154.015 62.4475 154.575 62.295C154.446 61.8004 154.344 61.3248 154.248 60.8647C153.283 56.0579 153.957 52.2177 156.232 50.9246C158.603 49.5551 162.536 51.0199 166.486 54.4608C166.717 54.6694 166.949 54.8982 167.199 55.1259C167.565 54.7838 167.912 54.4418 168.279 54.1378C172.019 50.9198 175.738 49.5742 178.013 50.8674C180.383 52.1975 181.078 56.3046 180.018 61.382C179.96 61.7062 179.889 62.0101 179.807 62.3355C180.289 62.469 180.77 62.6204 181.214 62.7729C185.917 64.37 188.963 66.861 188.924 69.4843C188.924 72.1648 185.667 74.8084 180.671 76.4436C180.401 76.5199 180.132 76.6153 179.861 76.6903C179.977 77.0706 180.053 77.4508 180.13 77.831C181.132 82.7558 180.361 86.7867 178.029 88.118C177.417 88.4587 176.713 88.6322 175.998 88.6186C173.861 88.615 171.148 87.3147 168.414 84.9977ZM172.193 78.0193C171.085 79.6111 169.868 81.1355 168.549 82.5829C168.916 82.9405 169.282 83.2683 169.648 83.5722C172.828 86.2718 175.758 87.2801 177.128 86.5006C177.546 86.1677 177.888 85.7606 178.133 85.3035C178.378 84.8463 178.521 84.3484 178.554 83.8392C178.833 81.9523 178.754 80.0351 178.322 78.173C178.264 77.831 178.193 77.4889 178.091 77.1278C176.149 77.5479 174.178 77.8457 172.193 78.0193ZM156.039 78.6283C155.25 82.6807 155.827 85.7009 157.199 86.4815C157.686 86.6693 158.21 86.756 158.737 86.7354C159.263 86.7148 159.778 86.5874 160.246 86.3623C162.063 85.6564 163.719 84.6366 165.123 83.3577C165.412 83.1288 165.681 82.863 165.971 82.5972C164.623 81.1493 163.374 79.6252 162.232 78.0336C160.253 77.8809 158.289 77.6021 156.352 77.1993C156.232 77.6963 156.136 78.1706 156.039 78.6283ZM167.259 81.2898C168.107 80.3577 168.954 79.3315 169.803 78.1909C168.954 78.229 168.068 78.2481 167.181 78.2481C166.294 78.2481 165.466 78.229 164.637 78.1909C165.503 79.3113 166.371 80.3577 167.257 81.2898H167.259ZM163.209 62.7324C162.477 63.7777 161.763 64.8778 161.089 66.041C160.415 67.1816 159.799 68.3413 159.238 69.4974C159.817 70.638 160.434 71.7977 161.108 72.9777C161.783 74.1183 162.496 75.2422 163.228 76.3042C164.5 76.3805 165.831 76.4234 167.18 76.4234C168.529 76.4234 169.878 76.3852 171.17 76.2911C171.864 75.2458 172.577 74.1231 173.253 72.9634C173.928 71.8037 174.563 70.6249 175.123 69.4843C174.563 68.3628 173.927 67.2031 173.253 66.0422C172.578 64.8813 171.865 63.7777 171.152 62.7336C169.862 62.6382 168.53 62.581 167.181 62.581C165.832 62.581 164.501 62.637 163.209 62.7324ZM156.849 75.452C158.171 75.7312 159.51 75.9409 160.858 76.0801C160.395 75.3578 159.933 74.6344 159.49 73.874C159.066 73.1326 158.641 72.3913 158.256 71.6499C157.697 72.9419 157.234 74.2184 156.849 75.452ZM174.871 73.8549C174.428 74.6153 173.984 75.3376 173.542 76.042C174.91 75.8835 176.268 75.6551 177.609 75.3578C177.19 74.0743 176.701 72.8113 176.144 71.5737C175.739 72.3341 175.315 73.0945 174.871 73.8549ZM153.552 64.5381C149.62 65.9075 147.25 67.9015 147.25 69.4629C147.325 69.9652 147.507 70.4489 147.784 70.8861C148.062 71.3234 148.43 71.7057 148.869 72.0111C150.373 73.1803 152.098 74.0826 153.957 74.6725C154.304 74.7917 154.671 74.8823 155.037 74.9967C155.629 73.1265 156.343 71.2912 157.176 69.501C156.342 67.7415 155.634 65.9331 155.056 64.0875C154.536 64.2163 154.035 64.3664 153.552 64.5381ZM177.204 69.4629C178.059 71.2303 178.792 73.0464 179.396 74.9002C179.648 74.8239 179.898 74.7476 180.129 74.6713C184.427 73.2649 187.093 71.116 187.107 69.4426C187.107 67.8836 184.64 65.867 180.611 64.4987C180.206 64.3664 179.764 64.233 179.322 64.0995C178.738 65.9264 178.03 67.7177 177.204 69.4629ZM174.853 65.0899C175.297 65.8503 175.721 66.5928 176.105 67.3342C176.641 66.1226 177.104 64.8848 177.493 63.6263C176.184 63.3323 174.858 63.1039 173.522 62.9422C173.985 63.6442 174.429 64.3486 174.853 65.0899ZM156.868 63.6108C157.255 64.8277 157.717 66.0637 158.256 67.3366C158.643 66.5952 159.066 65.8539 159.49 65.1125C159.914 64.3712 160.356 63.6489 160.819 62.9445C159.432 63.1126 158.122 63.3402 156.868 63.6108ZM169.493 55.5299C169.166 55.8148 168.838 56.1187 168.509 56.4238C169.848 57.8535 171.078 59.3668 172.191 60.9529C174.153 61.1279 176.098 61.433 178.013 61.8659C178.09 61.581 178.142 61.295 178.206 61.0101C179.109 56.6372 178.553 53.2904 177.088 52.4549C176.766 52.2881 176.402 52.2057 176.033 52.2165C174.459 52.2094 172.042 53.3429 169.493 55.5264V55.5299ZM157.157 52.5026C155.789 53.2821 155.248 56.4 156.058 60.5072C156.155 60.9446 156.252 61.3808 156.366 61.8373C158.283 61.4204 160.228 61.1217 162.188 60.9434C163.305 59.3552 164.542 57.8418 165.889 56.4143C165.677 56.2045 165.445 56.015 165.234 55.8243C162.551 53.4799 159.972 52.2428 158.288 52.2428C157.892 52.2303 157.5 52.3203 157.157 52.5026ZM169.763 60.792C168.968 59.729 168.11 58.7072 167.194 57.7313C166.327 58.6622 165.46 59.6896 164.615 60.792C165.463 60.7539 166.311 60.7348 167.179 60.7348C168.047 60.7348 168.916 60.7503 169.764 60.792H169.763ZM163.325 69.5391C163.307 69.0505 163.394 68.5633 163.58 68.1056C163.766 67.6478 164.048 67.2285 164.409 66.8716C164.771 66.5148 165.205 66.2274 165.687 66.026C166.169 65.8245 166.69 65.713 167.219 65.6978C168.286 65.7313 169.295 66.1546 170.024 66.8747C170.754 67.5948 171.145 68.553 171.112 69.5391C171.146 70.5261 170.756 71.4854 170.025 72.2063C169.295 72.9272 168.285 73.3508 167.217 73.3841C166.688 73.3689 166.168 73.2572 165.685 73.0555C165.203 72.8539 164.769 72.5661 164.407 72.2089C164.045 71.8516 163.764 71.4319 163.578 70.9737C163.392 70.5156 163.306 70.0281 163.325 69.5391Z"
        fill="#667DFF" />
    </g>
  </g>
  <defs>
    <filter id="filter0_f_343_67" x="62" y="-36" width="212" height="212" filterUnits="userSpaceOnUse"
      color-interpolation-filters="sRGB">
      <feFlood flood-opacity="0" result="BackgroundImageFix" />
      <feBlend mode="normal" in="SourceGraphic" in2="BackgroundImageFix" result="shape" />
      <feGaussianBlur stdDeviation="40" result="effect1_foregroundBlur_343_67" />
    </filter>
    <radialGradient id="paint0_radial_343_67" cx="0" cy="0" r="1" gradientUnits="userSpaceOnUse"
      gradientTransform="translate(174.5 60) rotate(90) scale(101 146.43)">
      <stop stop-color="#B1BCFF" />
      <stop offset="1" stop-color="#B1BCFF" stop-opacity="0" />
    </radialGradient>
    <linearGradient id="paint1_linear_343_67" x1="138.972" y1="39.1734" x2="200.459" y2="96.1142"
      gradientUnits="userSpaceOnUse">
      <stop stop-color="#3346B0" />
      <stop offset="1" stop-color="#121214" />
    </linearGradient>
    <linearGradient id="paint2_linear_343_67" x1="149.013" y1="36.3676" x2="187.964" y2="102.157"
      gradientUnits="userSpaceOnUse">
      <stop stop-color="#526CFF" />
      <stop offset="1" stop-color="#4763FF" stop-opacity="0.25" />
    </linearGradient>
    <clipPath id="clip0_343_67">
      <rect width="336" height="140" fill="white" />
    </clipPath>
  </defs>
</svg>