<svg width="32" height="32" viewBox="0 0 32 32" fill="none" xmlns="http://www.w3.org/2000/svg">
  <path
    d="M28.5647 6.92542L17.3571 0.38965C16.4757 -0.124272 15.3913 -0.130205 14.5046 0.374119L3.13352 6.84078C2.21768 7.36163 1.65557 8.34503 1.66692 9.40652L1.80781 22.5864C1.81878 23.6142 2.36607 24.5598 3.2474 25.0737L14.4551 31.6096C15.3569 32.1354 16.4695 32.1284 17.3649 31.5916L28.4383 24.9513C29.3013 24.4338 29.8352 23.4996 29.8475 22.4859L30.0042 9.47961C30.0169 8.42795 29.4666 7.45129 28.5647 6.92542Z"
    fill="#202024" />
  <path
    d="M27.8946 8.0746L27.8946 8.07463C28.3787 8.35692 28.6809 8.88622 28.674 9.46359L28.5173 22.4696C28.5173 22.4697 28.5173 22.4698 28.5173 22.4698C28.5105 23.0263 28.2174 23.5326 27.7541 23.8104L16.6808 30.4506C16.2013 30.7381 15.6077 30.7417 15.1252 30.4604C15.1252 30.4604 15.1252 30.4604 15.1252 30.4604L3.91756 23.9245L3.91749 23.9245C3.44436 23.6486 3.14407 23.1362 3.13805 22.5722L3.13805 22.5721L2.99715 9.39231C2.99092 8.80965 3.29955 8.27676 3.79115 7.99717C3.79116 7.99717 3.79116 7.99717 3.79117 7.99717L15.1622 1.53051L15.1622 1.53049C15.6366 1.26068 16.2152 1.26377 16.6869 1.53884C16.6869 1.53884 16.6869 1.53885 16.687 1.53885L27.8946 8.0746Z"
    stroke="url(#paint0_linear_611_911)" stroke-width="2.66062" />
  <path
    d="M25.382 9.41253L16.9762 4.6741C16.3152 4.3015 15.5019 4.2972 14.8369 4.66284L6.30857 9.35117C5.6217 9.72878 5.20011 10.4417 5.20862 11.2113L5.31429 20.7667C5.32252 21.5119 5.73298 22.1975 6.39399 22.5701L14.7998 27.3086C15.4761 27.6898 16.3106 27.6847 16.9821 27.2955L25.2872 22.4813C25.9344 22.1061 26.3348 21.4288 26.3441 20.6938L26.4616 11.2643C26.4711 10.5019 26.0584 9.79379 25.382 9.41253Z"
    fill="url(#paint1_linear_611_911)" />
  <path fill-rule="evenodd" clip-rule="evenodd"
    d="M20.3563 11.4782V11.4259C19.9891 11.3672 19.821 11.1991 19.7623 10.8335H19.71C19.6513 11.1991 19.4832 11.3655 19.1176 11.4259V11.4782C19.4832 11.5385 19.6497 11.705 19.71 12.0722H19.7623C19.8227 11.705 19.9891 11.5385 20.3563 11.4782ZM23.4915 13.5736V13.6291C22.3589 13.7319 21.9247 14.1676 21.8219 15.2987H21.7664C21.6636 14.1676 21.2295 13.7319 20.0968 13.6291V13.5736C21.2295 13.4708 21.6636 13.0366 21.768 11.904H21.8203C21.9247 13.0366 22.3589 13.4708 23.4915 13.5736ZM15.7898 12.3055L22.6722 20.4984H20.8296L18.9479 18.2592H15.6625C15.5989 18.2592 15.5483 18.2788 15.5108 18.318C15.4716 18.3572 15.452 18.4077 15.452 18.4681V20.4984H14.0582V12.6091C14.0582 12.3479 14.2688 12.1374 14.5299 12.1374H15.4292C15.5679 12.1374 15.7001 12.1994 15.7898 12.3055ZM15.452 18.1499L16.4655 17.0597H17.9393L15.452 14.0991V18.1499ZM10.6667 12.1391V20.4985V20.5001H12.0491V12.1391H10.6667Z"
    fill="#DEE0FC" />
  <defs>
    <linearGradient id="paint0_linear_611_911" x1="9.14474" y1="3.19991" x2="23.2617" y2="28.0048"
      gradientUnits="userSpaceOnUse">
      <stop stop-color="#A29AF5" />
      <stop offset="1" stop-color="#A29AF5" stop-opacity="0.25" />
    </linearGradient>
    <linearGradient id="paint1_linear_611_911" x1="5.21243" y1="4.45556" x2="28.3556" y2="25.6644"
      gradientUnits="userSpaceOnUse">
      <stop stop-color="#A29AF5" />
      <stop offset="1" stop-color="#342C66" />
    </linearGradient>
  </defs>
</svg>