<svg width="32" height="32" viewBox="0 0 32 32" fill="none" xmlns="http://www.w3.org/2000/svg">
  <path
    d="M28.5647 6.92542L17.3571 0.38965C16.4757 -0.124272 15.3913 -0.130205 14.5046 0.374119L3.13352 6.84078C2.21768 7.36163 1.65557 8.34503 1.66692 9.40652L1.80781 22.5864C1.81878 23.6142 2.36607 24.5598 3.2474 25.0737L14.4551 31.6096C15.3569 32.1354 16.4695 32.1284 17.3649 31.5916L28.4383 24.9513C29.3013 24.4338 29.8352 23.4996 29.8475 22.4859L30.0042 9.47961C30.0169 8.42795 29.4666 7.45129 28.5647 6.92542Z"
    fill="#202024" />
  <path
    d="M27.8946 8.0746L27.8946 8.07463C28.3787 8.35692 28.6809 8.88622 28.674 9.46359L28.5173 22.4696C28.5173 22.4697 28.5173 22.4698 28.5173 22.4698C28.5105 23.0263 28.2174 23.5326 27.7541 23.8104L16.6808 30.4506C16.2013 30.7381 15.6077 30.7417 15.1252 30.4604C15.1252 30.4604 15.1252 30.4604 15.1252 30.4604L3.91756 23.9245L3.91749 23.9245C3.44436 23.6486 3.14407 23.1362 3.13805 22.5722L3.13805 22.5721L2.99715 9.39231C2.99092 8.80965 3.29955 8.27676 3.79115 7.99717C3.79116 7.99717 3.79116 7.99717 3.79117 7.99717L15.1622 1.53051L15.1622 1.53049C15.6366 1.26068 16.2152 1.26377 16.6869 1.53884C16.6869 1.53884 16.6869 1.53885 16.687 1.53885L27.8946 8.0746Z"
    stroke="url(#paint0_linear_611_905)" stroke-width="2.66062" />
  <path
    d="M25.382 9.41253L16.9762 4.6741C16.3152 4.3015 15.5019 4.2972 14.8369 4.66284L6.30857 9.35117C5.6217 9.72878 5.20011 10.4417 5.20862 11.2113L5.31429 20.7667C5.32252 21.5119 5.73298 22.1975 6.39399 22.5701L14.7998 27.3086C15.4761 27.6898 16.3106 27.6847 16.9821 27.2955L25.2872 22.4813C25.9344 22.1061 26.3348 21.4288 26.3441 20.6938L26.4616 11.2643C26.4711 10.5019 26.0584 9.79379 25.382 9.41253Z"
    fill="url(#paint1_linear_611_905)" />
  <path
    d="M13.7476 18.6406C13.7476 18.6406 13.2131 18.9648 14.1183 19.0616C15.2065 19.2019 15.7843 19.1777 16.9881 18.9454C17.2289 19.0954 17.484 19.2212 17.7537 19.318C15.0428 20.4842 11.6145 19.2503 13.7476 18.6406ZM13.4009 17.1259C13.4009 17.1259 12.8231 17.5663 13.7235 17.6631C14.9032 17.7792 15.8325 17.8034 17.4311 17.4792C17.5852 17.6389 17.7778 17.755 17.9848 17.8276C14.7202 18.8051 11.0608 17.9195 13.3961 17.1308L13.4009 17.1259ZM19.7953 19.7777C19.7953 19.7777 20.1901 20.102 19.3571 20.3584C17.8067 20.823 12.8472 20.9633 11.4605 20.3584C10.9741 20.1504 11.8986 19.8455 12.1972 19.8019C12.5005 19.7342 12.6594 19.7342 12.6594 19.7342C12.1249 19.3616 9.11554 20.5036 11.133 20.8278C16.6703 21.7376 21.2301 20.431 19.7953 19.7826V19.7777ZM13.998 15.5435C13.998 15.5435 11.4749 16.1484 13.0928 16.3565C13.7861 16.4485 15.1536 16.4243 16.4296 16.3323C17.4696 16.2404 18.5145 16.0516 18.5145 16.0516C18.5145 16.0516 18.1437 16.2162 17.8885 16.3759C15.3173 17.0533 10.3819 16.7485 11.7975 16.0516C13.0013 15.471 13.998 15.5387 13.998 15.5387V15.5435ZM18.5145 18.0792C21.1098 16.7291 19.906 15.4274 19.0682 15.5871C18.8611 15.6355 18.7648 15.679 18.7648 15.679C18.7648 15.679 18.8323 15.5387 18.996 15.4952C20.6427 14.9145 21.9379 17.2421 18.4615 18.147C18.4615 18.147 18.4856 18.1228 18.5096 18.0792H18.5145ZM14.2532 21.7569C16.7522 21.9215 20.5753 21.665 20.6668 20.4746C20.6668 20.4746 20.4838 20.9391 18.6059 21.2875C16.4729 21.6843 13.8343 21.636 12.2838 21.3795C12.2838 21.3795 12.6064 21.6601 14.2532 21.7521V21.7569Z"
    fill="#8CBAEC" />
  <path
    d="M16.9449 7.86426C16.9449 7.86426 18.3798 9.3305 15.5774 11.542C13.3288 13.3324 15.067 14.3583 15.5774 15.5245C14.2581 14.3389 13.3096 13.2889 13.9548 12.3114C14.9033 10.8693 17.5227 10.1725 16.9401 7.86426L16.9449 7.86426ZM16.2082 14.547C16.8823 15.3164 16.0252 16.0133 16.0252 16.0133C16.0252 16.0133 17.7394 15.1277 16.9497 14.0341C16.2323 12.9888 15.6737 12.4759 18.6879 10.729C18.6879 10.729 13.9403 11.9146 16.2082 14.547Z"
    fill="#8CBAEC" />
  <defs>
    <linearGradient id="paint0_linear_611_905" x1="9.14474" y1="3.19991" x2="23.2617" y2="28.0048"
      gradientUnits="userSpaceOnUse">
      <stop stop-color="#336AA4" />
      <stop offset="1" stop-color="#336AA4" stop-opacity="0.25" />
    </linearGradient>
    <linearGradient id="paint1_linear_611_905" x1="5.21243" y1="4.45556" x2="28.3556" y2="25.6644"
      gradientUnits="userSpaceOnUse">
      <stop stop-color="#336AA4" />
      <stop offset="1" stop-color="#121214" />
    </linearGradient>
  </defs>
</svg>