<svg width="41" height="42" viewBox="0 0 41 42" fill="none" xmlns="http://www.w3.org/2000/svg">
  <path
    d="M20.25 36.2749C28.8104 36.2749 35.75 29.3353 35.75 20.7749C35.75 12.2145 28.8104 5.2749 20.25 5.2749C11.6896 5.2749 4.75 12.2145 4.75 20.7749C4.75 29.3353 11.6896 36.2749 20.25 36.2749Z"
    stroke="#04D361" />
  <path
    d="M20.25 32.7749C26.8774 32.7749 32.25 27.4023 32.25 20.7749C32.25 14.1475 26.8774 8.7749 20.25 8.7749C13.6226 8.7749 8.25 14.1475 8.25 20.7749C8.25 27.4023 13.6226 32.7749 20.25 32.7749Z"
    fill="#04D361" />
  <path d="M25.25 17.7749L19 24.0249L15.25 20.2749" stroke="#051B0D" stroke-width="2" stroke-linecap="square"
    stroke-linejoin="round" />
</svg>