<svg width="24" height="25" viewBox="0 0 24 25" fill="none" xmlns="http://www.w3.org/2000/svg">
  <path
    d="M18 8.56006V6.56006C18 6.02963 17.7893 5.52092 17.4142 5.14584C17.0391 4.77077 16.5304 4.56006 16 4.56006H4C3.46957 4.56006 2.96086 4.77077 2.58579 5.14584C2.21071 5.52092 2 6.02963 2 6.56006V13.5601C2 14.0905 2.21071 14.5992 2.58579 14.9743C2.96086 15.3493 3.46957 15.5601 4 15.5601H12"
    stroke="#C4C4CC" stroke-width="2" stroke-linecap="round" stroke-linejoin="round" />
  <path d="M10 19.5601V15.6001V18.7501" stroke="#C4C4CC" stroke-width="2" stroke-linecap="round"
    stroke-linejoin="round" />
  <path d="M7 19.5601H12" stroke="#C4C4CC" stroke-width="2" stroke-linecap="round" stroke-linejoin="round" />
  <path
    d="M20 12.5601H18C16.8954 12.5601 16 13.4555 16 14.5601V20.5601C16 21.6646 16.8954 22.5601 18 22.5601H20C21.1046 22.5601 22 21.6646 22 20.5601V14.5601C22 13.4555 21.1046 12.5601 20 12.5601Z"
    stroke="#C4C4CC" stroke-width="2" stroke-linecap="round" stroke-linejoin="round" />
</svg>