<svg width="24" height="25" viewBox="0 0 24 25" fill="none" xmlns="http://www.w3.org/2000/svg">
  <mask id="mask0_2_1180" style="mask-type:luminance" maskUnits="userSpaceOnUse" x="0" y="0" width="24" height="25">
    <path d="M24 0.916992H0V24.917H24V0.916992Z" fill="white" />
  </mask>
  <g mask="url(#mask0_2_1180)">
    <path
      d="M8.625 15.167C9.2463 15.167 9.75 14.6633 9.75 14.042C9.75 13.4207 9.2463 12.917 8.625 12.917C8.0037 12.917 7.5 13.4207 7.5 14.042C7.5 14.6633 8.0037 15.167 8.625 15.167Z"
      fill="white" />
    <path
      d="M15.375 15.167C15.9963 15.167 16.5 14.6633 16.5 14.042C16.5 13.4207 15.9963 12.917 15.375 12.917C14.7537 12.917 14.25 13.4207 14.25 14.042C14.25 14.6633 14.7537 15.167 15.375 15.167Z"
      fill="white" />
    <path
      d="M14.385 7.82563L14.8538 5.98534C14.9006 5.80019 15.0155 5.63947 15.1754 5.53522C15.3355 5.43097 15.5289 5.39085 15.7171 5.42284L19.096 5.97972C19.2418 6.00341 19.3777 6.0693 19.4867 6.16925C19.5956 6.2692 19.6729 6.39886 19.709 6.54222L22.4775 17.4519C22.5198 17.6234 22.5002 17.8043 22.4222 17.9628C22.3442 18.1213 22.2127 18.2471 22.051 18.3181L15.7697 21.1025C15.6744 21.1458 15.5712 21.169 15.4665 21.1708C15.3619 21.1725 15.258 21.1527 15.1613 21.1126C15.0646 21.0725 14.9771 21.013 14.9045 20.9377C14.8317 20.8624 14.7752 20.773 14.7385 20.675L13.7812 18.0791"
      stroke="#7C7C8A" stroke-width="1.5" stroke-linecap="round" stroke-linejoin="round" />
    <path
      d="M9.61432 7.82563L9.14557 5.98534C9.09877 5.80019 8.98387 5.63947 8.8239 5.53522C8.66385 5.43097 8.47042 5.39085 8.2821 5.42284L4.90338 5.97972C4.75744 6.00341 4.62162 6.0693 4.51267 6.16925C4.40372 6.2692 4.3264 6.39886 4.29025 6.54222L1.52182 17.45C1.47952 17.6215 1.49912 17.8024 1.57715 17.9609C1.65519 18.1194 1.78665 18.2452 1.94838 18.3163L8.2296 21.1006C8.32492 21.1439 8.42812 21.1672 8.53282 21.1689C8.63745 21.1706 8.74132 21.1508 8.83807 21.1108C8.93475 21.0706 9.0222 21.0112 9.09487 20.9359C9.16762 20.8606 9.2241 20.7712 9.26085 20.6731L10.2181 18.0791"
      stroke="#7C7C8A" stroke-width="1.5" stroke-linecap="round" stroke-linejoin="round" />
    <path d="M7.5 8.25874C8.96625 7.85862 10.4801 7.65963 12 7.6672C13.5199 7.65963 15.0337 7.85862 16.5 8.25874"
      stroke="#7C7C8A" stroke-width="1.5" stroke-linecap="round" stroke-linejoin="round" />
    <path d="M16.5 17.5752C15.0337 17.9753 13.5199 18.1744 12 18.1668C10.4801 18.1744 8.96625 17.9753 7.5 17.5752"
      stroke="#7C7C8A" stroke-width="1.5" stroke-linecap="round" stroke-linejoin="round" />
  </g>
</svg>