<svg width="24" height="25" viewBox="0 0 24 25" fill="none" xmlns="http://www.w3.org/2000/svg">
  <path
    d="M17 2.22949H7C4.23858 2.22949 2 4.46807 2 7.22949V17.2295C2 19.9909 4.23858 22.2295 7 22.2295H17C19.7614 22.2295 22 19.9909 22 17.2295V7.22949C22 4.46807 19.7614 2.22949 17 2.22949Z"
    stroke="#8D8D99" stroke-width="2" stroke-linecap="round" stroke-linejoin="round" />
  <path
    d="M16 11.5998C16.1234 12.432 15.9813 13.282 15.5938 14.0288C15.2063 14.7756 14.5931 15.3812 13.8416 15.7595C13.0901 16.1377 12.2384 16.2694 11.4078 16.1357C10.5771 16.0021 9.80976 15.6099 9.21484 15.015C8.61991 14.42 8.22773 13.6527 8.09406 12.822C7.9604 11.9913 8.09206 11.1397 8.47032 10.3882C8.84858 9.63665 9.45418 9.02353 10.201 8.63604C10.9478 8.24854 11.7978 8.10638 12.63 8.22979C13.4789 8.35568 14.2648 8.75126 14.8717 9.3581C15.4785 9.96494 15.8741 10.7509 16 11.5998Z"
    stroke="#8D8D99" stroke-width="2" stroke-linecap="round" stroke-linejoin="round" />
  <path d="M17.5 6.72949H17.51" stroke="#8D8D99" stroke-width="2" stroke-linecap="round" stroke-linejoin="round" />
</svg>