<svg width="24" height="25" viewBox="0 0 24 25" fill="none" xmlns="http://www.w3.org/2000/svg">
  <path
    d="M16 8.22949C17.5913 8.22949 19.1174 8.86163 20.2426 9.98685C21.3679 11.1121 22 12.6382 22 14.2295V21.2295H18V14.2295C18 13.6991 17.7893 13.1904 17.4142 12.8153C17.0391 12.4402 16.5304 12.2295 16 12.2295C15.4696 12.2295 14.9609 12.4402 14.5858 12.8153C14.2107 13.1904 14 13.6991 14 14.2295V21.2295H10V14.2295C10 12.6382 10.6321 11.1121 11.7574 9.98685C12.8826 8.86163 14.4087 8.22949 16 8.22949Z"
    stroke="#8D8D99" stroke-width="2" stroke-linecap="round" stroke-linejoin="round" />
  <path d="M6 9.22949H2V21.2295H6V9.22949Z" stroke="#8D8D99" stroke-width="2" stroke-linecap="round"
    stroke-linejoin="round" />
  <path
    d="M4 6.22949C5.10457 6.22949 6 5.33406 6 4.22949C6 3.12492 5.10457 2.22949 4 2.22949C2.89543 2.22949 2 3.12492 2 4.22949C2 5.33406 2.89543 6.22949 4 6.22949Z"
    stroke="#8D8D99" stroke-width="2" stroke-linecap="round" stroke-linejoin="round" />
</svg>