<svg width="26" height="17" viewBox="0 0 26 17" fill="none" xmlns="http://www.w3.org/2000/svg">
  <path
    d="M12.9014 0.987305C9.48418 0.987305 7.34844 2.67494 6.49414 6.0502C7.77559 4.36257 9.27061 3.7297 10.9792 4.15161C11.9541 4.39233 12.6508 5.09087 13.4221 5.86414C14.6785 7.12376 16.1326 8.58164 19.3086 8.58164C22.7258 8.58164 24.8615 6.89401 25.7158 3.51875C24.4344 5.20638 22.9394 5.83924 21.2308 5.41734C20.2559 5.17661 19.5591 4.47808 18.7879 3.70481C17.5315 2.44518 16.0774 0.987305 12.9014 0.987305ZM6.49414 8.58164C3.07695 8.58164 0.941211 10.2693 0.0869141 13.6445C1.36836 11.9569 2.86338 11.324 4.57197 11.746C5.54682 11.9867 6.2436 12.6852 7.01484 13.4585C8.27122 14.7181 9.72533 16.176 12.9014 16.176C16.3186 16.176 18.4543 14.4884 19.3086 11.1131C18.0272 12.8007 16.5321 13.4336 14.8235 13.0117C13.8487 12.771 13.1519 12.0724 12.3807 11.2992C11.1243 10.0395 9.67018 8.58164 6.49414 8.58164Z"
    fill="url(#paint0_linear_1259_2747)" />
  <defs>
    <linearGradient id="paint0_linear_1259_2747" x1="-0.625" y1="5.84768" x2="21.3726" y2="18.6885"
      gradientUnits="userSpaceOnUse">
      <stop stop-color="#0ECCAD" />
      <stop offset="1" stop-color="#0ED7B5" />
    </linearGradient>
  </defs>
</svg>