<svg width="24" height="25" viewBox="0 0 24 25" fill="none" xmlns="http://www.w3.org/2000/svg">
  <mask id="mask0_2_1142" style="mask-type:luminance" maskUnits="userSpaceOnUse" x="0" y="0" width="24" height="25">
    <path d="M24 0.916992H0V24.917H24V0.916992Z" fill="white" />
  </mask>
  <g mask="url(#mask0_2_1142)">
    <path
      d="M7.875 15.917C10.5674 15.917 12.75 13.7344 12.75 11.042C12.75 8.34964 10.5674 6.16699 7.875 6.16699C5.18261 6.16699 3 8.34964 3 11.042C3 13.7344 5.18261 15.917 7.875 15.917Z"
      stroke="#7C7C8A" stroke-width="1.5" stroke-linecap="round" stroke-linejoin="round" />
    <path
      d="M0.958008 19.667C1.70716 18.5151 2.73213 17.5686 3.93988 16.9134C5.14764 16.2582 6.49992 15.915 7.87395 15.915C9.24795 15.915 10.6003 16.2582 11.808 16.9134C13.0157 17.5686 14.0408 18.5151 14.7899 19.667"
      stroke="#7C7C8A" stroke-width="1.5" stroke-linecap="round" stroke-linejoin="round" />
    <path d="M16.125 15.917C17.499 15.9162 18.8513 16.2588 20.0592 16.9137C21.267 17.5686 22.292 18.5151 23.041 19.667"
      stroke="white" stroke-width="1.5" stroke-linecap="round" stroke-linejoin="round" />
    <path
      d="M14.3145 6.51387C14.9814 6.24789 15.6987 6.1325 16.4154 6.17592C17.132 6.21934 17.8302 6.42051 18.46 6.76506C19.0899 7.1096 19.6359 7.58901 20.059 8.16904C20.4821 8.74909 20.7719 9.41539 20.9076 10.1204C21.0433 10.8254 21.0216 11.5516 20.8442 12.2473C20.6667 12.9429 20.3377 13.5908 19.8807 14.1446C19.4238 14.6984 18.8502 15.1443 18.201 15.4508C17.5517 15.7572 16.8427 15.9164 16.1248 15.917"
      stroke="white" stroke-width="1.5" stroke-linecap="round" stroke-linejoin="round" />
  </g>
</svg>