<svg width="253" height="27" viewBox="0 0 253 27" fill="none" xmlns="http://www.w3.org/2000/svg">
  <path
    d="M27.9614 8.54108C27.7066 8.53898 27.4539 8.58708 27.2177 8.68265C26.9815 8.77822 26.7665 8.9194 26.5848 9.09809C26.4032 9.27678 26.2585 9.48951 26.1591 9.72411C26.0597 9.95871 26.0074 10.2106 26.0053 10.4654V18.6078H27.9614V10.4813H32.6131V8.557H27.9614V8.54108Z"
    fill="white" />
  <path
    d="M44.2622 13.559V10.4817C44.2601 10.2269 44.2078 9.97502 44.1084 9.74042C44.009 9.50582 43.8643 9.29314 43.6827 9.11445C43.501 8.93576 43.286 8.79458 43.0498 8.69901C42.8136 8.60344 42.5608 8.55534 42.306 8.55744H35.9925C35.7381 8.55534 35.4858 8.60349 35.25 8.69915C35.0143 8.79482 34.7997 8.93609 34.6187 9.11488C34.4377 9.29368 34.2938 9.5065 34.1952 9.74105C34.0966 9.97561 34.0454 10.2273 34.0444 10.4817V16.6999C34.0454 16.9543 34.0966 17.206 34.1952 17.4405C34.2938 17.6751 34.4377 17.8878 34.6187 18.0666C34.7997 18.2454 35.0143 18.3868 35.25 18.4824C35.4858 18.5781 35.7381 18.6262 35.9925 18.6241H42.306C42.5608 18.6262 42.8136 18.5781 43.0498 18.4826C43.286 18.387 43.501 18.2458 43.6827 18.0671C43.8643 17.8884 44.009 17.6757 44.1084 17.4411C44.2078 17.2066 44.2601 16.9547 44.2622 16.6999V13.559ZM42.306 13.559V16.6681H35.9925V10.4817H42.306V13.559Z"
    fill="white" />
  <path
    d="M48.1411 8.54108C47.8863 8.53898 47.6336 8.58708 47.3974 8.68265C47.1612 8.77822 46.9462 8.9194 46.7645 9.09809C46.5829 9.27678 46.4382 9.48951 46.3388 9.72411C46.2393 9.95871 46.1871 10.2106 46.185 10.4654V16.6835C46.1871 16.9383 46.2393 17.1902 46.3388 17.4248C46.4382 17.6594 46.5829 17.8721 46.7645 18.0508C46.9462 18.2295 47.1612 18.3706 47.3974 18.4662C47.6336 18.5618 47.8863 18.6099 48.1411 18.6078L55.0113 18.5203V16.6835H48.1411V10.4813H55.0113V8.65242L48.1411 8.54108Z"
    fill="white" />
  <path
    d="M66.2299 8.54102H63.582L59.7175 12.5963H58.9224V8.54102H56.9662V18.5918H58.9224V14.5206H60.0674L64.0909 18.5918H66.7785L61.61 13.3358L66.2299 8.54102Z"
    fill="white" />
  <path
    d="M69.1482 16.6681V14.5211L77.4099 14.4575V10.4817C77.4078 10.2269 77.3556 9.97502 77.2561 9.74042C77.1567 9.50582 77.0121 9.29314 76.8304 9.11445C76.6488 8.93576 76.4337 8.79458 76.1975 8.69901C75.9613 8.60344 75.7086 8.55534 75.4538 8.55744H69.1482C68.6405 8.56366 68.1555 8.76862 67.7972 9.12838C67.439 9.48813 67.236 9.97401 67.2319 10.4817V16.6999C67.234 16.9547 67.2862 17.2066 67.3856 17.4411C67.4851 17.6757 67.6297 17.8884 67.8114 18.0671C67.993 18.2458 68.2081 18.387 68.4443 18.4826C68.6805 18.5781 68.9332 18.6262 69.188 18.6241L77.4496 18.5287V16.6999L69.1482 16.6681ZM69.1482 10.4499H75.4538V12.5968H69.1482V10.4499Z"
    fill="white" />
  <path
    d="M82.3397 5.59863H81.5445L80.3438 7.06175V8.52481H78.8569V10.4809H80.3438V16.715C80.3604 17.2282 80.5799 17.7139 80.954 18.0657C81.3281 18.4175 81.8264 18.6066 82.3397 18.5916L85.5203 18.4961V16.6673H82.3397V10.4093L85.7748 10.3537V8.52481H82.3397V5.59863Z"
    fill="white" />
  <path
    d="M96.0347 14.5211C96.0326 14.2663 95.9804 14.0144 95.8809 13.7798C95.7815 13.5452 95.6368 13.3325 95.4552 13.1538C95.2736 12.9751 95.0585 12.834 94.8223 12.7384C94.5861 12.6429 94.3334 12.5947 94.0786 12.5968H89.1645V10.4817H96.0347V8.64489L89.1645 8.55744C88.9098 8.55534 88.657 8.60344 88.4208 8.69901C88.1846 8.79458 87.9696 8.93576 87.7879 9.11445C87.6063 9.29314 87.4616 9.50582 87.3622 9.74042C87.2628 9.97502 87.2105 10.2269 87.2084 10.4817V12.6287C87.2105 12.8834 87.2628 13.1353 87.3622 13.3699C87.4616 13.6045 87.6063 13.8172 87.7879 13.9959C87.9696 14.1746 88.1846 14.3158 88.4208 14.4114C88.657 14.5069 88.9098 14.555 89.1645 14.5529H94.0786V16.6999H87.2084V18.5287L94.0786 18.6241C94.3334 18.6262 94.5861 18.5781 94.8223 18.4826C95.0585 18.387 95.2736 18.2458 95.4552 18.0671C95.6368 17.8884 95.7815 17.6757 95.8809 17.4411C95.9804 17.2066 96.0326 16.9547 96.0347 16.6999V14.5211Z"
    fill="white" />
  <path
    d="M106.228 8.54128H99.9224C99.6676 8.53918 99.4148 8.58728 99.1786 8.68285C98.9424 8.77842 98.7274 8.9196 98.5458 9.09829C98.3641 9.27698 98.2195 9.48971 98.12 9.72431C98.0206 9.95891 97.9683 10.2108 97.9662 10.4656V16.6837C97.9683 16.9385 98.0206 17.1904 98.12 17.425C98.2195 17.6596 98.3641 17.8723 98.5458 18.051C98.7274 18.2297 98.9424 18.3708 99.1786 18.4664C99.4148 18.562 99.6676 18.6101 99.9224 18.608L108.184 18.5205V16.6837H99.9224V14.5368L108.184 14.4493V10.4735C108.185 10.2174 108.135 9.96376 108.037 9.72727C107.939 9.49079 107.794 9.27625 107.612 9.0963C107.43 8.91634 107.214 8.77456 106.976 8.67926C106.738 8.58395 106.484 8.53704 106.228 8.54128ZM106.228 12.5966H99.9224V10.4815H106.228V12.5966Z"
    fill="white" />
  <path
    d="M118.408 8.54116L110.146 8.63658V10.4814H118.408V12.6283L110.17 12.7078V16.6836C110.171 16.938 110.222 17.1897 110.321 17.4243C110.419 17.6588 110.563 17.8716 110.744 18.0504C110.925 18.2292 111.14 18.3705 111.375 18.4661C111.611 18.5618 111.864 18.61 112.118 18.6079H118.432C118.686 18.61 118.938 18.5618 119.174 18.4661C119.41 18.3705 119.624 18.2292 119.805 18.0504C119.986 17.8716 120.13 17.6588 120.229 17.4243C120.327 17.1897 120.379 16.938 120.38 16.6836V10.4814C120.379 10.2242 120.327 9.96974 120.227 9.73274C120.127 9.49573 119.981 9.28083 119.798 9.10045C119.614 8.92008 119.397 8.7778 119.159 8.68181C118.92 8.58582 118.665 8.53801 118.408 8.54116ZM118.408 16.6677H112.094V14.5208H118.408V16.6677Z"
    fill="white" />
  <path
    d="M125.269 10.4098L128.704 10.3542V8.5253H125.269V5.58325H124.474L123.273 7.04632V8.50943H121.794V10.4337H123.273V16.6757C123.275 16.9305 123.328 17.1824 123.427 17.417C123.527 17.6516 123.671 17.8643 123.853 18.043C124.034 18.2217 124.25 18.3628 124.486 18.4584C124.722 18.554 124.975 18.6021 125.229 18.6L128.41 18.5046V16.6757H125.229L125.269 10.4098Z"
    fill="white" />
  <path
    d="M20.8394 1.9573L17.6587 1.48813C17.5801 1.47753 17.5005 1.49746 17.4361 1.5438L16.0843 3.2852C16.0407 3.33897 16.0114 3.40281 15.9988 3.47089C15.9863 3.53896 15.9911 3.60908 16.0127 3.67482C16.0196 3.70405 16.0192 3.7345 16.0116 3.76354C16.0039 3.79257 15.9892 3.81928 15.9688 3.84129C15.9483 3.86329 15.9228 3.87993 15.8944 3.88972C15.866 3.89952 15.8357 3.90216 15.806 3.89744L14.6928 3.6589C14.6068 3.6379 14.5166 3.64253 14.4332 3.6722C14.3499 3.70187 14.277 3.75531 14.2236 3.8259L9.83437 9.39202C9.79469 9.44651 9.73746 9.48569 9.67232 9.50306C9.60719 9.52043 9.53809 9.51493 9.47654 9.48743L7.80673 8.73998C7.73419 8.70686 7.65428 8.69312 7.57484 8.70009C7.4954 8.70706 7.41915 8.73448 7.35348 8.77973L6.51062 9.35227C6.44253 9.3989 6.36348 9.42708 6.28125 9.43405C6.19902 9.44102 6.11641 9.42653 6.04145 9.39202L5.62795 9.18527C5.56538 9.15619 5.49724 9.14101 5.42824 9.14081C5.35924 9.14062 5.29103 9.15543 5.22829 9.18415C5.16555 9.21288 5.10977 9.25487 5.06483 9.30723C5.01989 9.35959 4.98688 9.42106 4.96801 9.48743L4.66584 10.7995C4.62952 10.9512 4.64315 11.1105 4.70476 11.2538C4.76638 11.3971 4.87267 11.5166 5.00775 11.5946L5.64387 11.9842L7.68744 13.2247L8.68934 13.8369C8.82775 13.9128 8.98556 13.9457 9.14274 13.9316C9.29991 13.9174 9.44934 13.8568 9.57196 13.7574L11.2418 12.3182C11.3068 12.2597 11.3885 12.223 11.4755 12.213C11.5624 12.203 11.6502 12.2203 11.7269 12.2625L12.2357 12.517C12.3172 12.5603 12.4104 12.5767 12.5018 12.5638C12.5932 12.551 12.6782 12.5095 12.7446 12.4454L13.5875 11.6502C13.6519 11.5912 13.7326 11.5529 13.8191 11.5401C13.9055 11.5274 13.9938 11.5408 14.0725 11.5787L15.3369 12.1512C15.4278 12.1959 15.5314 12.2077 15.63 12.1845C15.7286 12.1613 15.8161 12.1045 15.8776 12.024L16.458 11.2845L20.8712 5.71839C20.9188 5.65783 20.9502 5.58614 20.9624 5.51008C20.9746 5.43403 20.9672 5.3561 20.941 5.28368C20.9147 5.21126 20.8704 5.14675 20.8123 5.0962C20.7542 5.04565 20.6841 5.01072 20.6088 4.99476L19.6307 4.77215C19.5845 4.76348 19.5414 4.74254 19.5061 4.71153C19.4707 4.68051 19.4443 4.64053 19.4297 4.59583C19.415 4.55112 19.4127 4.50334 19.4229 4.45741C19.4331 4.41149 19.4554 4.36914 19.4876 4.33482L21.0064 2.45821C21.0455 2.41959 21.073 2.37082 21.0858 2.31736C21.0986 2.2639 21.0962 2.2079 21.0788 2.15575C21.0614 2.1036 21.0298 2.05737 20.9875 2.02228C20.9451 1.9872 20.8938 1.96471 20.8394 1.9573Z"
    fill="white" />
  <path
    d="M6.28173 13.169C6.26315 13.1571 6.24126 13.1514 6.21922 13.1528C6.19718 13.1542 6.17616 13.1627 6.15927 13.1769C6.14238 13.1911 6.1305 13.2104 6.12535 13.2319C6.1202 13.2533 6.12204 13.2759 6.13064 13.2962L6.59981 14.5208C6.62747 14.6115 6.62747 14.7084 6.59981 14.7991L6.1863 16.3894C6.17364 16.44 6.17593 16.4933 6.19287 16.5427C6.2098 16.592 6.24065 16.6355 6.28173 16.6677L7.45859 17.5742C7.50994 17.6135 7.5728 17.6348 7.63748 17.6348C7.70216 17.6348 7.76502 17.6135 7.81637 17.5742L9.05682 16.5007C9.13065 16.4474 9.2145 16.4095 9.30332 16.3894L10.7108 16.2383C10.7292 16.229 10.7446 16.2149 10.7554 16.1973C10.7662 16.1798 10.772 16.1595 10.772 16.1389C10.772 16.1183 10.7662 16.0981 10.7554 16.0806C10.7446 16.063 10.7292 16.0488 10.7108 16.0395L6.28173 13.169Z"
    fill="white" />
  <path
    d="M5.87297 17.2795C5.83041 17.2558 5.78248 17.2434 5.73378 17.2434C5.68508 17.2434 5.6372 17.2558 5.59464 17.2795L4.60069 17.7646C4.54308 17.7913 4.49567 17.8359 4.46553 17.8918L2.34246 23.0524C2.34246 23.0524 2.3822 23.0921 2.42196 23.0921L2.907 22.9013H2.96266C2.96266 22.9013 3.00242 22.9569 2.96266 22.9808L1.43597 25.4379C1.43232 25.4431 1.42973 25.449 1.42835 25.4552C1.42697 25.4614 1.42681 25.4678 1.42792 25.4741C1.43015 25.4868 1.43737 25.4981 1.44791 25.5055C1.45845 25.5128 1.47149 25.5157 1.48416 25.5135C1.49684 25.5112 1.50809 25.5041 1.51547 25.4935L7.018 20.0546C7.06586 20.0045 7.09648 19.9405 7.10546 19.8717L7.2247 18.4643C7.22502 18.4226 7.21671 18.3813 7.20029 18.343C7.18387 18.3047 7.15969 18.2702 7.12929 18.2417L5.87297 17.2795Z"
    fill="white" />
  <path d="M138.326 4.48901V21.9507" stroke="white" stroke-width="1.3605" stroke-miterlimit="10" />
  <path
    d="M152.871 13.405H149.437L149.419 11.4975H152.301C152.809 11.4975 153.226 11.4327 153.55 11.3031C153.874 11.1673 154.116 10.9728 154.275 10.7197C154.44 10.4604 154.523 10.1456 154.523 9.77522C154.523 9.35545 154.443 9.01593 154.284 8.75666C154.131 8.49739 153.89 8.30911 153.559 8.19182C153.235 8.07454 152.816 8.01589 152.301 8.01589H150.392V19.3219H147.638V5.83987H152.301C153.079 5.83987 153.773 5.91395 154.385 6.06211C155.003 6.21026 155.527 6.43558 155.955 6.73806C156.383 7.04054 156.711 7.42327 156.937 7.88626C157.164 8.34307 157.277 8.8863 157.277 9.51595C157.277 10.0715 157.151 10.5839 156.901 11.0531C156.656 11.5222 156.267 11.9049 155.735 12.2013C155.208 12.4976 154.52 12.6611 153.669 12.692L152.871 13.405ZM152.751 19.3219H148.685L149.759 17.1552H152.751C153.235 17.1552 153.629 17.078 153.935 16.9237C154.241 16.7632 154.468 16.5471 154.615 16.2755C154.762 16.0039 154.835 15.6921 154.835 15.3403C154.835 14.9452 154.768 14.6026 154.633 14.3125C154.505 14.0223 154.297 13.8001 154.009 13.6458C153.721 13.4853 153.342 13.405 152.871 13.405H150.218L150.236 11.4975H153.541L154.174 12.2475C154.988 12.2352 155.643 12.3803 156.139 12.6828C156.64 12.9791 157.005 13.3649 157.231 13.8402C157.464 14.3155 157.58 14.8248 157.58 15.368C157.58 16.2323 157.393 16.9607 157.02 17.5533C156.647 18.1398 156.099 18.5811 155.377 18.8775C154.661 19.1738 153.786 19.3219 152.751 19.3219Z"
    fill="white" />
  <path d="M162.271 5.0991V19.3219H159.618V5.0991H162.271Z" fill="white" />
  <path
    d="M169.817 17.0626V12.5994C169.817 12.2784 169.764 12.0037 169.66 11.7753C169.556 11.5407 169.394 11.3586 169.174 11.229C168.96 11.0994 168.681 11.0345 168.339 11.0345C168.045 11.0345 167.791 11.087 167.577 11.1919C167.362 11.2907 167.197 11.4358 167.081 11.6272C166.965 11.8123 166.907 12.0315 166.907 12.2846H164.263C164.263 11.8586 164.361 11.4543 164.556 11.0716C164.752 10.6888 165.037 10.3524 165.41 10.0623C165.784 9.76596 166.227 9.53447 166.741 9.3678C167.261 9.20113 167.843 9.11779 168.485 9.11779C169.257 9.11779 169.942 9.24742 170.542 9.50669C171.141 9.76596 171.613 10.1549 171.955 10.6734C172.304 11.1919 172.479 11.8401 172.479 12.6179V16.9052C172.479 17.4546 172.512 17.9052 172.58 18.2571C172.647 18.6028 172.745 18.9052 172.873 19.1645V19.3219H170.202C170.074 19.0503 169.976 18.7108 169.908 18.3034C169.847 17.8898 169.817 17.4762 169.817 17.0626ZM170.165 13.2198L170.184 14.7291H168.706C168.357 14.7291 168.054 14.7693 167.797 14.8495C167.54 14.9298 167.329 15.044 167.164 15.1921C166.998 15.3341 166.876 15.5008 166.796 15.6921C166.723 15.8835 166.686 16.0934 166.686 16.3218C166.686 16.5502 166.738 16.757 166.842 16.9422C166.946 17.1212 167.096 17.2632 167.292 17.3681C167.488 17.4669 167.717 17.5163 167.981 17.5163C168.378 17.5163 168.724 17.436 169.018 17.2755C169.312 17.115 169.538 16.9175 169.697 16.6829C169.862 16.4483 169.948 16.2261 169.954 16.0162L170.652 17.1459C170.554 17.399 170.419 17.6614 170.248 17.933C170.083 18.2046 169.872 18.4608 169.615 18.7015C169.358 18.9361 169.048 19.1306 168.687 19.2849C168.326 19.433 167.898 19.5071 167.402 19.5071C166.772 19.5071 166.2 19.3806 165.686 19.1275C165.178 18.8682 164.774 18.5132 164.474 18.0626C164.18 17.6058 164.033 17.0873 164.033 16.507C164.033 15.9823 164.131 15.5162 164.327 15.1088C164.523 14.7014 164.81 14.3587 165.19 14.081C165.575 13.797 166.056 13.584 166.631 13.442C167.206 13.2939 167.873 13.2198 168.632 13.2198H170.165Z"
    fill="white" />
  <path
    d="M178.62 17.4237C178.944 17.4237 179.232 17.362 179.483 17.2385C179.734 17.1089 179.93 16.9298 180.07 16.7014C180.217 16.4669 180.294 16.1922 180.3 15.8773H182.788C182.781 16.5811 182.595 17.2076 182.228 17.757C181.86 18.3003 181.368 18.7293 180.75 19.0441C180.132 19.3528 179.44 19.5071 178.675 19.5071C177.904 19.5071 177.231 19.3775 176.655 19.1182C176.086 18.8589 175.612 18.5009 175.233 18.0441C174.853 17.5811 174.569 17.044 174.379 16.4329C174.189 15.8156 174.094 15.1551 174.094 14.4513V14.1828C174.094 13.4729 174.189 12.8124 174.379 12.2013C174.569 11.5839 174.853 11.0469 175.233 10.5901C175.612 10.1271 176.086 9.76596 176.655 9.50669C177.225 9.24742 177.892 9.11779 178.657 9.11779C179.471 9.11779 180.184 9.2752 180.796 9.59003C181.414 9.90486 181.897 10.3555 182.246 10.9419C182.601 11.5222 182.781 12.2105 182.788 13.0068H180.3C180.294 12.6735 180.223 12.371 180.089 12.0994C179.96 11.8278 179.77 11.6117 179.52 11.4512C179.275 11.2845 178.972 11.2012 178.611 11.2012C178.225 11.2012 177.91 11.2845 177.665 11.4512C177.42 11.6117 177.231 11.834 177.096 12.1179C176.961 12.3957 176.867 12.7136 176.812 13.0717C176.763 13.4235 176.738 13.7939 176.738 14.1828V14.4513C176.738 14.8403 176.763 15.2137 176.812 15.5718C176.86 15.9298 176.952 16.2477 177.087 16.5255C177.228 16.8033 177.42 17.0224 177.665 17.1829C177.91 17.3434 178.228 17.4237 178.62 17.4237Z"
    fill="white" />
  <path
    d="M186.964 5.08984V19.3219H184.321V5.08984H186.964ZM193.225 9.30298L188.91 14.2662L186.597 16.6274L185.633 14.7014L187.469 12.3494L190.049 9.30298H193.225ZM190.48 19.3219L187.543 14.6921L189.369 13.0809L193.528 19.3219H190.48Z"
    fill="white" />
  <path
    d="M200.468 5.83987H202.8L206.233 15.7384L209.666 5.83987H211.998L207.169 19.3219H205.296L200.468 5.83987ZM199.21 5.83987H201.533L201.955 15.4884V19.3219H199.21V5.83987ZM210.933 5.83987H213.264V19.3219H210.511V15.4884L210.933 5.83987Z"
    fill="white" />
  <path
    d="M215.091 14.4143V14.2199C215.091 13.4853 215.195 12.8093 215.403 12.192C215.611 11.5685 215.914 11.0284 216.312 10.5716C216.71 10.1147 217.2 9.75979 217.781 9.50669C218.362 9.24742 219.029 9.11779 219.782 9.11779C220.535 9.11779 221.205 9.24742 221.793 9.50669C222.38 9.75979 222.873 10.1147 223.27 10.5716C223.674 11.0284 223.98 11.5685 224.188 12.192C224.397 12.8093 224.501 13.4853 224.501 14.2199V14.4143C224.501 15.1427 224.397 15.8187 224.188 16.4422C223.98 17.0595 223.674 17.5996 223.27 18.0626C222.873 18.5194 222.383 18.8744 221.802 19.1275C221.22 19.3806 220.553 19.5071 219.8 19.5071C219.048 19.5071 218.378 19.3806 217.79 19.1275C217.209 18.8744 216.716 18.5194 216.312 18.0626C215.914 17.5996 215.611 17.0595 215.403 16.4422C215.195 15.8187 215.091 15.1427 215.091 14.4143ZM217.735 14.2199V14.4143C217.735 14.8341 217.772 15.2261 217.845 15.5903C217.919 15.9545 218.035 16.2755 218.194 16.5533C218.359 16.8249 218.573 17.0379 218.837 17.1922C219.1 17.3465 219.421 17.4237 219.8 17.4237C220.168 17.4237 220.483 17.3465 220.746 17.1922C221.009 17.0379 221.22 16.8249 221.379 16.5533C221.539 16.2755 221.655 15.9545 221.728 15.5903C221.808 15.2261 221.848 14.8341 221.848 14.4143V14.2199C221.848 13.8124 221.808 13.4297 221.728 13.0717C221.655 12.7074 221.535 12.3864 221.37 12.1087C221.211 11.8247 221 11.6025 220.737 11.442C220.474 11.2815 220.155 11.2012 219.782 11.2012C219.409 11.2012 219.091 11.2815 218.827 11.442C218.57 11.6025 218.359 11.8247 218.194 12.1087C218.035 12.3864 217.919 12.7074 217.845 13.0717C217.772 13.4297 217.735 13.8124 217.735 14.2199Z"
    fill="white" />
  <path
    d="M228.714 11.442V19.3219H226.07V9.30298H228.549L228.714 11.442ZM228.329 13.9606H227.613C227.613 13.2198 227.707 12.5531 227.897 11.9605C228.087 11.3617 228.353 10.8524 228.696 10.4327C229.038 10.0067 229.445 9.68263 229.917 9.4604C230.394 9.23199 230.926 9.11779 231.514 9.11779C231.979 9.11779 232.404 9.18569 232.79 9.3215C233.175 9.45731 233.506 9.67337 233.781 9.96968C234.063 10.266 234.277 10.658 234.424 11.1457C234.577 11.6333 234.653 12.229 234.653 12.9328V19.3219H231.991V12.9235C231.991 12.479 231.93 12.1333 231.808 11.8864C231.685 11.6395 231.505 11.4667 231.266 11.3679C231.034 11.2629 230.746 11.2105 230.403 11.2105C230.048 11.2105 229.739 11.2815 229.476 11.4234C229.219 11.5654 229.005 11.763 228.833 12.0161C228.668 12.263 228.543 12.5531 228.457 12.8865C228.371 13.2198 228.329 13.5779 228.329 13.9606Z"
    fill="white" />
  <path
    d="M241.529 9.30298V11.1919H235.746V9.30298H241.529ZM237.178 6.83066H239.822V16.3033C239.822 16.5934 239.858 16.8156 239.932 16.97C240.011 17.1243 240.128 17.2323 240.281 17.2941C240.434 17.3496 240.626 17.3774 240.859 17.3774C241.024 17.3774 241.171 17.3712 241.3 17.3589C241.434 17.3404 241.547 17.3218 241.639 17.3033L241.648 19.2664C241.422 19.3404 241.177 19.3991 240.914 19.4423C240.651 19.4855 240.36 19.5071 240.042 19.5071C239.461 19.5071 238.953 19.4114 238.518 19.2201C238.09 19.0225 237.759 18.7077 237.527 18.2756C237.294 17.8435 237.178 17.2755 237.178 16.5718V6.83066Z"
    fill="white" />
  <path
    d="M245.614 5.0991V19.3219H242.97V5.0991H245.614ZM245.238 13.9606H244.513C244.519 13.263 244.61 12.621 244.788 12.0346C244.965 11.442 245.219 10.9296 245.55 10.4975C245.88 10.0592 246.275 9.71967 246.734 9.47892C247.199 9.23816 247.713 9.11779 248.276 9.11779C248.766 9.11779 249.209 9.18878 249.607 9.33076C250.011 9.46657 250.357 9.6888 250.645 9.99746C250.938 10.2999 251.165 10.6981 251.324 11.1919C251.483 11.6858 251.563 12.2846 251.563 12.9883V19.3219H248.9V12.9698C248.9 12.5253 248.836 12.1766 248.708 11.9235C248.585 11.6642 248.405 11.4821 248.166 11.3771C247.934 11.266 247.646 11.2105 247.303 11.2105C246.924 11.2105 246.599 11.2815 246.33 11.4234C246.067 11.5654 245.856 11.763 245.697 12.0161C245.538 12.263 245.421 12.5531 245.348 12.8865C245.274 13.2198 245.238 13.5779 245.238 13.9606Z"
    fill="white" />
</svg>