<svg width="100" height="25" viewBox="0 0 100 25" fill="none" xmlns="http://www.w3.org/2000/svg">
  <path fill-rule="evenodd" clip-rule="evenodd"
    d="M38.1418 9.00529C37.5116 9.84094 37.1965 10.9643 37.1965 12.3684C37.1965 13.8616 37.5185 15.0261 38.1623 15.8617C38.8062 16.6974 39.6555 17.1152 40.7172 17.1152C41.6624 17.1152 42.4296 16.7453 43.0323 15.9919L43.1488 16.9508H45.327V4.14209H42.9091V8.73815C42.3337 8.0806 41.6076 7.75182 40.7309 7.75182C39.635 7.75182 38.7719 8.16964 38.1418 9.00529ZM40.0528 14.4918C39.7514 14.0397 39.6076 13.3959 39.6076 12.5465C39.6076 10.6629 40.1898 9.71764 41.3474 9.71079C42.0871 9.71079 42.6077 10.0259 42.9091 10.656V14.2247C42.6008 14.8548 42.0803 15.1699 41.3337 15.1699C40.772 15.1699 40.3473 14.9439 40.0528 14.4918ZM47.2861 4.6967C47.0463 4.92959 46.9231 5.22412 46.9231 5.58714C46.9231 5.95702 47.0463 6.2584 47.2998 6.48444C47.5464 6.71732 47.8752 6.83376 48.2793 6.83376C48.6834 6.83376 49.0122 6.71732 49.2588 6.48444C49.5054 6.25155 49.6287 5.95702 49.6287 5.58714C49.6287 5.23097 49.5054 4.92959 49.2588 4.6967C49.0122 4.46382 48.6834 4.34737 48.2724 4.34737C47.8546 4.34737 47.5258 4.46382 47.2861 4.6967ZM47.0669 16.9506H49.4848V7.92284H47.0669V16.9506ZM56.1014 14.4575C56.1014 14.163 55.9575 13.9301 55.663 13.7588C55.3685 13.5876 54.9027 13.4369 54.2588 13.3068C52.1149 12.8547 51.0395 11.9437 51.0395 10.5738C51.0395 9.7724 51.3683 9.10799 52.0327 8.56687C52.6971 8.0326 53.567 7.76547 54.6356 7.76547C55.7794 7.76547 56.6973 8.0326 57.3823 8.57372C58.0672 9.11484 58.4097 9.81349 58.4097 10.6765H55.9986C55.9986 10.3341 55.889 10.0464 55.663 9.82034C55.4438 9.59431 55.0945 9.48471 54.6219 9.48471C54.2177 9.48471 53.9027 9.57376 53.6766 9.7587C53.4574 9.94363 53.341 10.1765 53.341 10.4574C53.341 10.7245 53.4643 10.9368 53.7177 11.1012C53.9712 11.2656 54.3958 11.4094 54.9986 11.5259C55.6014 11.6423 56.1014 11.7793 56.5192 11.93C57.7932 12.3958 58.4302 13.204 58.4302 14.3548C58.4302 15.1767 58.0741 15.8411 57.3686 16.3548C56.663 16.8617 55.7521 17.1151 54.6356 17.1151C53.8821 17.1151 53.2109 16.9781 52.6218 16.711C52.0327 16.4439 51.5738 16.074 51.245 15.6014C50.9094 15.1288 50.745 14.6219 50.745 14.0808H53.0396C53.0602 14.5054 53.2177 14.8342 53.5122 15.0671C53.8068 15.2931 54.204 15.4096 54.6972 15.4096C55.1561 15.4096 55.5055 15.3205 55.7452 15.1493C55.9781 14.9644 56.1014 14.7383 56.1014 14.4575ZM64.5744 14.7997C64.3004 15.0463 63.9374 15.1696 63.4922 15.1696C62.91 15.1696 62.4784 14.971 62.1839 14.5737C61.9031 14.1627 61.7592 13.4983 61.7592 12.5668V12.3133C61.7592 11.3955 61.9031 10.7311 62.1907 10.3201C62.4784 9.90915 62.9031 9.70366 63.4648 9.70366C63.9237 9.70366 64.2867 9.8475 64.5675 10.142C64.8415 10.4366 64.9854 10.8133 64.9991 11.2859H67.2594C67.2457 10.2242 66.8964 9.36803 66.2183 8.72417C65.5402 8.08032 64.636 7.75839 63.5059 7.75839C62.2181 7.75839 61.2044 8.16936 60.4647 8.99816C59.7249 9.82696 59.355 10.9366 59.355 12.327V12.4777C59.355 13.923 59.7249 15.0532 60.4715 15.8751C61.2181 16.6971 62.2387 17.108 63.5264 17.108C64.2182 17.108 64.8484 16.9711 65.4169 16.6902C65.9923 16.4094 66.4375 16.0121 66.7663 15.5052C67.095 14.9984 67.2594 14.4367 67.2663 13.8271H65.0059C64.9991 14.2312 64.8552 14.5532 64.5744 14.7997ZM68.0128 12.3547C68.0128 11.4574 68.184 10.6628 68.5265 9.96418C68.869 9.26553 69.369 8.72441 70.0129 8.34084C70.6636 7.95726 71.4102 7.76547 72.2664 7.76547C73.4857 7.76547 74.4789 8.13535 75.246 8.88195C76.0132 9.62855 76.4447 10.6354 76.5337 11.9163L76.5475 12.5328C76.5475 13.9164 76.1639 15.026 75.3899 15.8617C74.6158 16.6973 73.5816 17.1151 72.2801 17.1151C70.9787 17.1151 69.9444 16.6973 69.1635 15.8617C68.3895 15.026 67.9991 13.8958 67.9991 12.4574V12.3547H68.0128ZM70.4239 12.5259C70.4239 13.3821 70.5883 14.0397 70.9102 14.4917C71.2321 14.9438 71.691 15.1699 72.2938 15.1699C72.876 15.1699 73.335 14.9438 73.6637 14.4986C73.9925 14.0534 74.1569 13.3342 74.1569 12.3478C74.1569 11.5053 73.9925 10.8546 73.6637 10.3957C73.335 9.93678 72.876 9.7039 72.2801 9.7039C71.691 9.7039 71.2321 9.93678 70.9102 10.3957C70.5814 10.8478 70.4239 11.5601 70.4239 12.5259ZM82.7188 7.92286L81.0406 14.0053L79.3625 7.92286H76.8418L79.8899 16.9438H82.1982L85.2394 7.92286H82.7188ZM90.0821 17.1152C88.7601 17.1152 87.6847 16.711 86.8491 15.8959C86.0203 15.0877 85.6024 14.0055 85.6024 12.6493V12.4164C85.6024 11.5122 85.7805 10.6971 86.1298 9.98477C86.4792 9.27241 86.9792 8.7176 87.6162 8.33402C88.2601 7.95044 88.993 7.75181 89.8149 7.75181C91.0479 7.75181 92.0205 8.14223 92.726 8.91623C93.4315 9.69708 93.7877 10.7999 93.7877 12.2246V13.2178H88.0409C88.1162 13.8068 88.356 14.2794 88.7464 14.6356C89.1368 14.9918 89.6368 15.1699 90.2328 15.1699C91.1643 15.1699 91.8835 14.8343 92.4109 14.163L93.5959 15.4918C93.2329 16.0055 92.7466 16.4028 92.1301 16.6905C91.5136 16.9713 90.8287 17.1152 90.0821 17.1152ZM89.8081 9.70393C89.3286 9.70393 88.945 9.86832 88.6437 10.1903C88.3491 10.5122 88.1573 10.978 88.0751 11.5807H91.4246V11.3889C91.4109 10.8547 91.267 10.4368 90.9931 10.1423C90.7122 9.84778 90.315 9.70393 89.8081 9.70393ZM99.1028 10.1146C99.3562 10.1146 99.6439 10.142 99.9726 10.1831L100 7.86798C99.7603 7.79263 99.5137 7.75839 99.2466 7.75839C98.3904 7.75839 97.726 8.16936 97.2397 8.99816L97.1712 7.92278H94.8972V16.9437H97.3082V11.0393C97.5959 10.4229 98.1918 10.1146 99.1028 10.1146Z"
    fill="white" />
  <path opacity="0.3"
    d="M21.2271 21.2519C16.4042 26.085 8.58505 26.1158 3.72116 21.3443C7.15872 24.6997 12.6691 24.669 16.0759 21.2622C19.5032 17.8246 19.5032 12.2527 16.0656 8.82534C12.628 5.38777 7.05611 5.39803 3.62881 8.83561C0.232289 12.2321 0.211766 17.7322 3.55698 21.1698C-1.21457 16.3059 -1.18378 8.50724 3.63907 3.67412C8.4927 -1.18979 16.3632 -1.18979 21.2271 3.66386C26.0807 8.5175 26.0807 16.3983 21.2271 21.2519Z"
    fill="white" />
  <path opacity="0.6"
    d="M16.0763 21.2521C12.6695 24.6589 7.15911 24.6897 3.72154 21.3342C3.69075 21.3034 3.67023 21.2829 3.63945 21.2521L3.62919 21.2419C5.65068 23.2531 8.91381 23.2531 10.9353 21.2419C12.9465 19.2204 12.9465 15.9572 10.9353 13.9357C8.91381 11.9348 5.64042 11.9348 3.62919 13.946C1.62821 15.947 1.61795 19.1793 3.58814 21.2008C3.58814 21.2008 3.58814 21.2008 3.57788 21.1906C3.57788 21.1906 3.57788 21.1906 3.56762 21.1803L3.55736 21.17L3.54709 21.1598C0.21214 17.7325 0.232663 12.2323 3.63945 8.82556C7.07702 5.38798 12.6387 5.38798 16.0763 8.8153C19.5138 12.2529 19.5138 17.8248 16.0763 21.2521Z"
    fill="white" />
  <path opacity="0.4"
    d="M3.62822 21.2515C3.60786 21.2312 3.5875 21.2108 3.56714 21.1904L3.57732 21.2006C3.59768 21.221 3.61804 21.2413 3.62822 21.2515Z"
    fill="white" />
  <path
    d="M10.9348 21.252C8.92355 23.2735 5.65017 23.2735 3.62867 21.252C3.60815 21.2314 3.59789 21.2212 3.57737 21.2006C1.60718 19.1791 1.61744 15.9468 3.61841 13.9458C5.62964 11.9243 8.90302 11.9243 10.9245 13.9458C12.946 15.9571 12.946 19.2304 10.9348 21.252Z"
    fill="white" />
</svg>